<svg width="2296" height="2251" viewBox="0 0 2296 2251" fill="none" xmlns="http://www.w3.org/2000/svg">
<g opacity="0.2">
<path d="M1541 2250.67C1957.97 2250.67 2296 2195.23 2296 2126.83C2296 2058.44 1957.97 2003 1541 2003C1124.03 2003 786 2058.44 786 2126.83C786 2195.23 1124.03 2250.67 1541 2250.67Z" fill="#371A45"/>
</g>
<path d="M1549.74 1354.44C1536.69 1282.49 1559.14 1158.09 1503.6 1121.16C1439.59 1078.61 1256.45 1034.83 1177.18 913.219C1170.93 815.399 1101.98 750.892 1069.42 762.472C1055.86 767.296 1047.99 783.539 1047.99 783.539C970.957 800.168 962.956 876.532 979.141 919.091C994.43 959.292 1000.56 1000.08 1010.56 1019.53C1051.26 1098.69 1203.75 1240.27 1432.54 1325.45" fill="#D8D8D8"/>
<path d="M1540.68 1356.24C1527.94 1296.76 1549.37 1164.81 1499.66 1130.02C1478.41 1115.99 1454.43 1106.25 1431.22 1095.86C1359.52 1064.73 1284.81 1032.83 1223.93 980.086C1203.52 962.312 1184.76 941.961 1169.57 918.656C1168.63 917.275 1168.11 915.709 1168 914.133C1165.45 876.582 1152.7 839.406 1130.65 809.676C1118.63 793.439 1091.88 766.007 1071.66 772.742C1066.47 774.966 1061.37 780.694 1058.22 785.977C1057.73 786.831 1057.12 787.821 1056.89 788.338C1055.44 791.235 1052.85 793.151 1050.01 793.798C1035.12 797.108 1021.09 803.31 1009.96 813.072C980.807 838.145 975.765 884.61 990.311 919.71C999.281 943.932 1005.32 970.267 1012.31 994.546C1016.36 1010.42 1024.28 1023.91 1033.38 1037.23C1092.28 1118.68 1173.79 1179.63 1257.44 1230.88C1314.32 1265.12 1374.15 1292.83 1434.08 1320.91C1436.42 1321.99 1437.47 1324.85 1436.43 1327.29C1435.5 1329.5 1433.16 1330.61 1430.99 1329.99C1366.8 1311.64 1305.94 1282.23 1248.09 1248.05C1160.89 1195.63 1055.04 1118.38 1002.75 1026.89C998.376 1019 995.261 1009.52 992.725 1000.89C985.455 975.632 980.08 951.44 971.214 927.323C945.188 859.939 975.036 787.256 1045.97 773.282L1039.06 778.806C1039.94 777.053 1040.56 776.012 1041.36 774.708C1071.35 725.126 1121.39 763.052 1146 797.241C1170.39 830.488 1183.93 871.303 1186.38 912.576L1184.8 907.785C1198.83 929.306 1216.36 948.392 1235.74 965.26C1305.32 1025.62 1392.13 1056.34 1474.29 1094.3C1486.57 1100.25 1498.35 1106.1 1509.94 1114C1554.76 1146.62 1551.53 1222.68 1553.61 1273.21C1554.31 1299.74 1554.31 1326.85 1558.81 1352.69C1560.62 1365.05 1543.48 1368.94 1540.68 1356.24Z" fill="#371A45"/>
<path d="M1200.19 1215.67C1196.61 1215.67 1193.21 1213.48 1191.71 1209.83C1189.7 1204.93 1191.86 1199.26 1196.54 1197.16C1286.21 1156.81 1286.6 1021.11 1286.59 1019.74C1286.57 1014.41 1290.68 1010.08 1295.77 1010.05C1295.79 1010.05 1295.8 1010.05 1295.82 1010.05C1300.89 1010.05 1305.01 1014.34 1305.04 1019.65C1305.07 1025.74 1304.59 1169.54 1203.83 1214.88C1202.64 1215.41 1201.4 1215.67 1200.19 1215.67Z" fill="#371A45"/>
<path d="M1430.42 2117.26C1504.2 2117.26 1546.18 2118.18 1561.17 2091.96C1583.4 2053.06 1561.45 1962.74 1553.38 1838.78C1552.06 1818.55 1550.98 1799.71 1550.13 1782.11C1541.8 1610.92 1553.81 1556.08 1557.97 1455.75L1337.44 1449.24C1337.44 1449.24 1341.24 1670.54 1348.62 1781.74C1348.69 1782.61 1348.74 1783.51 1348.81 1784.4C1354.96 1875.01 1371.61 1997.16 1371.61 1997.16C1371.61 1997.16 1308.76 2008.42 1306.18 2053.66C1302.53 2117.53 1354.22 2117.26 1430.42 2117.26Z" fill="white"/>
<path d="M1430.42 2117.26C1504.2 2117.26 1546.18 2118.18 1561.17 2091.96C1564.01 2087.02 1566.1 2081.23 1567.6 2074.67C1546.18 2091.48 1503.46 2090.78 1436.3 2090.78C1369.51 2090.78 1320.19 2090.95 1306.15 2054.07C1302.76 2117.53 1354.38 2117.26 1430.42 2117.26Z" fill="#D8D8D8"/>
<path d="M1337.44 1449.24C1337.44 1449.24 1341.24 1670.54 1348.62 1781.74C1348.69 1782.61 1348.74 1783.51 1348.81 1784.4C1439.46 1762.89 1513.35 1773.55 1550.13 1782.11C1541.8 1610.92 1553.81 1556.08 1557.97 1455.76L1337.44 1449.24Z" fill="#D8D8D8"/>
<path d="M1444.42 2126.91C1442.17 2126.91 1439.91 2126.91 1437.6 2126.91L1429.53 2126.91C1429.23 2126.91 1428.94 2126.91 1428.64 2126.91C1374.88 2126.91 1332.44 2126.78 1310.91 2102.87C1300.29 2091.09 1295.73 2074.8 1296.97 2053.1C1299.34 2011.51 1342.36 1995 1361.32 1989.72C1357.36 1959.66 1344.47 1858.7 1339.41 1782.42C1332.11 1672.23 1328.26 1451.64 1328.22 1449.43C1328.13 1444.1 1332.18 1439.7 1337.28 1439.61C1337.33 1439.61 1337.39 1439.61 1337.44 1439.61C1342.46 1439.61 1346.57 1443.81 1346.66 1449.08C1346.7 1451.29 1350.54 1671.38 1357.81 1781.09C1363.74 1870.56 1380.58 1994.55 1380.75 1995.79C1381.45 2000.96 1378.1 2005.78 1373.17 2006.66C1372.63 2006.76 1317.49 2017.23 1315.38 2054.24C1314.46 2070.36 1317.39 2081.93 1324.33 2089.64C1340.43 2107.51 1379.34 2107.62 1428.65 2107.62C1428.94 2107.62 1429.24 2107.62 1429.53 2107.62H1437.6C1502.37 2107.7 1541.45 2107.66 1553.24 2087.02C1566.92 2063.08 1561.26 2011.32 1554.09 1945.79C1550.63 1914.22 1546.72 1878.44 1544.18 1839.44C1533.58 1676.68 1538.91 1603.13 1544.06 1532C1545.8 1508.01 1547.59 1483.21 1548.75 1455.33C1548.97 1450.01 1553.2 1445.91 1558.36 1446.11C1563.45 1446.34 1567.39 1450.84 1567.17 1456.17C1566.01 1484.35 1564.2 1509.31 1562.45 1533.45C1557.35 1603.9 1552.07 1676.75 1562.58 1838.13C1565.09 1876.69 1568.98 1912.23 1572.41 1943.6C1580.28 2015.46 1585.96 2067.37 1569.07 2096.92C1552.45 2126.02 1513.82 2126.91 1444.42 2126.91Z" fill="#371A45"/>
<path d="M1462.27 1860.14C1426.81 1860.14 1385.96 1854.7 1348.4 1836.52C1343.77 1834.28 1341.76 1828.55 1343.9 1823.71C1346.04 1818.87 1351.52 1816.78 1356.14 1819.01C1441.49 1860.31 1549.84 1829.8 1550.93 1829.49C1555.85 1828.07 1560.91 1831.09 1562.27 1836.21C1563.63 1841.35 1560.75 1846.66 1555.85 1848.08C1553.08 1848.88 1513.26 1860.14 1462.27 1860.14Z" fill="#371A45"/>
<path d="M1820.88 1221.24C1795.71 1239.81 1765.02 1254.59 1730.74 1264.26L1717.76 1185.04C1717.76 1185.04 1755.06 1180.46 1783.33 1194.23C1796.56 1200.67 1809.19 1210.22 1820.88 1221.24Z" fill="#D8D8D8"/>
<path d="M1582.51 1678.01C1582.51 1678.01 1613.74 1674.22 1655.24 1665.62C1663.35 1663.9 1671.85 1662.03 1680.59 1659.99C1681.98 1659.7 1683.36 1659.35 1684.74 1659.01C1688.91 1658.01 1693.15 1656.97 1697.41 1655.88C1758.64 1640.18 1826.13 1615.37 1849.84 1579.09C1888.58 1519.8 1863.55 1259.92 1810.02 1162.9C1795.92 1137.31 1757.91 1124 1715.16 1117.38C1714.88 1117.33 1714.58 1117.3 1714.3 1117.25C1682.92 1112.45 1649.06 1111.25 1620.34 1111.46C1617.79 1111.47 1615.28 1111.5 1612.84 1111.54C1607.91 1111.62 1603.21 1111.75 1598.71 1111.89C1595.22 1112.01 1591.85 1112.12 1588.64 1112.27C1565.73 1113.25 1550.7 1114.79 1550.7 1114.79L1553.78 1169.48L1555.36 1197.37L1558.25 1249.08L1559.14 1264.73L1582.51 1678.01Z" fill="white"/>
<path d="M1553.79 1169.49L1555.35 1197.36L1576.93 1579L1582.53 1678.01C1582.53 1678.01 1583.18 1677.93 1584.42 1677.77C1584.77 1677.72 1585.19 1677.66 1585.63 1677.61C1585.98 1677.56 1586.38 1677.5 1586.77 1677.45C1587.08 1677.42 1587.38 1677.37 1587.68 1677.34C1587.8 1677.31 1587.94 1677.31 1588.06 1677.29C1588.62 1677.21 1589.25 1677.12 1589.9 1677.02C1590.04 1677.02 1590.18 1676.99 1590.34 1676.96C1590.88 1676.89 1591.44 1676.8 1592.05 1676.72C1592.86 1676.62 1593.7 1676.48 1594.59 1676.35C1595.22 1676.25 1595.9 1676.16 1596.57 1676.06C1597.27 1675.95 1597.97 1675.85 1598.7 1675.74C1599.61 1675.61 1600.56 1675.45 1601.54 1675.31C1603.53 1675 1605.63 1674.68 1607.84 1674.31C1609.8 1674.02 1611.85 1673.68 1614 1673.31C1616.47 1672.89 1619.06 1672.46 1621.74 1671.99C1631.66 1670.26 1642.99 1668.14 1655.23 1665.6C1657.61 1665.11 1660.04 1664.59 1662.48 1664.07C1664.19 1663.71 1665.93 1663.32 1667.68 1662.93C1671.9 1662 1676.24 1661.02 1680.6 1659.99C1745.77 1644.69 1823.91 1618.74 1849.81 1579.1C1881.74 1530.29 1870.4 1345.45 1835.51 1227.51C1852.12 1331.96 1852.65 1445.96 1828.59 1482.75C1816.69 1500.94 1792.06 1516.33 1762.46 1529.15C1749.85 1534.62 1736.55 1523.32 1738.69 1509.22C1738.7 1509.11 1738.72 1509 1738.74 1508.88C1742.57 1483.02 1743.39 1453.87 1739.47 1420.21C1731.06 1348.08 1709.18 1245.55 1624.5 1171.2C1622.51 1169.44 1591.41 1169.33 1553.79 1169.49Z" fill="#D8D8D8"/>
<path d="M1573.89 1688.78L1540.96 1106.06L1549.8 1105.17C1550.36 1105.11 1606.3 1099.57 1666.28 1102.79C1749.2 1107.24 1800.26 1125.84 1818.02 1158.06C1873.82 1259.24 1898.13 1522.31 1857.44 1584.55C1808.48 1659.45 1592.74 1686.48 1583.58 1687.6L1573.89 1688.78ZM1560.42 1123.56L1591.14 1667.11C1633.7 1660.97 1803.41 1633.03 1842.22 1573.66C1858.71 1548.44 1863.86 1474.83 1855.36 1386.11C1846.64 1295.21 1826.21 1211.52 1802.05 1167.7C1773.98 1116.8 1625.81 1118.09 1560.42 1123.56Z" fill="#371A45"/>
<path d="M1824.17 1387.51L1735.13 1404.46C1727.18 1405.97 1721.2 1412.89 1720.6 1421.31C1718.41 1452.18 1716.9 1523.75 1747.41 1543.96C1772.74 1560.74 1810.47 1554.28 1830.73 1532.14C1853.39 1507.37 1848.84 1437.85 1844.98 1403.6C1843.78 1392.96 1834.26 1385.59 1824.17 1387.51Z" fill="white"/>
<path d="M1720.61 1421.33C1718.4 1452.18 1716.9 1523.75 1747.42 1543.95C1772.75 1560.74 1810.47 1554.28 1830.74 1532.13C1844.66 1516.89 1848.31 1484.72 1848.15 1454.26C1845.62 1469.77 1840.51 1482.7 1833.42 1491.6C1792.81 1542.56 1753.58 1492.07 1753.58 1492.07C1753.58 1492.07 1749.05 1505.88 1744.45 1507.14C1725.23 1512.41 1722.83 1448.01 1722.32 1414.65C1721.37 1416.68 1720.77 1418.93 1720.61 1421.33Z" fill="#D8D8D8"/>
<path d="M1780.65 1563.09C1767.06 1563.09 1753.67 1559.53 1742.48 1552.11C1708.91 1529.87 1708.6 1460.17 1711.4 1420.6C1712.31 1407.81 1721.39 1397.26 1733.48 1394.96L1822.52 1378.02C1829.84 1376.63 1837.44 1378.48 1843.4 1383.1C1849.36 1387.71 1853.28 1394.77 1854.14 1402.47C1859.54 1450.42 1861.02 1512.98 1837.39 1538.81C1822.89 1554.66 1801.54 1563.09 1780.65 1563.09ZM1825.82 1397L1736.78 1413.95C1732.95 1414.68 1730.08 1418 1729.79 1422.03C1725.61 1481.15 1734.04 1523.69 1752.34 1535.81C1773.36 1549.73 1806.2 1545 1824.06 1525.47C1838.2 1510.02 1842.6 1464.88 1835.83 1404.73C1835.55 1402.26 1834.34 1400.09 1832.43 1398.61C1830.52 1397.13 1828.17 1396.55 1825.82 1397Z" fill="#371A45"/>
<path d="M1790.42 1560.23C1751.68 1539.12 1744.25 1487.78 1746.82 1446.43C1747.1 1443.61 1747.38 1440.99 1748.12 1437.91C1748.45 1436.55 1749.77 1435.72 1751.07 1436.07C1752.29 1436.39 1753.06 1437.63 1752.88 1438.9C1751.26 1459.57 1755.24 1481.33 1761.29 1500.98C1767.38 1518.44 1777.83 1534.61 1793.67 1543.19C1794.53 1543.64 1795.75 1544.18 1796.12 1544.28C1807.47 1547.95 1801.37 1565.23 1790.42 1560.23Z" fill="#371A45"/>
<path d="M1672.6 1165.74C1705.39 1157.59 1738.3 1150.78 1771.93 1147.52C1783.26 1146.53 1794.66 1145.87 1806.54 1146.64C1811.63 1146.97 1815.5 1151.55 1815.18 1156.87C1814.87 1162.42 1810.06 1166.57 1804.8 1165.85C1772.7 1162.11 1739.39 1166.13 1707.28 1170.27C1696.35 1171.8 1685.36 1173.5 1674.55 1175.47C1668.58 1176.44 1666.72 1167.4 1672.6 1165.74Z" fill="#371A45"/>
<path d="M1304.4 1602.41C1336.75 1705.61 1451.1 1697.46 1520.94 1703.99C1520.94 1703.99 1574.15 1632.77 1616.43 1663.89C1699.73 1725.19 1748.93 1646.71 1732.45 1545.88C1710.59 1411.94 1688.74 1272.88 1665.38 1169.49C1658.21 1137.72 1650.9 1109.31 1643.41 1085.46L1352.26 1138.69C1343.85 1172.45 1332.32 1221.51 1321.71 1276.11C1299.51 1390.4 1281.39 1528.97 1304.4 1602.41Z" fill="white"/>
<path d="M1321.71 1276.11C1354.57 1288.6 1391.18 1295.57 1429.78 1295.57C1535.12 1295.57 1625.66 1243.72 1665.38 1169.49C1658.21 1137.72 1650.9 1109.31 1643.41 1085.46L1352.26 1138.69C1343.85 1172.45 1332.32 1221.51 1321.71 1276.11Z" fill="#D8D8D8"/>
<path d="M1356.73 1139.91C1336.7 1260.29 1306.38 1379.12 1303.25 1501.67C1302.77 1531.39 1303.8 1561.88 1310.71 1590.56C1330.43 1673.38 1406.92 1687.19 1477.57 1691.35C1492.13 1692.34 1506.81 1693.01 1521.76 1694.38L1513.67 1698.04C1530.8 1676.85 1550.65 1657.46 1576.64 1648.91C1590.2 1644.41 1607.31 1645.84 1619.65 1654.54C1629.04 1661.37 1639.46 1668.02 1650.14 1671.83C1712.94 1694.57 1731.02 1615.84 1725.63 1565.87C1725.02 1557.72 1723.66 1549.23 1722.33 1541.15C1708.57 1457.09 1694.95 1371.22 1679.7 1287.67C1667.19 1220.74 1654.33 1153.23 1634.61 1088.37C1633.05 1083.3 1635.7 1077.87 1640.55 1076.23C1645.4 1074.59 1650.6 1077.37 1652.16 1082.44C1662.42 1115.63 1670.41 1149.19 1677.76 1182.83C1702.89 1300.06 1720.98 1419.58 1740.51 1537.9C1748.05 1581.89 1748.12 1632 1720.97 1669.35C1690.42 1708.98 1644.36 1697.36 1609.75 1670.81C1584.3 1654.37 1553.79 1681.37 1535.76 1700.91C1530.73 1705.59 1527.63 1714.21 1520.12 1713.59C1476.73 1709.9 1430.18 1710.22 1387.36 1696.05C1318.28 1673.75 1290.19 1620.81 1285.65 1548.29C1280.68 1470.54 1291.38 1392.62 1304.3 1316.73C1315.44 1256.11 1327.77 1195.66 1347.81 1137.47C1349.89 1132.23 1357.41 1133.82 1356.73 1139.91Z" fill="#371A45"/>
<path d="M1215.46 835.488C1243.47 1036.96 1422.36 1176.54 1614.96 1147.21C1679.83 1137.34 1738.01 1109.54 1785.54 1069.31C1832.24 1029.84 1868.69 978.368 1891.16 920.075C1913.76 861.586 1922.28 796.212 1912.96 729.273C1884.91 527.802 1706.06 388.251 1513.45 417.555C1320.82 446.891 1187.41 634.016 1215.46 835.488Z" fill="white"/>
<path d="M1215.43 835.483C1215.68 837.318 1215.95 839.157 1216.26 841.005C1255.58 959.275 1360.27 1047.03 1487.44 1054.37C1655.3 1064.07 1798.68 929.971 1807.76 754.869C1816.81 579.786 1688.11 429.975 1520.28 420.299C1513.58 419.9 1506.93 419.754 1500.33 419.84C1314.81 455.432 1188.05 638.596 1215.43 835.483Z" fill="#371A45"/>
<path d="M1243.01 934.317C1306.02 1080.36 1455.83 1171.44 1614.96 1147.21C1679.83 1137.34 1738.01 1109.54 1785.53 1069.31C1786.99 1068.08 1788.45 1066.82 1789.88 1065.56C1792.76 1063.05 1795.61 1060.5 1798.41 1057.88C1799.8 1056.59 1801.2 1055.27 1802.56 1053.94C1803.93 1052.62 1805.29 1051.29 1806.66 1049.94C1808.02 1048.61 1809.35 1047.25 1810.69 1045.86C1812.02 1044.5 1813.36 1043.11 1814.66 1041.72C1815.8 1040.53 1816.95 1039.3 1818.06 1038.1C1818.38 1037.74 1818.69 1037.39 1819.01 1037.06C1820.06 1035.9 1821.11 1034.73 1822.13 1033.57C1825.47 1029.88 1828.68 1026.09 1831.8 1022.26C1833.04 1020.74 1834.28 1019.22 1835.5 1017.66C1837.06 1015.72 1838.59 1013.74 1840.08 1011.76C1840.28 1011.53 1840.47 1011.27 1840.63 1011.05C1842 1009.23 1843.37 1007.38 1844.74 1005.5C1849.24 999.302 1853.55 992.97 1857.65 986.505C1858.86 984.621 1860.08 982.704 1861.23 980.754C1861.55 980.266 1861.84 979.779 1862.13 979.291C1863.09 977.732 1864.02 976.171 1864.91 974.578C1866.29 972.237 1867.64 969.896 1868.95 967.522C1869.56 966.449 1870.14 965.407 1870.72 964.334C1871.49 962.935 1872.23 961.536 1872.97 960.104C1873.03 959.974 1873.1 959.876 1873.16 959.746C1873.9 958.38 1874.61 957.013 1875.28 955.646C1876.5 953.27 1877.69 950.861 1878.85 948.451C1879.95 946.172 1881.04 943.893 1882.07 941.613C1883.69 938.063 1885.27 934.513 1886.79 930.928C1887.53 929.135 1888.28 927.31 1889.02 925.518C1889.73 923.725 1890.45 921.899 1891.16 920.074C1891.51 902.443 1889.36 886.776 1885.25 873.213C1857.02 780.176 1736.73 786.18 1704.86 929.373C1697.43 976.078 1705.33 1012.12 1721.51 1035.91C1684.43 1055.55 1643.73 1069.3 1600.37 1075.9C1460.89 1097.14 1327.87 1039.1 1243.01 934.317Z" fill="#D8D8D8"/>
<path d="M1563.44 1160.77C1486.08 1160.77 1411.1 1134.89 1347.97 1085.63C1270.53 1025.21 1220.23 936.87 1206.31 836.874C1177.59 630.448 1314.77 438.067 1512.11 408.021C1607.7 393.463 1703 418.724 1780.43 479.14C1857.87 539.557 1908.17 627.901 1922.09 727.898C1936 827.893 1911.85 927.571 1854.1 1008.57C1796.34 1089.57 1711.88 1142.19 1616.29 1156.75C1598.63 1159.44 1580.97 1160.77 1563.44 1160.77ZM1564.92 423.299C1548.28 423.299 1531.53 424.562 1514.77 427.114C1424.05 440.925 1343.9 490.866 1289.09 567.735C1234.28 644.603 1211.36 739.198 1224.57 834.095C1237.77 928.992 1285.51 1012.83 1359 1070.17C1432.48 1127.5 1522.91 1151.46 1613.63 1137.66C1704.35 1123.85 1784.5 1073.91 1839.31 997.038C1894.12 920.167 1917.04 825.573 1903.84 730.676C1890.63 635.78 1842.89 551.942 1769.4 494.606C1709.5 447.868 1638.33 423.299 1564.92 423.299Z" fill="#371A45"/>
<path d="M1504.76 1099.61C1498.24 1099.61 1491.7 1099.42 1485.14 1099.05C1406.73 1094.51 1334.16 1063.62 1275.27 1009.71C1271.43 1006.2 1271.04 1000.11 1274.4 996.098C1277.75 992.085 1283.58 991.678 1287.41 995.189C1343.18 1046.23 1411.9 1075.49 1486.16 1079.78C1573.96 1084.85 1658.39 1053.88 1723.79 992.565C1788.93 931.494 1827.41 847.587 1832.13 756.301C1838.88 625.714 1775.36 504.264 1666.36 439.346C1661.93 436.71 1660.39 430.82 1662.91 426.19C1665.43 421.557 1671.06 419.947 1675.48 422.58C1730.69 455.455 1776.25 503.499 1807.25 561.519C1839.12 621.158 1854.09 688.874 1850.55 757.344C1845.55 853.779 1804.91 942.417 1736.1 1006.93C1671.92 1067.11 1590.41 1099.61 1504.76 1099.61Z" fill="#371A45"/>
<path d="M1895.01 971.831C1826.9 1130.77 1668.89 1072.74 1719.29 914.157C1784.82 744.838 1953.73 806.841 1895.01 971.831Z" fill="white"/>
<path d="M1760.87 1062.01C1713.39 1044.98 1694.97 973.042 1722.35 905.985C1732.95 987.879 1838.77 889.224 1853.24 856.265C1968.25 925.611 1847.45 1095.25 1760.87 1062.01Z" fill="#D8D8D8"/>
<path d="M1785.92 1075.53C1775.3 1075.53 1765.17 1073.52 1755.95 1069.77C1713.71 1052.57 1683.29 996.847 1710.54 911.114L1710.74 910.537C1746.2 818.936 1812.91 790.58 1860.47 809.913C1903.39 827.355 1935.21 886.518 1903.65 975.196L1903.42 975.778C1872.91 1046.99 1825.97 1075.53 1785.92 1075.53ZM1727.95 917.493C1704.68 991.027 1728.58 1037.92 1762.64 1051.79C1798.69 1066.46 1852.78 1046.53 1886.47 968.172C1913.5 891.906 1888.51 842.003 1853.79 827.896C1814.69 812.007 1758.94 837.689 1727.95 917.493Z" fill="#371A45"/>
<path d="M1900.42 972.673C1845.1 1101.41 1726.03 1060.03 1766.77 931.758C1819.85 792.75 1949.21 837.866 1900.42 972.673Z" fill="white"/>
<path d="M1900.43 972.678C1907.5 953.126 1910.83 935.498 1911.2 920.002C1878.3 996.622 1797.39 1000.38 1766.51 932.579C1726.55 1060.21 1845.21 1101.14 1900.43 972.678Z" fill="#D8D8D8"/>
<path d="M1813.08 1060.63C1805.22 1060.63 1797.75 1059.16 1790.95 1056.39C1758.57 1043.18 1735.82 998.586 1758.02 928.716L1758.2 928.18C1787.57 851.27 1840.9 826.481 1878.38 841.73C1911.67 855.274 1935.46 903.098 1909.04 976.088L1908.83 976.627C1883.09 1036.54 1844.88 1060.63 1813.08 1060.63ZM1775.43 935.07C1757.2 992.759 1773.43 1028.54 1797.65 1038.41C1824.01 1049.15 1864.72 1032.01 1891.9 968.984C1913.72 908.439 1896.74 869.903 1871.69 859.713C1842.72 847.918 1800.37 870.023 1775.43 935.07Z" fill="#371A45"/>
<g opacity="0.5">
<path d="M1727.88 726.06C1708.85 799.504 1628.71 778.168 1634.94 711.779C1647.31 628.514 1742.14 652.064 1727.88 726.06Z" fill="white"/>
</g>
<g opacity="0.5">
<path d="M1698.2 828.409C1689.37 856.057 1654.16 847.434 1661.09 816.464C1669.92 788.819 1705.14 797.441 1698.2 828.409Z" fill="white"/>
</g>
<g opacity="0.5">
<path d="M1298.6 712.93C1290.19 454.817 1544.52 457.182 1613.47 521.401C1451.67 510.401 1367.4 603.978 1298.6 712.93Z" fill="white"/>
</g>
<path d="M966.66 949.78C967.743 970.086 972.285 984.749 979.271 985.231C995.917 986.341 999.191 978.551 1028.33 975.802C1050.3 973.703 1071.17 881.89 1061.39 849.284C1061.33 849.066 1061.26 848.85 1061.16 848.632C1053.51 825.697 1010.03 827.82 1002.6 833.583C974.475 855.41 964.654 912.229 966.66 949.78Z" fill="white"/>
<path d="M966.659 949.779C967.743 970.085 972.285 984.748 979.271 985.231C995.917 986.34 999.19 978.55 1028.33 975.801C1050.3 973.702 1071.17 881.889 1061.39 849.283C1061.32 849.066 1061.26 848.849 1061.16 848.632C1058.24 872.725 1049.06 919.922 1021.39 937.045C997.162 952.046 977.587 957.255 966.659 949.779Z" fill="#D8D8D8"/>
<path d="M982.383 994.974C981.2 994.974 979.965 994.934 978.669 994.847C973.091 994.47 965.512 990.731 961.089 975.053C951.453 940.893 957.983 856.201 997.112 825.839C1005.76 819.126 1029.58 818.104 1046.12 823.735C1058.72 828.022 1067.04 835.858 1070.2 846.397C1078.63 874.57 1067.01 941.786 1048.76 970.4C1042.84 979.68 1036.25 984.726 1029.16 985.397C1015.46 986.699 1008.16 989.1 1001.72 991.219C995.874 993.142 990.305 994.974 982.383 994.974ZM981.175 975.661C986.923 975.873 990.509 974.681 996.191 972.814C1003.15 970.522 1011.82 967.672 1027.49 966.185C1027.48 966.185 1030.4 965.313 1035.11 956.841C1049.65 930.708 1059.13 873.963 1052.6 852.161C1051.45 848.341 1048.15 845.252 1042.78 842.98C1029.83 837.496 1011.6 839.513 1007.93 841.465C986.57 858.219 977.297 899.987 975.847 930.729C974.648 956.202 978.504 971.815 981.175 975.661Z" fill="#371A45"/>
<path d="M1304.4 1602.41C1340.8 1734.19 1530.78 1702.67 1530.78 1702.67C1530.78 1702.67 1534.52 1716.8 1541.41 1739.27C1558.77 1795.81 1596.1 1905.13 1644.31 1975.55C1644.31 1975.55 1643.71 1995.42 1613.99 2027.5C1608.34 2033.58 1605.76 2040.55 1604.7 2047.47C1603.31 2056.25 1604.37 2064.98 1604.61 2071.75C1606.45 2127.03 1743.91 2125.97 1786.88 2101.54C1840.39 2071.13 1831.91 1955.29 1826.28 1929.39C1825.29 1924.81 1824.28 1920.42 1823.26 1916.25C1806.96 1848.24 1790.32 1831.93 1769.91 1761.1C1763.02 1737.2 1757.49 1711.11 1752.69 1683.93C1739.67 1610.32 1732.1 1528.73 1718.2 1460.96L1295.06 1470.08C1290.94 1555.21 1304.4 1602.41 1304.4 1602.41Z" fill="white"/>
<path d="M1604.61 2071.75C1606.45 2127.03 1743.91 2125.97 1786.88 2101.54C1840.39 2071.13 1831.91 1955.29 1826.28 1929.39C1825.29 1924.81 1824.28 1920.42 1823.26 1916.25C1823.91 1962.5 1816.86 2036.61 1768.39 2063.17C1704.87 2097.94 1620.93 2082.36 1604.7 2047.47C1603.31 2056.25 1604.37 2064.98 1604.61 2071.75Z" fill="#D8D8D8"/>
<path d="M1304.4 1602.41C1340.8 1734.19 1530.78 1702.66 1530.78 1702.66C1530.78 1702.66 1534.52 1716.8 1541.41 1739.27C1615.46 1676.91 1707.04 1678.26 1752.69 1683.93C1739.66 1610.32 1732.1 1528.73 1718.2 1460.96L1295.06 1470.08C1290.94 1555.21 1304.4 1602.41 1304.4 1602.41Z" fill="#D8D8D8"/>
<path d="M1703.77 2127C1671.94 2127 1640.02 2121.67 1620.03 2109.73C1600.31 2097.95 1595.75 2082.75 1595.39 2072.08C1595.34 2070.62 1595.25 2069.06 1595.16 2067.43C1594.44 2054.87 1593.35 2035.9 1607.36 2020.78C1627.43 1999.12 1633.03 1983.84 1634.56 1977.83C1575.66 1889.79 1534.01 1748.78 1524.1 1713.31C1508.07 1715.19 1470.52 1718.21 1429.81 1711.48C1357.92 1699.62 1311.49 1662.83 1295.55 1605.09C1295 1603.18 1281.69 1555.41 1285.84 1469.6C1286.1 1464.28 1290.45 1460.21 1295.52 1460.45C1300.6 1460.72 1304.52 1465.25 1304.26 1470.57C1300.29 1552.71 1313.11 1599.21 1313.25 1599.67C1347.02 1721.91 1527.53 1693.44 1529.34 1693.14C1533.98 1692.36 1538.42 1695.37 1539.68 1700.1C1540.13 1701.82 1586.17 1874.05 1651.81 1969.94C1652.99 1971.67 1653.6 1973.75 1653.53 1975.87C1653.46 1978.28 1651.9 2000.43 1620.61 2034.2C1612.24 2043.23 1612.95 2055.47 1613.57 2066.27C1613.67 2068.07 1613.77 2069.79 1613.82 2071.4C1614.11 2079.92 1619.13 2086.97 1629.18 2092.98C1667.02 2115.59 1753.65 2109.44 1782.48 2093.06C1829.16 2066.52 1823.1 1958.24 1817.28 1931.53C1807.73 1887.65 1798.01 1863.91 1787.71 1838.77C1779.34 1818.33 1770.69 1797.2 1761.09 1763.88C1745.75 1710.65 1736.96 1646.66 1728.47 1584.79C1722.51 1541.41 1716.88 1500.43 1709.2 1462.98C1708.12 1457.77 1711.3 1452.64 1716.27 1451.52C1721.25 1450.39 1726.16 1453.72 1727.23 1458.93C1735.05 1497.03 1740.98 1540.25 1746.72 1582.04C1755.13 1643.22 1763.81 1706.47 1778.75 1758.31C1788.05 1790.59 1796.5 1811.22 1804.67 1831.17C1815.3 1857.13 1825.35 1881.66 1835.27 1927.25C1840.02 1949.07 1852.07 2075.46 1791.28 2110.01C1772.29 2120.8 1738.09 2127 1703.77 2127Z" fill="#371A45"/>
<path d="M1591.79 1847.32C1586.27 1847.32 1580.63 1847.17 1574.88 1846.87C1569.79 1846.6 1565.87 1842.07 1566.13 1836.75C1566.39 1831.43 1570.79 1827.31 1575.8 1827.6C1697.67 1834.03 1765 1763.15 1765.66 1762.43C1769.21 1758.61 1775.04 1758.52 1778.7 1762.21C1782.35 1765.92 1782.46 1772.01 1778.93 1775.84C1776.12 1778.88 1711.59 1847.32 1591.79 1847.32Z" fill="#371A45"/>
<path d="M1716.85 1419.65C1716.85 1419.65 1735.29 1433.61 1737.07 1456.42C1739.13 1482.79 1723.8 1494.26 1723.8 1494.26C1723.8 1494.26 1656.27 1534.6 1544.26 1515.3C1544.26 1515.3 1509.72 1473.69 1545.03 1447.59C1545.03 1447.59 1662.85 1458.81 1716.85 1419.65Z" fill="white"/>
<path d="M1315.01 1578.73L1507.72 1579.87C1530.52 1580.02 1549.31 1560.6 1549.45 1536.71L1550.02 1429.44C1550.14 1408.53 1535.91 1390.88 1517.05 1386.72C1514.38 1386.11 1511.61 1385.82 1508.76 1385.79L1316.08 1384.65C1293.25 1384.5 1274.46 1403.92 1274.35 1427.81L1273.88 1512.77L1273.75 1535.08C1273.61 1558.97 1292.2 1578.59 1315.01 1578.73Z" fill="white"/>
<path d="M1315.01 1578.73L1507.72 1579.87C1530.52 1580.02 1549.31 1560.6 1549.45 1536.71L1550.02 1429.44C1550.14 1408.53 1535.91 1390.88 1517.05 1386.72C1514.38 1386.11 1511.61 1385.82 1508.76 1385.79L1316.08 1384.65C1293.25 1384.5 1274.46 1403.92 1274.35 1427.81L1273.88 1512.77L1273.75 1535.08C1273.61 1558.97 1292.2 1578.59 1315.01 1578.73Z" fill="white"/>
<path d="M1315.01 1578.73L1507.72 1579.87C1530.52 1580.02 1549.31 1560.6 1549.45 1536.71L1550.02 1429.44C1550.14 1408.53 1535.91 1390.88 1517.05 1386.72C1514.38 1386.11 1511.61 1385.82 1508.76 1385.79L1316.08 1384.65C1293.25 1384.5 1274.46 1403.92 1274.35 1427.81L1273.88 1512.77L1273.75 1535.08C1273.61 1558.97 1292.2 1578.59 1315.01 1578.73Z" fill="white"/>
<path d="M1314.73 1578.74L1507.43 1579.89C1530.24 1580.03 1549.03 1560.62 1549.16 1536.73L1549.74 1429.46C1549.85 1408.54 1535.63 1390.89 1516.76 1386.74C1505.78 1394.27 1498.8 1399.1 1498.8 1399.1C1488.95 1485.14 1465.28 1527.94 1363.05 1529.08C1318.93 1529.56 1291.11 1522.36 1273.59 1512.78L1273.46 1535.09C1273.33 1558.98 1291.92 1578.6 1314.73 1578.74Z" fill="#D8D8D8"/>
<path d="M1504.39 1589.51C1504.28 1589.51 1504.18 1589.51 1504.08 1589.51H1504.07L1318.54 1588.4C1288.6 1588.22 1264.38 1562.6 1264.55 1531.28L1265.1 1431.48C1265.18 1416.37 1270.92 1402.15 1281.26 1391.46C1291.52 1380.85 1305.05 1375.01 1319.38 1375.01C1319.49 1375.01 1319.59 1375.01 1319.7 1375.01L1505.24 1376.12C1519.69 1376.21 1533.28 1382.21 1543.5 1393.02C1553.72 1403.84 1559.31 1418.12 1559.22 1433.24L1558.68 1533.04C1558.51 1564.25 1534.18 1589.51 1504.39 1589.51ZM1504.18 1570.22C1504.25 1570.22 1504.32 1570.22 1504.38 1570.22C1524.06 1570.22 1540.12 1553.54 1540.24 1532.93L1540.78 1433.13C1540.83 1423.16 1537.14 1413.74 1530.39 1406.59C1523.63 1399.44 1514.66 1395.47 1505.14 1395.41L1319.6 1394.31C1319.53 1394.31 1319.46 1394.31 1319.39 1394.31C1309.94 1394.31 1301.01 1398.16 1294.22 1405.18C1287.39 1412.25 1283.6 1421.63 1283.54 1431.59L1283 1531.4C1282.88 1552.07 1298.88 1568.99 1318.64 1569.11L1504.18 1570.22Z" fill="#371A45"/>
<path d="M1383.17 1578.39L1383.56 1579.16L1507.73 1579.89C1524.44 1579.97 1538.99 1569.59 1545.61 1554.59C1548.03 1549.16 1549.4 1543.11 1549.42 1536.72L1549.7 1489.07L1549.79 1473.34L1549.92 1445.73L1550.02 1429.46C1550.14 1405.56 1531.58 1385.94 1508.77 1385.8L1467.13 1385.57C1486.3 1389.46 1500.81 1407.25 1500.71 1428.36L1500.55 1460.2L1500.39 1486.31L1500.14 1535.68C1499.99 1559.52 1481.21 1578.95 1458.41 1578.83L1383.17 1578.39Z" fill="white"/>
<path d="M1363.5 1578.26L1363.89 1579.03L1507.73 1579.89C1524.44 1579.97 1538.98 1569.59 1545.61 1554.59C1548.03 1549.16 1549.4 1543.12 1549.42 1536.72L1549.7 1489.07L1549.79 1473.34L1549.92 1445.73C1541.58 1444.47 1530.5 1445.61 1524.4 1458.48C1515.95 1476.32 1507.14 1470.31 1500.55 1460.2L1500.39 1486.31L1500.14 1535.68C1499.99 1559.52 1481.21 1578.95 1458.41 1578.83L1363.5 1578.26Z" fill="#D8D8D8"/>
<path d="M1507.98 1589.53C1507.88 1589.53 1507.77 1589.53 1507.66 1589.53L1333.23 1588.49C1333.23 1588.49 1333.23 1588.49 1333.23 1588.49L1324.04 1588.44L1324 1578.85C1323.99 1571.85 1328.43 1569.93 1333.22 1569.4V1569.2L1336.21 1569.22C1337.02 1569.2 1337.83 1569.2 1338.59 1569.2L1458.41 1569.17C1467.14 1569.18 1475.14 1565.75 1481.29 1559.39C1487.44 1553.02 1490.86 1544.58 1490.9 1535.61L1491.49 1428.32C1491.57 1412.13 1480.59 1398.12 1465.37 1395.01L1467.18 1375.9L1508.81 1376.14C1536.79 1376.32 1559.41 1400.26 1559.23 1429.5L1558.65 1536.78C1558.58 1550.9 1553.22 1564.18 1543.56 1574.18C1533.98 1584.09 1521.35 1589.53 1507.98 1589.53ZM1496.89 1570.17L1507.77 1570.24C1507.84 1570.24 1507.91 1570.24 1507.97 1570.24C1516.47 1570.24 1524.49 1566.77 1530.59 1560.46C1536.75 1554.09 1540.16 1545.64 1540.21 1536.68V1536.67L1540.79 1429.39C1540.9 1410.78 1526.51 1395.54 1508.7 1395.43L1499.08 1395.37C1505.97 1404.54 1510 1416.08 1509.93 1428.43L1509.35 1535.71C1509.28 1548.49 1504.89 1560.58 1496.89 1570.17Z" fill="#371A45"/>
<path d="M1424.43 1482.43C1424.43 1486.4 1429.77 1518.43 1429.77 1518.43C1429.77 1518.43 1439.46 1518.42 1451.37 1518.42C1466.25 1518.42 1478.31 1502.31 1478.31 1482.43C1478.31 1462.55 1466.25 1446.44 1451.37 1446.44C1441.33 1446.44 1429.76 1446.44 1429.76 1446.44C1429.76 1446.44 1424.43 1475.97 1424.43 1482.43Z" fill="#22A7F0"/>
<path d="M1424.43 1482.43C1424.43 1486.4 1429.77 1518.43 1429.77 1518.43C1429.77 1518.43 1439.46 1518.42 1451.37 1518.42C1466.25 1518.42 1478.31 1502.31 1478.31 1482.43C1478.31 1462.55 1466.25 1446.44 1451.37 1446.44C1441.33 1446.44 1429.76 1446.44 1429.76 1446.44C1429.76 1446.44 1424.43 1475.97 1424.43 1482.43Z" fill="#1C7AEA"/>
<path d="M1451.37 1525.66H1436.37C1429.15 1525.66 1423.04 1520.26 1421.83 1512.83C1417.52 1486.26 1417.52 1483.48 1417.52 1482.43C1417.52 1478.56 1418.95 1468.28 1421.78 1451.89C1423.04 1444.55 1429.14 1439.21 1436.29 1439.21L1451.37 1439.21C1470.04 1439.21 1485.23 1458.6 1485.23 1482.43C1485.23 1506.26 1470.04 1525.66 1451.37 1525.66ZM1431.35 1482.4C1431.4 1483.95 1432.51 1492.19 1435.47 1510.41C1435.54 1510.86 1435.92 1511.19 1436.37 1511.19H1451.37C1462.41 1511.19 1471.4 1498.29 1471.39 1482.43C1471.39 1466.58 1462.41 1453.67 1451.37 1453.67L1436.29 1453.68C1435.84 1453.68 1435.47 1454.01 1435.39 1454.46C1432.43 1471.65 1431.36 1480.15 1431.35 1482.4Z" fill="#371A45"/>
<path d="M1429.77 1518.42C1444.64 1518.42 1456.7 1502.31 1456.7 1482.43C1456.7 1462.56 1444.64 1446.44 1429.77 1446.44C1414.89 1446.44 1402.83 1462.56 1402.83 1482.43C1402.83 1502.31 1414.89 1518.42 1429.77 1518.42Z" fill="#22A7F0"/>
<g opacity="0.7">
<path d="M1456.7 1482.44C1456.7 1483.94 1456.63 1485.4 1456.5 1486.83C1453.64 1471.06 1443.02 1459.34 1430.33 1459.33C1416.55 1459.33 1405.22 1473.12 1403.59 1490.93C1403.08 1488.21 1402.83 1485.36 1402.83 1482.43C1402.83 1462.55 1414.88 1446.45 1429.76 1446.44C1444.65 1446.43 1456.7 1462.56 1456.7 1482.44Z" fill="white"/>
</g>
<path d="M1456.7 1482.44C1456.7 1502.3 1444.65 1518.42 1429.76 1518.43C1414.88 1518.42 1402.83 1502.31 1402.83 1482.43C1402.82 1479.3 1403.12 1476.24 1403.69 1473.36C1407.62 1486.76 1417.38 1496.24 1428.79 1496.23C1441.31 1496.25 1451.86 1484.83 1454.87 1469.34C1456.04 1473.4 1456.69 1477.81 1456.7 1482.44Z" fill="#1C7AEA"/>
<path d="M1429.77 1525.66C1411.1 1525.66 1395.91 1506.27 1395.91 1482.44C1395.91 1458.6 1411.1 1439.21 1429.76 1439.21C1429.76 1439.21 1429.77 1439.21 1429.77 1439.21C1439.13 1439.21 1447.83 1443.94 1454.26 1452.52C1460.3 1460.59 1463.62 1471.21 1463.62 1482.43C1463.62 1493.65 1460.3 1504.28 1454.26 1512.34C1447.84 1520.93 1439.14 1525.66 1429.77 1525.66ZM1429.77 1453.68C1429.77 1453.68 1429.77 1453.68 1429.76 1453.68C1418.72 1453.68 1409.74 1466.58 1409.74 1482.44C1409.74 1498.29 1418.73 1511.19 1429.77 1511.19C1434.79 1511.19 1439.62 1508.43 1443.37 1503.42C1447.51 1497.89 1449.79 1490.44 1449.79 1482.43C1449.79 1474.43 1447.51 1466.98 1443.37 1461.44C1439.62 1456.44 1434.79 1453.68 1429.77 1453.68Z" fill="#371A45"/>
<path d="M1374.92 1585.55C1371.15 1585.55 1368.07 1582.39 1368 1578.44L1367.07 1524.17C1366.9 1513.99 1361.89 1504.65 1353.69 1499.19C1341.26 1490.91 1333.86 1476.76 1333.89 1461.35L1334.05 1384.84C1334.06 1380.85 1337.16 1377.62 1340.97 1377.62C1340.97 1377.62 1340.98 1377.62 1340.98 1377.62C1344.81 1377.63 1347.89 1380.88 1347.88 1384.87L1347.72 1461.38C1347.7 1471.81 1352.71 1481.38 1361.11 1486.98C1373.25 1495.06 1380.65 1508.87 1380.91 1523.91L1381.84 1578.18C1381.9 1582.18 1378.86 1585.47 1375.04 1585.55C1375 1585.55 1374.96 1585.55 1374.92 1585.55Z" fill="#371A45"/>
<path d="M1716.85 1419.65C1716.85 1419.65 1735.29 1433.61 1737.07 1456.42C1739.13 1482.79 1723.8 1494.26 1723.8 1494.26C1723.8 1494.26 1656.27 1534.6 1544.26 1515.3C1544.26 1515.3 1509.72 1473.69 1545.03 1447.59C1545.03 1447.59 1662.85 1458.81 1716.85 1419.65Z" fill="white"/>
<path d="M1737.07 1456.44C1739.12 1482.78 1723.8 1494.25 1723.8 1494.25C1723.8 1494.25 1656.29 1534.6 1544.25 1515.29C1544.25 1515.29 1532.9 1501.57 1529.88 1484.99C1530.44 1485.79 1530.8 1486.2 1530.8 1486.2C1612.68 1500.32 1670.78 1482.56 1696.11 1471.98C1713.71 1464.63 1724.92 1447.08 1723.67 1428.13C1723.65 1427.87 1723.64 1427.61 1723.61 1427.35C1723.59 1426.91 1723.56 1426.47 1723.46 1426.05C1728.93 1432.28 1736.01 1442.77 1737.07 1456.44Z" fill="#D8D8D8"/>
<path d="M1604.35 1530.22C1585.66 1530.22 1565.08 1528.66 1542.77 1524.82L1539.48 1524.25L1537.3 1521.62C1536.48 1520.64 1517.29 1497.18 1520.23 1471.75C1521.7 1458.95 1528.26 1448.17 1539.71 1439.71L1542.48 1437.66L1545.87 1437.98C1547.01 1438.08 1660.99 1448.42 1711.6 1411.72L1716.97 1407.83L1722.26 1411.83C1723.15 1412.51 1744.16 1428.7 1746.26 1455.64C1748.72 1487.1 1729.96 1501.51 1729.16 1502.11L1728.37 1502.64C1726.06 1504.02 1681.11 1530.22 1604.35 1530.22ZM1549.3 1506.37C1649.25 1522.59 1712.38 1489.66 1718.72 1486.17C1720.46 1484.6 1729.32 1475.7 1727.88 1457.2C1726.98 1445.66 1720.45 1436.67 1715.9 1431.72C1662.99 1464.35 1567.88 1459.04 1547.81 1457.5C1542.33 1462.26 1539.29 1467.69 1538.54 1474C1537 1487.07 1545.37 1500.77 1549.3 1506.37Z" fill="#371A45"/>
<path d="M1461.69 2004.82C1431.95 2002.58 1401.7 2003.78 1372.06 2006.8C1359.91 2007.74 1358.03 1989.3 1370.15 1987.58C1401.29 1987.54 1432.21 1989.7 1462.89 1995.26C1468.58 1996.39 1467.48 2005.28 1461.69 2004.82Z" fill="#371A45"/>
<path d="M1747.59 1971.74C1710.79 1985.55 1665.45 1991.05 1632.05 1965.47C1627.17 1961.66 1622.83 1957.14 1618.84 1952.31C1615.51 1948.27 1615.94 1942.17 1619.8 1938.69C1623.9 1934.94 1630.3 1935.8 1633.41 1940.47C1658.4 1976.14 1707.75 1973.37 1744.43 1962.67C1750.12 1960.74 1753.18 1969.35 1747.59 1971.74Z" fill="#371A45"/>
<path d="M1327.07 931.988C1327.07 931.988 1325.55 864.133 1331.58 808.075C1337.6 752.017 1267.36 772.951 1277.22 846.741C1286.39 915.43 1302.5 946.223 1302.5 946.223" fill="white"/>
<path d="M1302.5 955.864C1299.24 955.864 1296.09 954.056 1294.41 950.855C1293.72 949.535 1277.39 917.71 1268.08 848.076C1262.89 809.23 1277.84 783.907 1293.56 773.161C1305.04 765.315 1317.65 764.347 1327.32 770.574C1333.46 774.525 1343.36 784.791 1340.74 809.153C1334.85 863.927 1336.27 931.091 1336.29 931.763C1336.4 937.09 1332.37 941.507 1327.28 941.632C1322.23 941.765 1317.97 937.54 1317.85 932.215C1317.78 929.418 1316.39 863.059 1322.41 806.999C1323.47 797.083 1321.7 789.608 1317.65 787.003C1314.28 784.833 1308.91 785.715 1303.65 789.312C1293.17 796.478 1282.35 815.467 1286.35 845.407C1295.12 911.053 1310.45 941.319 1310.6 941.616C1313.02 946.296 1311.37 952.149 1306.9 954.688C1305.5 955.484 1303.99 955.861 1302.5 955.864Z" fill="#371A45"/>
<path d="M1160.6 526.713L1154.04 529.378L1319.24 975.307L1325.8 972.642L1160.6 526.713Z" fill="black"/>
<path d="M1249.24 514.145L1428.08 1010L1421.48 1012.59L1242.64 516.743L1249.24 514.145Z" fill="black"/>
<path fill-rule="evenodd" clip-rule="evenodd" d="M1133.61 511.109L1158.52 506.319L1125.97 1119.39H1083.01L1133.61 511.109Z" fill="black"/>
<path fill-rule="evenodd" clip-rule="evenodd" d="M1140.64 517.745L1091.11 1111.69L1118.76 1111.62L1150.33 515.898L1140.64 517.745Z" fill="#FFCF6E"/>
<path fill-rule="evenodd" clip-rule="evenodd" d="M1158.52 506.319L1163.93 508.479L1148.04 1119.67H1121.5L1158.52 506.319Z" fill="black"/>
<path d="M597.931 44.9131L948.179 862.537L1134.57 527.001L1140.66 530.706L950.83 872.46L947.362 878.659L944.562 872.106L591.504 47.9184L597.931 44.9131Z" fill="black"/>
<path fill-rule="evenodd" clip-rule="evenodd" d="M540.543 43.5162L584.597 35.0742L527.031 1118.85H451.11L540.543 43.5162Z" fill="black"/>
<path fill-rule="evenodd" clip-rule="evenodd" d="M552.98 55.2462L465.42 1105.26L514.307 1105.14L570.079 52.0215L552.98 55.2462Z" fill="#FFCF6E"/>
<path fill-rule="evenodd" clip-rule="evenodd" d="M584.587 35.0742L599.404 43.7146L576.545 1122L519.089 1119.38L584.587 35.0742Z" fill="black"/>
<path d="M781.908 18.1777L1076.72 858.623L1214.3 516.91L1220.78 519.78L1079.72 870.112L1076.26 878.721L1073.18 869.945L775.291 20.7238L781.908 18.1777Z" fill="black"/>
<path fill-rule="evenodd" clip-rule="evenodd" d="M276.6 583.821L0.179688 604.504L1351.63 1037.6L1471.07 1037.49L276.6 583.821Z" fill="black"/>
<path fill-rule="evenodd" clip-rule="evenodd" d="M276.6 520.792L0 546.379V604.921L276.6 583.821V520.792Z" fill="black"/>
<path fill-rule="evenodd" clip-rule="evenodd" d="M276.6 583.821L1471.07 1037.49V1026.78L276.6 520.792V583.821Z" fill="black"/>
<path fill-rule="evenodd" clip-rule="evenodd" d="M285.068 577.611L1281.71 956.13L285.068 533.961V577.611Z" fill="#FF9100"/>
<path fill-rule="evenodd" clip-rule="evenodd" d="M1238.2 486.503L1211.62 491.574L1246.49 1119.39H1294.86L1238.2 486.503Z" fill="black"/>
<path fill-rule="evenodd" clip-rule="evenodd" d="M1230.6 496.207L1220.28 498.148L1254.39 1111.23L1285.48 1111.17L1230.6 496.207Z" fill="#FFCF6E"/>
<path fill-rule="evenodd" clip-rule="evenodd" d="M1238.15 486.513L1246.14 491.616L1313.64 1120.07L1293.66 1119.35L1238.15 486.513Z" fill="black"/>
<path fill-rule="evenodd" clip-rule="evenodd" d="M768.096 0L721.123 8.97417L782.784 1118.85H868.261L768.096 0Z" fill="black"/>
<path fill-rule="evenodd" clip-rule="evenodd" d="M754.675 17.1973L736.439 20.6306L796.765 1104.45L851.701 1104.31L754.675 17.1973Z" fill="#FFCF6E"/>
<path fill-rule="evenodd" clip-rule="evenodd" d="M768.037 0.0507812L782.067 6.86484L901.454 1120.07L866.149 1118.79L768.037 0.0507812Z" fill="black"/>
<path d="M731.587 20.0457L307.201 537.801L288.667 531.165L726.315 13.1689L731.587 20.0457Z" fill="black"/>
<path d="M547.47 58.8958L45.8081 555.979L24.9023 552.911L542.667 49.4834L547.47 58.8958Z" fill="black"/>
<path d="M1130.28 919.088C1145.56 959.291 1151.7 1000.07 1161.7 1019.54C1200.28 1094.56 1339.25 1225.66 1548.46 1311.64C1559.99 1316.42 1571.75 1321 1583.69 1325.46L1700.88 1354.45C1687.83 1282.48 1710.29 1158.09 1654.75 1121.16C1598.49 1083.76 1450.17 1045.41 1361.27 954.081C1349.03 941.516 1337.92 927.938 1328.32 913.227C1327.56 901.265 1325.86 889.785 1323.39 878.884C1305.73 800.745 1249.13 752.318 1220.56 762.471C1207.01 767.295 1199.12 783.549 1199.12 783.549C1160.3 791.918 1139.02 815.481 1129.52 842.227C1120.18 868.538 1122.26 897.985 1130.28 919.088Z" fill="white"/>
<path d="M1131.93 941.861C1147.22 982.065 1153.35 1022.85 1163.36 1042.31C1201.93 1117.34 1340.91 1248.44 1550.11 1334.41C1478.71 1292.93 1366.39 1221.59 1333.6 1166.58C1277.6 1072.65 1305.29 1008.93 1362.93 976.855C1350.68 964.29 1339.57 950.712 1329.98 936.001C1329.22 924.039 1327.51 912.559 1325.05 901.658C1319.35 931.394 1304.5 968.245 1266.69 985.706C1162.14 1033.96 1176.75 964.603 1156.86 926.112C1144.55 902.333 1130.53 896.279 1131.17 865C1121.84 891.312 1123.91 920.759 1131.93 941.861Z" fill="#D8D8D8"/>
<path d="M1691.82 1356.24C1679.09 1296.76 1700.51 1164.81 1650.8 1130.02C1629.55 1115.99 1605.57 1106.25 1582.37 1095.86C1510.67 1064.73 1435.95 1032.83 1375.08 980.086C1354.66 962.312 1335.9 941.961 1320.71 918.656C1319.77 917.275 1319.26 915.709 1319.14 914.133C1316.6 876.582 1303.84 839.406 1281.8 809.676C1269.77 793.439 1243.02 766.007 1222.81 772.742C1217.61 774.966 1212.52 780.694 1209.37 785.977C1208.87 786.831 1208.26 787.821 1208.03 788.338C1206.59 791.235 1203.99 793.151 1201.16 793.798C1186.27 797.108 1172.23 803.31 1161.1 813.072C1131.95 838.146 1126.91 884.609 1141.45 919.71C1150.42 943.932 1156.47 970.267 1163.45 994.546C1167.5 1010.42 1175.43 1023.91 1184.53 1037.23C1243.43 1118.68 1324.93 1179.63 1408.58 1230.88C1465.46 1265.12 1525.29 1292.83 1585.23 1320.91C1587.56 1321.99 1588.61 1324.85 1587.58 1327.29C1586.64 1329.5 1584.3 1330.61 1582.14 1329.99C1517.94 1311.64 1457.08 1282.23 1399.23 1248.05C1312.04 1195.63 1206.18 1118.38 1153.9 1026.89C1149.52 1019 1146.41 1009.52 1143.87 1000.89C1136.6 975.632 1131.22 951.44 1122.36 927.323C1096.33 859.939 1126.18 787.256 1197.11 773.282L1190.2 778.806C1191.09 777.053 1191.71 776.012 1192.5 774.708C1222.49 725.126 1272.53 763.052 1297.15 797.241C1321.54 830.488 1335.07 871.303 1337.53 912.576L1335.95 907.785C1349.98 929.306 1367.5 948.392 1386.88 965.26C1456.47 1025.62 1543.27 1056.34 1625.43 1094.3C1637.71 1100.25 1649.49 1106.1 1661.08 1114C1705.91 1146.62 1702.67 1222.68 1704.75 1273.21C1705.45 1299.74 1705.45 1326.85 1709.95 1352.69C1711.76 1365.05 1694.62 1368.94 1691.82 1356.24Z" fill="#371A45"/>
<path d="M1351.33 1215.67C1347.76 1215.67 1344.36 1213.48 1342.85 1209.83C1340.84 1204.93 1343 1199.26 1347.68 1197.16C1437.17 1156.89 1437.74 1021.1 1437.74 1019.74C1437.72 1014.41 1441.83 1010.07 1446.92 1010.05C1446.93 1010.05 1446.95 1010.05 1446.96 1010.05C1452.03 1010.05 1456.15 1014.33 1456.18 1019.65C1456.21 1025.74 1455.74 1169.54 1354.97 1214.88C1353.78 1215.41 1352.55 1215.67 1351.33 1215.67Z" fill="#371A45"/>
<path d="M1328.33 913.22C1328.33 913.22 1328.33 949.309 1304.1 974.789Z" fill="white"/>
<path d="M1337.55 913.219C1335.81 931.73 1329.49 949.698 1319.05 964.722C1315.71 969.713 1311.57 974.075 1307.37 978.191C1305.52 980.01 1302.6 979.91 1300.86 977.968C1299.18 976.099 1299.24 973.231 1300.83 971.388C1313.67 955.377 1319.8 933.935 1319.1 913.22C1318.46 899.206 1338.17 899.173 1337.55 913.219Z" fill="#371A45"/>
</svg>
