<svg xmlns="http://www.w3.org/2000/svg" viewBox="0 0 613.67 890.38"><defs><style>.cls-1{fill:#f2dbd1;}.cls-1,.cls-3,.cls-4,.cls-5,.cls-6,.cls-7,.cls-9{stroke:#000;}.cls-1,.cls-10,.cls-12,.cls-13,.cls-16,.cls-17,.cls-18,.cls-3,.cls-4,.cls-5,.cls-6,.cls-7,.cls-9{stroke-miterlimit:10;}.cls-1,.cls-10,.cls-12,.cls-13{stroke-width:5px;}.cls-10,.cls-16,.cls-2{fill:#fff;}.cls-12,.cls-18,.cls-4{fill:none;}.cls-4,.cls-6,.cls-7{stroke-width:2px;}.cls-5,.cls-8,.cls-9{fill:#513a3a;}.cls-5{stroke-width:3px;}.cls-6{fill:#ff3562;}.cls-7{fill:#897475;}.cls-10,.cls-12,.cls-13,.cls-16,.cls-17,.cls-18{stroke:#381e46;}.cls-11,.cls-13{fill:#c9c1cc;}.cls-14{fill:#381e46;}.cls-15{fill:#988ba0;}.cls-16{stroke-width:6px;}.cls-17{fill:#4a9fed;}.cls-17,.cls-18{stroke-width:9px;}</style></defs><g id="Layer_49" data-name="Layer 49"><path class="cls-1" d="M378,195c7,8,62,21,84,1s-1-44-1-44,1,1-16-13c-17-19-40-3-40-3s-2,3-24,19c-20,20-4,39-4,39l1.5,1.5" transform="translate(-107.5 -53)"/><ellipse class="cls-2" cx="298" cy="108.5" rx="7.5" ry="12.5"/><ellipse class="cls-2" cx="333" cy="109.5" rx="7.5" ry="12.5"/><path d="M407,167h0Z" transform="translate(-107.5 -53)"/><ellipse class="cls-3" cx="298.5" cy="117.5" rx="3.5" ry="5"/><ellipse class="cls-3" cx="332.5" cy="118.5" rx="3.5" ry="5"/><polyline class="cls-4" points="314.5 116 307.63 123.5 314.5 123.5"/><path class="cls-4" d="M412,186s8.61,8,16.3,0" transform="translate(-107.5 -53)"/><path class="cls-3" d="M404.5,136.5s-28-37-50-47-51-17-51-17H297l1.47-7s37,2,56,13,56.26,54.57,60.63,52.78" transform="translate(-107.5 -53)"/><path class="cls-3" d="M431.57,129.7S449.5,87.5,459.5,83.5,522.91,69,522.91,69h5.31V75.7S470.5,84.5,467.5,88.5s-27,46.35-27,46.35" transform="translate(-107.5 -53)"/><ellipse class="cls-5" cx="184" cy="18" rx="20" ry="16.5"/><ellipse class="cls-5" cx="433.5" cy="16.5" rx="18.5" ry="14"/><path class="cls-6" d="M380.5,195.5s36,24,81,2c12-6,18.39-4.8,18.39-4.8s18.61,10.8-3.39,23.8-55,23-55,23-4,5-53-15c-25-24,2.52-32.8,4.76-31.9Z" transform="translate(-107.5 -53)"/><path class="cls-6" d="M363.5,219.5s10,10,55,20c57-20,61-22,61-22s25-3-3,20c-30,15-41.7,23.33-57.85,23.67S357.5,240.5,354.5,238.5s-5-20,8-19c5,3,1,1,1,1" transform="translate(-107.5 -53)"/><path class="cls-7" d="M442,240s-.24-.49-.53-1.18c-1-2.45-2.48-7.5,4.53-2.82,3,6,0,19,0,19l15,10s-2.39,4.57-10.19,1.78S440,259.61,440,259.61,443,242,442,241s-.24-1.49-.24-1.49" transform="translate(-107.5 -53)"/><path class="cls-7" d="M370,231s12,3.26,0,5.13A14.92,14.92,0,0,0,357,249s-5,12-24,10c-8-3-2-6,3-6s11,0,15-9,13.78-13,16.39-13h3.55" transform="translate(-107.5 -53)"/><path class="cls-7" d="M398,235s-6,0-9,13-11,17-11,17a14.52,14.52,0,0,1-13,1c-7-3,1-9,8-7s10-7.94,10-7.94S384,233,390,232A72,72,0,0,1,398,235Z" transform="translate(-107.5 -53)"/><path class="cls-7" d="M464,238s-6.78-5.83,4.61-3.92C474,242,475,240,478,258s12,16.19,12,16.19,5.58,9.61-5.21,6.71A23.47,23.47,0,0,1,470,269V244l-5-5Z" transform="translate(-107.5 -53)"/><path class="cls-5" d="M396.79,203.2S387.91,201.29,384,228c-6.91-1.91-5.92-1.91-5.92-1.91s2.71-26.42,11.71-26.09c9.13.67,7,3.74,7,3.74" transform="translate(-107.5 -53)"/><path class="cls-5" d="M442.91,206.28l9.57-4.3s10.48,17.83,0,24.75c-3.48,1.34-5.65,2.27-5.65,2.27s6.17-18.7-3.33-21.46" transform="translate(-107.5 -53)"/><circle class="cls-8" cx="297" cy="168.5" r="5"/><ellipse class="cls-8" cx="323.5" cy="168.5" rx="4.5" ry="5"/><line class="cls-9" x1="312.65" y1="154.66" x2="308.93" y2="206.22"/></g><g id="body"><g id="Layer_16" data-name="Layer 16"><g id="Layer_28" data-name="Layer 28"><g id="Layer_40" data-name="Layer 40"><path class="cls-10" d="M495,464s16.3.43,35.65,20.22S560,528,615,514c38-23,38-37,38-37s-7-16-2-21a16.94,16.94,0,0,1,11-5s0-18,17-16,38,20,38,20,7.61,22.69-9.7,17.85C706,484,708,498,672,538s-45,49-78,51-84-19-84-19,4,19,6,56,11.62,100.59-26,202c-13,60-13,68-13,68s29,0,25,19-15,34-53,21c-32-1-30-3-30-3s-4,9-8-45,0-111.09,0-111.09S409,747,405,744s-10,0-10,0-9,68-9,90-3,88-3,88-27,18-78,15c-17-7-14-34,4-37s16-2,16-2-5.33-18.22-11.7-45.34c-7.29-31-16-73.75-19.56-114.09C287,663,306,610,306,610s-69,51-101,58a262.75,262.75,0,0,1-41-5s-37-9-43-21c-4-9,0-12.22,0-12.22S115,635,110,614c0-6,3-8,3-8s-3-10,6-22c3-4,5,28,28,22,9-19,14-23,14-23s8-2,6,22c13,6,17,9,17,9s35,6,65-30,60-103,95-104,87-12,87-12" transform="translate(-107.5 -53)"/></g><g id="Layer_39" data-name="Layer 39"><path class="cls-11" d="M502.07,542.83s68.56,44.53,80.25,34.38c8.43,12.3,4.61,11.14,4.61,11.14s-50.11-8.45-79.12-21.86C502.24,548.73,502.07,542.83,502.07,542.83Z" transform="translate(-107.5 -53)"/></g><g id="Layer_27" data-name="Layer 27"><ellipse class="cls-11" cx="47" cy="577.5" rx="11.5" ry="17.5"/></g><g id="Layer_38" data-name="Layer 38"><path class="cls-12" d="M578.5,515.5s-10,41,14,73" transform="translate(-107.5 -53)"/></g><g id="Layer_37" data-name="Layer 37"><path class="cls-12" d="M269.5,634.5a47.82,47.82,0,0,0,.54-11.36c-1.67-24-20.54-40.64-20.54-40.64" transform="translate(-107.5 -53)"/></g><g id="Layer_36" data-name="Layer 36"><path class="cls-12" d="M119.83,637.5s-.33-20,18.67-21c3,5-3,14-3,14s13-2,13,8" transform="translate(-107.5 -53)"/></g><g id="Layer_35" data-name="Layer 35"><path class="cls-12" d="M125.5,613.5s-8.35-12.83-14.5-4.93" transform="translate(-107.5 -53)"/></g><g id="Layer_41" data-name="Layer 41"><path class="cls-11" d="M676.07,478s0-9.94-2.07-9.94c3.1,0,7.32.29,9.86-2.06,3.57,2.06,16,8.69,21.14,8.69-7.23,5.52-15.5,1.1-22.73,2.21" transform="translate(-107.5 -53)"/></g><g id="Layer_34" data-name="Layer 34"><path class="cls-12" d="M658.5,481.5s-10-8-8-25c17-10,34-3,34-3s8.26,14.62-11.37,12.81l-1.63.19" transform="translate(-107.5 -53)"/></g><g id="Layer_33" data-name="Layer 33"><path class="cls-12" d="M661.5,462.5s15.83-1,12.41,19" transform="translate(-107.5 -53)"/></g><g id="Layer_32" data-name="Layer 32"><path class="cls-12" d="M684.54,464.06s16.68,10.43,29.46,8.76" transform="translate(-107.5 -53)"/></g><g id="Layer_31" data-name="Layer 31"><path class="cls-12" d="M449.5,915.43S448.5,899.5,477,896" transform="translate(-107.5 -53)"/></g><g id="Layer_30" data-name="Layer 30"><path class="cls-12" d="M326.5,898.5s20,3,25,10" transform="translate(-107.5 -53)"/></g><g id="Layer_29" data-name="Layer 29"><path class="cls-12" d="M358,726s45.48,39.46,89.48-1.54" transform="translate(-107.5 -53)"/></g></g><g id="Layer_26" data-name="Layer 26"><path class="cls-11" d="M498,544s13,186,8,223c6-33,11.17-62,10.09-85S515,610,509,579,498,544,498,544Z" transform="translate(-107.5 -53)"/></g><path class="cls-13" d="M286.29,599.08" transform="translate(-107.5 -53)"/><path class="cls-11" d="M412,833s-1,63,7,98c12,2,18,2,18,2s-21-49-18-93" transform="translate(-107.5 -53)"/></g></g><g id="Layer_18" data-name="Layer 18"><path class="cls-11" d="M372,856s11,67-10,72c16-3,19-8,19-8l3-76" transform="translate(-107.5 -53)"/></g><g id="Layer_19" data-name="Layer 19"><path class="cls-12" d="M409,825.5s43.54,58,81,4" transform="translate(-107.5 -53)"/><path class="cls-12" d="M314.5,848.5s43,35,70-11" transform="translate(-107.5 -53)"/></g><g id="Layer_17" data-name="Layer 17"><path class="cls-11" d="M271.11,613.5s28.75-16.23,55.05-49.13c-10.76,32.46-23.51,47.37-23.51,47.37L273.2,630.22Z" transform="translate(-107.5 -53)"/></g><g id="Layer_12" data-name="Layer 12"><path class="cls-11" d="M352,485.85s140.39,96.52,145.45-20.42C410.5,489.5,337.92,473,337.92,473L352,485.85" transform="translate(-107.5 -53)"/></g><g id="face"><g id="Layer_2" data-name="Layer 2"><path class="cls-10" d="M421.19,261.53s-83.07-2.32-114,72.56,14.32,134.06,62.69,158.25,125.6.48,150.55-58.42,1.48-128-39.95-156.16c0,0-23.7-19.1-55.34-16.22s-14.45-.37-14.45-.37" transform="translate(-107.5 -53)"/><path class="cls-11" d="M381.57,495.42S489,480.37,496,463.43c-10.8,12.07-58.08,44.72-106.53,33.4" transform="translate(-107.5 -53)"/><path class="cls-12" d="M319.83,307.88S434.68,264,516.1,320.61" transform="translate(-107.5 -53)"/><path class="cls-12" d="M343.27,285.47s84.55-33,159.46,13.84" transform="translate(-107.5 -53)"/><path class="cls-10" d="M525.89,343.52s-.68-17.09,17.26,0c11.9,25.05,6.33,59.7-4.45,59.82s-13-9.71-13-9.71" transform="translate(-107.5 -53)"/><path class="cls-10" d="M302.07,339.53S284.7,330,277.59,358s.49,57.84,19.2,39" transform="translate(-107.5 -53)"/><path class="cls-12" d="M316.23,450.13l3,5.55c74.73,84.84,171.81,37.12,201-21.76-82.31,80.68-204.54,14-204.54,14C276.58,369.57,308,326.84,308,326.84s124.42-57.45,214.92,10" transform="translate(-107.5 -53)"/><path class="cls-14" d="M312.6,326.24s123.24-54.46,209.47,8.92c19.31,47.18.12,98.91.12,98.91s-73.24,77-204.47,14c-26.82-53.51-24.22-76.61-11.08-113.42" transform="translate(-107.5 -53)"/><path class="cls-15" d="M328.52,403.32s22.47-63.9,70-71.82c6-1,16-11-4-10s-62,19-68,24-5.35,47.68-1.17,57.34S328.52,403.32,328.52,403.32Z" transform="translate(-107.5 -53)"/><g id="Layer_9" data-name="Layer 9"><ellipse class="cls-15" cx="486.36" cy="356.05" rx="21.06" ry="10.5" transform="translate(-84.01 689.14) rotate(-76.04)"/></g><g id="Layer_13" data-name="Layer 13"><ellipse class="cls-15" cx="359" cy="345.5" rx="7.5" ry="10.5"/></g></g><line class="cls-13" x1="198.5" y1="557" x2="219" y2="509.48"/></g><g id="belt"><g id="Layer_25_copy" data-name="Layer 25 copy"><path class="cls-11" d="M444.15,691.85,397,693.94c-24.44,1.09-45.35-13.84-46.7-33.34l-.32-4.5c-1.35-19.5,17.35-36.19,41.79-37.27l47.14-2.1c24.43-1.08,45.34,13.85,46.7,33.35l.31,4.5C487.29,674.08,468.58,690.77,444.15,691.85Z" transform="translate(-107.5 -53)"/></g><g id="Layer_20" data-name="Layer 20"><path class="cls-11" d="M422.54,636.9l-115,10.36s-28,20.74,12,20.74,169.66-9.07,169.66-9.07,60.4-19.44,0-25.92c-56.85,3.89-59.52,3.89-59.52,3.89" transform="translate(-107.5 -53)"/></g><g id="Layer_20_copy" data-name="Layer 20 copy"><path class="cls-10" d="M426.5,632.5,297,640.5s-31.53,16,13.47,16,191-7,191-7,68-15,0-20c-64,3-67,3-67,3" transform="translate(-107.5 -53)"/></g><g id="Layer_22" data-name="Layer 22"><g id="Layer_25" data-name="Layer 25"><path class="cls-16" d="M435.15,679.85,388,681.94c-24.44,1.09-45.35-13.84-46.7-33.34l-.32-4.5c-1.35-19.5,17.35-36.19,41.79-37.27l47.14-2.1c24.43-1.08,45.34,13.85,46.7,33.35l.31,4.5C478.29,662.08,459.58,678.77,435.15,679.85Z" transform="translate(-107.5 -53)"/></g><g id="Layer_21" data-name="Layer 21"><path class="cls-11" d="M443,609s6,65-55,70l50-2s29.65-3.09,35.83-28C474.17,633,472,624,458,615,449,610,443,609,443,609Z" transform="translate(-107.5 -53)"/></g><g id="Layer_24" data-name="Layer 24"><ellipse class="cls-17" cx="262.29" cy="584.08" rx="11.78" ry="10.97"/></g><g id="Layer_23" data-name="Layer 23"><polyline class="cls-18" points="323.93 554 323.93 582.51 301.94 597.87 301.94 626.98"/></g></g><line class="cls-10" x1="403.24" y1="520" x2="393.5" y2="490"/></g><g id="Layer_44" data-name="Layer 44"><path class="cls-11" d="M267.72,603.78S311.6,576.46,323,565.61c-5.82,19.32-19.84,45-19.84,45L271.88,631s-.57-19.58-2.73-23.49L267,603.6" transform="translate(-107.5 -53)"/></g></svg>