<?xml version="1.0" encoding="UTF-8" standalone="no"?>
<svg
   version="1.1"
   width="1190.5511pt"
   height="841.88977pt"
   id="svg40"
   viewBox="0 0 1190.5511 841.88977"
   sodipodi:docname="Atlanta Logo Final 18v.cdr"
   xmlns:inkscape="http://www.inkscape.org/namespaces/inkscape"
   xmlns:sodipodi="http://sodipodi.sourceforge.net/DTD/sodipodi-0.dtd"
   xmlns="http://www.w3.org/2000/svg"
   xmlns:svg="http://www.w3.org/2000/svg">
  <defs
     id="defs44" />
  <sodipodi:namedview
     id="namedview42"
     pagecolor="#ffffff"
     bordercolor="#000000"
     borderopacity="0.25"
     inkscape:showpageshadow="2"
     inkscape:pageopacity="0.0"
     inkscape:pagecheckerboard="0"
     inkscape:deskcolor="#d1d1d1"
     inkscape:document-units="pt" />
  <g
     id="Layer1000">
    <g
       id="Layer1001">
      <path
         d="m 532.6848,140.0831 c 44.3808,0 80.3602,35.821 80.3602,80.0063 0,0.4422 -0.009,0.8861 -0.0146,1.3301 h 0.0146 v 78.8407 h -38.2862 v -12.0001 c -12.2366,7.5037 -26.646,11.8356 -42.074,11.8356 -44.3807,0 -80.3602,-35.8228 -80.3602,-80.0063 0,-44.1853 35.9795,-80.0063 80.3602,-80.0063 z m 0,37.7559 c -23.4382,0 -42.4373,18.9154 -42.4373,42.2504 0,23.335 18.9991,42.2504 42.4373,42.2504 21.5499,0 39.347,-15.9939 42.074,-36.7108 0,-25.1694 -12.3357,-47.79 -42.074,-47.79 z"
         style="fill:#005da9;fill-rule:evenodd"
         id="path2" />
      <path
         d="m 657.5377,140.0831 c 44.382,0 80.3601,35.8196 80.3601,80.0062 0,5.642 -0.5897,11.1469 -1.706,16.4591 h -87.128 v -32.9166 h 47.571 c -6.4446,-15.1584 -21.5234,-25.793 -39.0971,-25.793 -23.4376,0 -42.4373,18.9161 -42.4373,42.2505 0,23.3344 18.9997,42.2505 42.4373,42.2505 12.1206,0 23.0539,-5.0594 30.7868,-13.1724 h 44.0982 c -11.6861,29.809 -40.807,50.9281 -74.885,50.9281 -44.382,0 -80.36,-35.8191 -80.36,-80.0062 0,-44.1866 35.978,-80.0062 80.36,-80.0062 z"
         style="fill:#42b065;fill-rule:evenodd"
         id="path4" />
      <path
         d="m 595.1117,169.7149 c 11.213,13.754 17.9342,31.2811 17.9342,50.3752 0,0.4428 -0.01,0.8855 -0.0156,1.3302 h 0.0156 v 65.2983 c -21.6205,-14.3386 -35.8684,-38.8271 -35.8684,-66.6285 0,-19.0941 6.7212,-36.6212 17.9342,-50.3752 z"
         style="fill:#008bd0;fill-rule:evenodd"
         id="path6" />
    </g>
    <defs
       id="defs16">
      <linearGradient
         id="grad1">
        <stop
           offset="0.0000%"
           stop-color="#004582"
           stop-opacity="1.0000"
           id="stop9" />
        <stop
           offset="46.0000%"
           stop-color="#007caf"
           stop-opacity="1.0000"
           id="stop11" />
        <stop
           offset="100.0000%"
           stop-color="#42b065"
           stop-opacity="1.0000"
           id="stop13" />
      </linearGradient>
    </defs>
    <path
       d="m 339.486,398.4877 h 29.5219 l 5.5685,17.1457 c 0.5535,1.7043 1.1456,2.9455 1.8781,3.6749 0.7314,0.7294 1.8343,1.0956 3.3013,1.0956 9.1508,0 14.274,-0.2913 15.4092,-0.7741 1.2808,-0.5452 1.9415,-1.5034 1.9415,-2.9643 0,-1.3754 -0.359,-2.8602 -0.9063,-4.5124 L 372.5049,340.734 c -1.5919,-4.8007 -3.1526,-8.0583 -4.7913,-9.7335 -1.6387,-1.6741 -4.8808,-2.5137 -9.7106,-2.5137 h -5.0514 c -3.6219,0 -6.5174,0.539 -8.6743,1.6117 -2.1558,1.0727 -3.6926,2.4076 -4.5978,3.9964 -0.9052,1.5877 -1.9404,4.014 -3.0423,7.2832 l -23.9544,71.033 c -0.6409,1.9041 -1.0363,3.3513 -1.0363,4.3824 0,1.5472 0.6971,2.4774 2.0715,2.8363 1.902,0.4974 7.0783,0.7741 15.5382,0.7741 1.3817,0 2.3972,-0.3454 3.0433,-1.0321 0.6462,-0.6846 1.1799,-1.9478 1.748,-3.7384 z m 5.1794,-17.4037 c 5.6112,-19.0789 8.9344,-30.6384 9.9707,-34.6784 0.7772,3.2659 4.0578,14.8254 9.8406,34.6784 z m 95.5836,34.8074 v -68.8408 h 20.9756 c 2.6771,0 4.0141,-1.0748 4.0141,-3.2233 v -10.9571 c 0,-2.5782 -1.337,-3.8684 -4.0141,-3.8684 h -63.189 c -2.675,0 -4.0141,1.2902 -4.0141,3.8684 v 10.9571 c 0,2.1485 1.3391,3.2233 4.0141,3.2233 h 20.8476 v 68.8408 c 0,2.8363 1.2954,4.2545 3.8851,4.2545 h 13.4666 c 1.1216,0 2.0705,-0.3652 2.8488,-1.0956 0.7762,-0.7304 1.1653,-1.7834 1.1653,-3.1589 z m 89.8622,4.1255 c 2.676,0 4.0141,-1.1175 4.0141,-3.3514 v -10.829 c 0,-2.5783 -1.3381,-3.8674 -4.0141,-3.8674 h -29.394 c -3.1078,0 -4.6602,-1.5045 -4.6602,-4.5125 v -64.4584 c 0,-2.7499 -1.2527,-4.1244 -3.756,-4.1244 h -13.5957 c -2.5907,0 -3.885,1.4182 -3.885,4.2534 v 73.0953 c 0,9.1966 4.7913,13.7944 14.3739,13.7944 z m 39.2533,-21.5292 h 29.5219 l 5.5685,17.1457 c 0.5546,1.7064 1.1445,2.9445 1.8781,3.6749 0.7325,0.7304 1.8333,1.0956 3.3013,1.0956 9.1498,0 14.273,-0.2903 15.4092,-0.7741 1.2808,-0.5462 1.9415,-1.5034 1.9415,-2.9643 0,-1.3754 -0.359,-2.8602 -0.9062,-4.5124 L 602.3834,340.734 c -1.5919,-4.8007 -3.1515,-8.0573 -4.7913,-9.7335 -1.6398,-1.6751 -4.8787,-2.5137 -9.7106,-2.5137 h -5.0514 c -3.6239,0 -6.5164,0.5379 -8.6743,1.6117 -2.1579,1.0737 -3.6915,2.4065 -4.5978,3.9964 -0.9062,1.5887 -1.9394,4.012 -3.0423,7.2832 l -23.9544,71.033 c -0.642,1.9061 -1.0373,3.3513 -1.0373,4.3824 0,1.5472 0.696,2.4763 2.0725,2.8363 1.903,0.4984 7.0783,0.7741 15.5382,0.7741 1.3818,0 2.3962,-0.3444 3.0434,-1.0321 0.6471,-0.6857 1.1798,-1.9478 1.7479,-3.7384 z m 5.1794,-17.4037 c 5.6112,-19.0789 8.9344,-30.6384 9.9697,-34.6784 0.7782,3.2659 4.0588,14.8254 9.8416,34.6784 z m 83.1294,34.8074 c 0,-34.0333 -0.1301,-55.0037 -0.3892,-62.9112 3.7124,9.4546 11.8852,28.2942 24.3436,56.5946 1.9561,4.4438 3.908,7.4986 6.0222,9.0884 2.1142,1.5888 5.3292,2.3848 9.646,2.3848 h 4.6613 c 3.7123,0 6.6475,-0.8168 8.8054,-2.4493 2.1568,-1.6325 3.2368,-4.7268 3.2368,-9.2819 v -75.5445 c 0,-3.266 -1.339,-4.8985 -4.014,-4.8985 h -11.9122 c -2.9341,0 -4.4032,1.7615 -4.4032,5.2856 0,31.6267 0.1727,51.5661 0.5191,59.8169 -3.7123,-10.1413 -11.599,-28.6688 -23.6974,-55.5635 -1.6262,-3.6146 -3.2806,-6.1658 -4.9203,-7.6703 -1.6387,-1.5024 -4.4459,-2.2557 -8.4163,-2.2557 h -5.8265 c -5.092,0 -8.742,1.1601 -10.9415,3.4803 -2.2005,2.3202 -3.3024,5.8453 -3.3024,10.5711 v 73.3532 c 0,2.8353 1.2517,4.2545 3.7561,4.2545 h 12.6883 c 1.2101,0 2.2027,-0.3871 2.9789,-1.1601 0.7761,-0.7731 1.1653,-1.8052 1.1653,-3.0944 z m 113.9477,0 v -68.8408 h 20.9766 c 2.6761,0 4.0141,-1.0748 4.0141,-3.2233 v -10.9571 c 0,-2.5782 -1.3391,-3.8684 -4.0141,-3.8684 h -63.189 c -2.675,0 -4.0141,1.2912 -4.0141,3.8684 v 10.9571 c 0,2.1475 1.338,3.2233 4.0141,3.2233 h 20.8476 v 68.8408 c 0,2.8353 1.2944,4.2545 3.8841,4.2545 h 13.4666 c 1.1226,0 2.0715,-0.3652 2.8488,-1.0956 0.7772,-0.7304 1.1653,-1.7834 1.1653,-3.1589 z m 49.3343,-17.4037 h 29.5219 l 5.5685,17.1457 c 0.5546,1.7064 1.1435,2.9445 1.878,3.6749 0.7325,0.7304 1.8333,1.0956 3.3014,1.0956 9.1498,0 14.273,-0.2903 15.4092,-0.7741 1.2808,-0.5462 1.9415,-1.5034 1.9415,-2.9643 0,-1.3754 -0.359,-2.8602 -0.9063,-4.5124 L 853.9742,340.734 c -1.5919,-4.8007 -3.1516,-8.0573 -4.7913,-9.7335 -1.6398,-1.6751 -4.8787,-2.5137 -9.7117,-2.5137 h -5.0503 c -3.6239,0 -6.5164,0.5379 -8.6754,1.6117 -2.1568,1.0737 -3.6905,2.4065 -4.5967,3.9964 -0.9062,1.5887 -1.9394,4.012 -3.0423,7.2832 l -23.9544,71.033 c -0.642,1.9061 -1.0374,3.3513 -1.0374,4.3824 0,1.5472 0.6961,2.4763 2.0726,2.8363 1.903,0.4984 7.0782,0.7741 15.5382,0.7741 1.3817,0 2.3962,-0.3444 3.0433,-1.0321 0.6462,-0.6857 1.1799,-1.9478 1.748,-3.7384 z m 5.1794,-17.4037 c 5.6112,-19.0789 8.9344,-30.6384 9.9696,-34.6784 0.7783,3.2659 4.0578,14.8254 9.8417,34.6784 z"
       style="fill:url(#grad1)"
       id="path18" />
  </g>
  <g
     id="Layer1002">
    <g
       id="Layer1003">
      <path
         d="m 227.5612,574.6983 c 44.4719,0 80.5253,35.8947 80.5253,80.1708 0,0.4431 -0.009,0.888 -0.0147,1.3328 h 0.0147 v 79.0028 H 269.7216 V 723.18 c -12.2618,7.5191 -26.7008,11.8599 -42.1604,11.8599 -44.4719,0 -80.5253,-35.8965 -80.5253,-80.1708 0,-44.2761 36.0534,-80.1708 80.5253,-80.1708 z m 0,37.8335 c -23.4864,0 -42.5245,18.9543 -42.5245,42.3373 0,23.383 19.0381,42.3373 42.5245,42.3373 21.5942,0 39.4278,-16.0268 42.1604,-36.7863 0,-25.2211 -12.3611,-47.8883 -42.1604,-47.8883 z"
         style="fill:#005da9;fill-rule:evenodd"
         id="path21" />
      <path
         d="m 352.6706,574.6984 c 44.4732,0 80.5251,35.8932 80.5251,80.1706 0,5.6536 -0.5909,11.1698 -1.7094,16.493 h -87.307 v -32.9843 h 47.6687 c -6.4578,-15.1896 -21.5676,-25.846 -39.1774,-25.846 -23.4858,0 -42.5245,18.955 -42.5245,42.3373 0,23.3824 19.0387,42.3373 42.5245,42.3373 12.1455,0 23.1012,-5.0698 30.8501,-13.1994 h 44.1887 c -11.7101,29.8703 -40.8908,51.0327 -75.0388,51.0327 -44.4732,0 -80.5252,-35.8927 -80.5252,-80.1706 0,-44.2774 36.052,-80.1706 80.5252,-80.1706 z"
         style="fill:#42b065;fill-rule:evenodd"
         id="path23" />
      <path
         d="m 290.1163,604.3911 c 11.2361,13.7823 17.9711,31.3454 17.9711,50.4787 0,0.4437 -0.01,0.8873 -0.0157,1.3329 h 0.0157 v 65.4325 c -21.665,-14.368 -35.9421,-38.9069 -35.9421,-66.7654 0,-19.1333 6.735,-36.6964 17.971,-50.4787 z"
         style="fill:#008bd0;fill-rule:evenodd"
         id="path25" />
    </g>
    <defs
       id="defs35">
      <linearGradient
         id="grad2">
        <stop
           offset="0.0000%"
           stop-color="#004582"
           stop-opacity="1.0000"
           id="stop28" />
        <stop
           offset="46.0000%"
           stop-color="#007caf"
           stop-opacity="1.0000"
           id="stop30" />
        <stop
           offset="100.0000%"
           stop-color="#42b065"
           stop-opacity="1.0000"
           id="stop32" />
      </linearGradient>
    </defs>
    <path
       d="m 489.9624,678.6738 h 29.5219 l 5.5685,17.1457 c 0.5536,1.7043 1.1456,2.9456 1.8781,3.6749 0.7314,0.7294 1.8343,1.0956 3.3013,1.0956 9.1509,0 14.2741,-0.2913 15.4092,-0.7741 1.2808,-0.5452 1.9415,-1.5034 1.9415,-2.9642 0,-1.3755 -0.359,-2.8603 -0.9062,-4.5125 l -23.6954,-71.4191 c -1.5919,-4.8007 -3.1526,-8.0583 -4.7913,-9.7335 -1.6387,-1.6741 -4.8808,-2.5137 -9.7106,-2.5137 h -5.0514 c -3.6218,0 -6.5174,0.5389 -8.6743,1.6116 -2.1558,1.0728 -3.6926,2.4077 -4.5978,3.9964 -0.9051,1.5878 -1.9404,4.0141 -3.0422,7.2832 l -23.9545,71.0331 c -0.6409,1.9041 -1.0363,3.3513 -1.0363,4.3824 0,1.5472 0.6971,2.4774 2.0716,2.8363 1.9019,0.4974 7.0782,0.7741 15.5382,0.7741 1.3817,0 2.3972,-0.3454 3.0433,-1.0321 0.6461,-0.6846 1.1799,-1.9477 1.748,-3.7384 z m 5.1794,-17.4037 c 5.6112,-19.0789 8.9344,-30.6384 9.9707,-34.6785 0.7772,3.266 4.0578,14.8255 9.8406,34.6785 z m 95.5836,34.8075 v -68.8409 h 20.9756 c 2.6771,0 4.0141,-1.0748 4.0141,-3.2233 v -10.9571 c 0,-2.5782 -1.337,-3.8684 -4.0141,-3.8684 h -63.189 c -2.675,0 -4.0141,1.2902 -4.0141,3.8684 v 10.9571 c 0,2.1485 1.3391,3.2233 4.0141,3.2233 h 20.8476 v 68.8409 c 0,2.8363 1.2954,4.2544 3.8851,4.2544 h 13.4666 c 1.1216,0 2.0705,-0.3652 2.8488,-1.0956 0.7762,-0.7304 1.1653,-1.7834 1.1653,-3.1588 z m 89.8621,4.1254 c 2.6761,0 4.0141,-1.1175 4.0141,-3.3513 v -10.8291 c 0,-2.5783 -1.338,-3.8674 -4.0141,-3.8674 h -29.3939 c -3.1078,0 -4.6602,-1.5045 -4.6602,-4.5125 v -64.4584 c 0,-2.7499 -1.2527,-4.1244 -3.7561,-4.1244 h -13.5956 c -2.5907,0 -3.8851,1.4182 -3.8851,4.2534 v 73.0953 c 0,9.1966 4.7913,13.7944 14.3739,13.7944 z m 39.2533,-21.5292 h 29.5219 l 5.5685,17.1457 c 0.5546,1.7064 1.1445,2.9445 1.8781,3.6749 0.7324,0.7304 1.8333,1.0956 3.3013,1.0956 9.1498,0 14.273,-0.2903 15.4092,-0.7741 1.2808,-0.5462 1.9415,-1.5034 1.9415,-2.9642 0,-1.3755 -0.359,-2.8603 -0.9063,-4.5125 l -23.6953,-71.4191 c -1.5919,-4.8007 -3.1515,-8.0573 -4.7913,-9.7335 -1.6398,-1.6751 -4.8787,-2.5137 -9.7106,-2.5137 h -5.0514 c -3.6239,0 -6.5164,0.5379 -8.6743,1.6116 -2.1579,1.0738 -3.6915,2.4066 -4.5978,3.9964 -0.9062,1.5888 -1.9394,4.012 -3.0423,7.2832 l -23.9544,71.0331 c -0.6419,1.9062 -1.0373,3.3513 -1.0373,4.3824 0,1.5472 0.6961,2.4763 2.0726,2.8363 1.903,0.4984 7.0782,0.7741 15.5382,0.7741 1.3817,0 2.3961,-0.3444 3.0433,-1.0321 0.6472,-0.6857 1.1799,-1.9477 1.748,-3.7384 z m 5.1794,-17.4037 c 5.6112,-19.0789 8.9344,-30.6384 9.9697,-34.6785 0.7782,3.266 4.0588,14.8255 9.8416,34.6785 z m 83.1293,34.8075 c 0,-34.0334 -0.13,-55.0038 -0.3891,-62.9113 3.7124,9.4546 11.8851,28.2942 24.3436,56.5946 1.956,4.4438 3.9079,7.4986 6.0221,9.0884 2.1142,1.5888 5.3292,2.3848 9.6461,2.3848 h 4.6612 c 3.7124,0 6.6475,-0.8168 8.8054,-2.4493 2.1569,-1.6324 3.2369,-4.7268 3.2369,-9.2819 v -75.5445 c 0,-3.266 -1.3391,-4.8985 -4.0141,-4.8985 h -11.9122 c -2.9341,0 -4.4032,1.7615 -4.4032,5.2855 0,31.6268 0.1727,51.5662 0.5192,59.817 -3.7124,-10.1413 -11.599,-28.6688 -23.6974,-55.5636 -1.6263,-3.6145 -3.2806,-6.1657 -4.9204,-7.6702 -1.6387,-1.5024 -4.4458,-2.2557 -8.4162,-2.2557 h -5.8266 c -5.092,0 -8.7419,1.1601 -10.9414,3.4803 -2.2006,2.3202 -3.3024,5.8453 -3.3024,10.5711 v 73.3533 c 0,2.8352 1.2517,4.2544 3.756,4.2544 h 12.6884 c 1.2101,0 2.2026,-0.3871 2.9788,-1.1601 0.7762,-0.7731 1.1653,-1.8052 1.1653,-3.0943 z m 113.9477,0 v -68.8409 h 20.9766 c 2.6761,0 4.0141,-1.0748 4.0141,-3.2233 v -10.9571 c 0,-2.5782 -1.3391,-3.8684 -4.0141,-3.8684 h -63.189 c -2.675,0 -4.014,1.2912 -4.014,3.8684 v 10.9571 c 0,2.1475 1.338,3.2233 4.014,3.2233 h 20.8477 v 68.8409 c 0,2.8352 1.2943,4.2544 3.884,4.2544 h 13.4666 c 1.1227,0 2.0715,-0.3652 2.8488,-1.0956 0.7772,-0.7304 1.1653,-1.7834 1.1653,-3.1588 z m 49.3343,-17.4038 h 29.5219 l 5.5685,17.1457 c 0.5545,1.7064 1.1434,2.9445 1.878,3.6749 0.7325,0.7304 1.8333,1.0956 3.3014,1.0956 9.1497,0 14.2729,-0.2903 15.4091,-0.7741 1.2808,-0.5462 1.9415,-1.5034 1.9415,-2.9642 0,-1.3755 -0.3589,-2.8603 -0.9062,-4.5125 l -23.6954,-71.4191 c -1.5919,-4.8007 -3.1515,-8.0573 -4.7913,-9.7335 -1.6397,-1.6751 -4.8787,-2.5137 -9.7116,-2.5137 h -5.0504 c -3.6239,0 -6.5163,0.5379 -8.6753,1.6116 -2.1569,1.0738 -3.6905,2.4066 -4.5967,3.9964 -0.9063,1.5888 -1.9394,4.012 -3.0423,7.2832 l -23.9544,71.0331 c -0.642,1.9062 -1.0374,3.3513 -1.0374,4.3824 0,1.5472 0.6961,2.4763 2.0726,2.8363 1.903,0.4984 7.0782,0.7741 15.5382,0.7741 1.3817,0 2.3962,-0.3444 3.0433,-1.0321 0.6461,-0.6857 1.1799,-1.9477 1.748,-3.7384 z m 5.1793,-17.4037 c 5.6112,-19.0789 8.9344,-30.6384 9.9697,-34.6785 0.7783,3.266 4.0578,14.8255 9.8417,34.6785 z"
       style="fill:url(#grad2)"
       id="path37" />
  </g>
</svg>
