<?xml version="1.0" standalone="no"?>
<!DOCTYPE svg PUBLIC "-//W3C//DTD SVG 20010904//EN"
 "http://www.w3.org/TR/2001/REC-SVG-20010904/DTD/svg10.dtd">
<svg version="1.0" xmlns="http://www.w3.org/2000/svg"
 width="1079.000000pt" height="607.000000pt" viewBox="0 0 1079.000000 607.000000"
 preserveAspectRatio="xMidYMid meet">

<g transform="translate(0.000000,607.000000) scale(0.100000,-0.100000)"
fill="#000000" stroke="none">
<path d="M5115 5574 c-852 -71 -1595 -435 -1982 -971 -74 -103 -172 -294 -208
-408 -80 -247 -76 -542 9 -800 103 -310 356 -623 691 -854 956 -660 2493 -674
3475 -33 411 268 673 605 777 1000 34 129 43 361 19 499 -52 299 -194 567
-424 800 -390 396 -961 656 -1642 748 -111 16 -601 28 -715 19z m685 -159
c1090 -127 1919 -751 1989 -1498 34 -355 -97 -693 -383 -994 -376 -395 -996
-666 -1666 -727 -344 -31 -511 -30 -810 10 -530 69 -1003 256 -1365 539 -98
77 -265 247 -330 335 -376 516 -327 1123 131 1610 373 397 1014 673 1719 739
139 13 552 5 715 -14z"/>
<path d="M5125 5304 c-22 -2 -97 -11 -166 -19 -599 -73 -1153 -326 -1488 -681
-109 -115 -172 -206 -237 -339 -200 -414 -125 -847 213 -1232 132 -150 368
-321 598 -433 296 -145 606 -234 965 -276 197 -24 577 -24 752 -1 290 39 552
100 738 172 1034 402 1432 1212 952 1935 -67 101 -243 282 -360 369 -335 252
-769 418 -1272 487 -110 15 -599 28 -695 18z m-282 -859 c96 -20 178 -67 246
-141 l58 -63 44 45 c133 136 316 197 485 161 217 -46 400 -227 459 -452 12
-48 15 -130 15 -447 l0 -388 -225 0 -225 0 0 354 c0 196 -4 377 -10 407 -12
62 -37 92 -96 115 -98 37 -180 -10 -203 -115 -7 -33 -11 -184 -11 -406 l0
-355 -230 0 -230 0 0 383 c0 378 -1 382 -23 422 -28 49 -80 85 -122 85 -41 0
-93 -35 -119 -80 -20 -33 -21 -53 -24 -422 l-3 -388 -224 0 -225 0 -6 26 c-11
44 4 804 16 859 47 198 212 353 425 399 90 19 144 19 228 1z m-873 -640 l0
-645 -210 0 -210 0 0 645 0 645 210 0 210 0 0 -645z m3025 615 c80 -25 197
-90 220 -122 12 -18 15 -54 15 -175 0 -84 -2 -153 -5 -153 -3 0 -24 12 -48 27
-72 45 -158 80 -245 99 -71 15 -92 16 -140 6 -59 -12 -112 -52 -112 -84 0 -28
36 -44 177 -78 211 -51 312 -111 365 -219 19 -39 23 -62 23 -146 0 -89 -3
-106 -28 -156 -36 -74 -110 -142 -200 -184 -107 -51 -176 -66 -302 -66 -134
-1 -223 18 -325 69 l-75 37 -3 168 c-1 92 1 167 6 167 4 0 45 -16 90 -35 112
-47 187 -65 269 -65 82 0 113 17 113 60 0 38 -10 42 -153 74 -197 43 -265 84
-319 194 -31 62 -33 74 -33 167 0 96 2 104 37 176 47 94 113 158 211 204 144
68 314 81 462 35z"/>
<path d="M1762 1673 l3 -38 3625 0 3625 0 3 38 3 37 -3631 0 -3631 0 3 -37z"/>
<path d="M4360 1308 c0 -153 -1 -161 -16 -139 -20 28 -88 61 -129 61 -120 0
-212 -135 -187 -277 13 -81 42 -126 96 -152 71 -35 148 -21 209 36 l27 27 0
-37 c0 -36 1 -37 35 -37 l35 0 0 340 0 340 -35 0 -35 0 0 -162z m-50 -146 c71
-71 64 -253 -12 -317 -54 -45 -141 -26 -171 37 -40 88 -24 230 32 280 45 40
111 40 151 0z"/>
<path d="M4929 1447 c-38 -25 -72 -85 -95 -169 -14 -54 -18 -58 -45 -58 -19 0
-29 -5 -29 -15 0 -10 11 -15 35 -15 l35 0 0 -200 0 -200 35 0 35 0 0 200 0
200 46 0 c38 0 45 3 42 18 -2 13 -15 18 -49 20 l-47 3 -6 49 c-12 90 29 143
98 126 19 -5 25 -1 30 17 3 12 6 28 6 35 0 20 -54 14 -91 -11z"/>
<path d="M6259 1420 c-60 -11 -111 -43 -132 -83 -25 -49 -25 -126 -1 -167 21
-36 36 -45 146 -94 109 -49 138 -99 104 -181 -39 -91 -176 -99 -237 -13 -25
34 -37 27 -41 -21 -3 -29 2 -37 29 -53 47 -28 130 -34 190 -14 109 36 174 166
128 255 -16 32 -70 81 -88 81 -27 0 -135 60 -155 85 -28 36 -29 94 -2 128 46
59 136 56 184 -6 l25 -31 10 28 c6 15 11 34 11 42 0 29 -104 56 -171 44z"/>
<path d="M1750 1390 c0 -11 -1 -23 -2 -27 -2 -4 41 -6 95 -4 l97 3 0 -286 0
-286 40 0 40 0 2 287 3 287 93 -3 92 -3 0 26 0 26 -230 0 c-223 0 -230 -1
-230 -20z"/>
<path d="M3383 1324 c-30 -13 -33 -18 -33 -59 0 -41 -2 -45 -25 -45 -16 0 -25
-6 -25 -15 0 -9 9 -15 25 -15 l25 0 0 -142 c1 -163 10 -226 36 -245 24 -17
136 -14 142 5 2 8 -8 12 -32 12 -60 0 -66 20 -66 207 l0 163 45 0 c33 0 45 4
45 15 0 11 -12 15 -45 15 l-45 0 0 60 c0 33 -3 60 -7 59 -5 0 -23 -7 -40 -15z"/>
<path d="M2355 1219 c-11 -6 -32 -25 -47 -42 l-28 -31 0 37 c0 37 0 37 -40 37
l-40 0 2 -212 3 -213 33 0 32 0 4 140 c5 194 27 239 111 223 26 -5 35 7 35 48
0 18 -5 24 -22 24 -13 0 -32 -5 -43 -11z"/>
<path d="M3079 1221 c-86 -28 -123 -105 -85 -179 16 -31 34 -42 119 -72 31
-12 62 -30 67 -40 18 -35 11 -67 -21 -94 -45 -38 -83 -33 -141 21 l-26 25 -7
-31 c-9 -40 -2 -48 48 -62 89 -24 183 15 214 88 29 70 -9 126 -111 163 -32 12
-67 31 -77 41 -39 39 -12 103 47 115 25 5 38 0 67 -25 l35 -32 7 32 c4 17 3
35 -2 40 -13 13 -103 20 -134 10z"/>
<path d="M3715 1221 c-93 -23 -145 -103 -145 -220 1 -174 171 -273 324 -188
26 14 42 31 44 44 3 22 2 22 -55 -8 -46 -24 -66 -30 -97 -26 -72 10 -136 80
-136 148 l0 39 155 0 155 0 0 38 c0 45 -29 109 -63 140 -39 36 -113 49 -182
33z m114 -35 c31 -16 48 -48 57 -106 l7 -40 -122 0 c-137 0 -137 0 -102 76 34
75 96 102 160 70z"/>
<path d="M5149 1202 c-176 -92 -150 -367 39 -412 109 -26 209 17 256 111 100
201 -99 404 -295 301z m192 -41 c106 -128 25 -373 -115 -347 -52 10 -84 41
-101 98 -27 93 -12 192 38 246 31 34 55 42 107 38 35 -3 50 -11 71 -35z"/>
<path d="M5725 1218 c-11 -6 -35 -24 -52 -41 l-33 -31 0 37 c0 36 -1 37 -35
37 l-35 0 0 -215 0 -215 34 0 34 0 4 148 c3 114 8 154 21 179 18 34 50 49 91
41 20 -4 25 0 30 25 3 16 6 33 6 38 0 12 -41 11 -65 -3z"/>
<path d="M7199 1217 c-63 -18 -104 -50 -128 -100 -69 -142 -2 -295 143 -328
89 -20 206 16 206 62 0 24 -12 24 -35 -1 -45 -49 -147 -46 -200 8 -80 79 -75
244 11 311 54 42 133 34 182 -19 l21 -23 11 27 c15 40 13 43 -22 55 -52 18
-139 22 -189 8z"/>
<path d="M7643 1216 c-99 -32 -143 -97 -143 -210 0 -77 21 -128 70 -170 41
-34 131 -60 182 -52 59 10 118 43 118 66 0 25 -2 25 -46 -5 -49 -33 -117 -34
-165 -2 -119 78 -100 305 28 348 47 15 96 4 132 -30 29 -27 32 -28 41 -11 16
30 12 46 -17 60 -41 19 -151 22 -200 6z"/>
<path d="M8067 1216 c-73 -27 -116 -90 -124 -185 -7 -72 10 -132 49 -177 45
-51 83 -68 158 -68 77 0 153 34 158 71 3 22 2 22 -55 -8 -46 -24 -66 -30 -97
-26 -71 10 -125 67 -133 141 l-6 46 160 0 160 0 -8 49 c-10 68 -43 128 -81
147 -43 22 -134 28 -181 10z m132 -31 c33 -16 61 -69 61 -114 l0 -31 -121 0
-121 0 7 33 c23 104 97 152 174 112z"/>
<path d="M8484 1211 c-56 -26 -74 -54 -74 -116 0 -65 19 -84 115 -119 97 -35
119 -73 75 -129 -38 -48 -93 -45 -151 10 l-27 24 -11 -32 c-6 -17 -11 -33 -11
-34 0 -11 76 -30 120 -30 173 0 222 196 62 249 -82 28 -112 51 -112 88 0 39 7
51 37 67 35 18 60 13 97 -19 l34 -31 7 32 c9 41 -1 49 -66 55 -40 4 -65 0 -95
-15z"/>
<path d="M8871 1220 c-79 -19 -111 -57 -111 -130 0 -55 36 -92 113 -114 32 -9
67 -26 77 -36 53 -53 -11 -144 -87 -125 -16 3 -42 20 -59 37 l-32 30 -7 -33
c-9 -40 8 -55 70 -64 58 -9 123 11 162 50 27 27 33 40 33 78 0 60 -26 91 -101
118 -83 30 -109 53 -109 93 0 70 89 97 137 42 27 -32 30 -31 39 11 5 25 2 32
-12 36 -43 12 -81 15 -113 7z"/>
<path d="M2492 1058 c5 -221 26 -263 132 -275 48 -6 132 25 142 51 10 26 24
18 24 -14 0 -28 3 -30 35 -30 l35 0 0 215 0 215 -35 0 -35 0 0 -119 c0 -212
-24 -271 -111 -271 -91 0 -109 42 -109 245 l0 145 -41 0 -41 0 4 -162z"/>
<path d="M6560 1077 c0 -161 14 -228 56 -268 22 -21 35 -24 94 -24 62 0 72 3
109 33 l41 33 0 -31 c0 -28 3 -30 35 -30 l35 0 0 215 0 215 -35 0 -35 0 0
-119 c0 -211 -24 -271 -107 -271 -98 0 -113 33 -113 240 l0 150 -40 0 -40 0 0
-143z"/>
<path d="M1762 513 l3 -38 3625 0 3625 0 3 38 3 37 -3631 0 -3631 0 3 -37z"/>
</g>
</svg>
