<?xml version="1.0" standalone="no"?>
<!DOCTYPE svg PUBLIC "-//W3C//DTD SVG 20010904//EN"
 "http://www.w3.org/TR/2001/REC-SVG-20010904/DTD/svg10.dtd">
<svg version="1.0" xmlns="http://www.w3.org/2000/svg"
 width="473.000000pt" height="191.000000pt" viewBox="0 0 473.000000 191.000000"
 preserveAspectRatio="xMidYMid meet">

<g transform="translate(0.000000,191.000000) scale(0.100000,-0.100000)"
fill="#000000" stroke="none">
<path d="M0 955 l0 -955 2365 0 2365 0 0 955 0 955 -2365 0 -2365 0 0 -955z
m3714 624 c77 -48 133 -98 183 -164 186 -246 201 -547 41 -802 -46 -73 -152
-175 -230 -221 -168 -100 -403 -123 -582 -58 -102 37 -174 84 -263 174 l-83
82 -60 0 -60 0 0 233 c0 222 -1 235 -22 277 -33 62 -68 85 -133 85 -60 0 -95
-20 -133 -75 -21 -32 -22 -40 -22 -276 l0 -244 -94 0 -94 0 -4 243 -3 243 -27
41 c-59 90 -166 96 -243 14 l-30 -32 -3 -255 -3 -254 -100 0 -101 0 4 258 c5
296 13 330 95 422 67 74 128 103 233 108 98 5 177 -19 235 -69 l34 -30 45 35
c66 50 131 69 225 65 66 -3 89 -10 149 -40 l70 -36 41 63 c54 82 164 183 250
228 38 20 73 36 79 36 12 0 65 -144 54 -148 -4 -1 -36 -19 -71 -40 -81 -48
-161 -133 -203 -219 -33 -67 -33 -69 -36 -232 l-3 -164 36 -74 c84 -169 250
-278 445 -290 151 -10 281 39 391 147 167 163 208 414 104 621 -47 92 -149
189 -242 231 -24 10 -43 24 -43 31 0 7 9 37 20 67 12 30 23 61 25 68 6 15 53
-3 129 -49z m-2404 -235 c82 -39 151 -108 193 -193 30 -61 32 -73 32 -166 0
-91 -3 -106 -31 -165 -39 -84 -111 -155 -194 -194 -52 -24 -81 -31 -150 -34
-84 -4 -99 -1 -202 43 -17 7 -18 -5 -18 -169 l0 -176 -95 0 -96 0 3 398 3 397
27 58 c33 69 64 109 124 155 112 88 277 106 404 46z m2212 4 c59 -27 158 -111
158 -133 0 -7 -32 -38 -72 -68 l-72 -56 -41 38 c-94 86 -231 71 -302 -33 -24
-35 -28 -51 -28 -112 0 -82 23 -125 88 -167 80 -52 169 -43 241 23 l42 39 78
-61 78 -60 -39 -40 c-158 -162 -403 -172 -563 -22 -93 87 -142 228 -122 350
25 152 114 255 272 316 70 27 208 20 282 -14z"/>
<path d="M1088 1181 c-67 -22 -128 -95 -142 -170 -8 -44 9 -108 41 -150 30
-38 113 -81 161 -81 40 0 99 24 131 53 32 30 71 114 71 155 0 40 -24 99 -53
130 -48 52 -149 82 -209 63z"/>
</g>
</svg>
