<?xml version="1.0" standalone="no"?>
<!DOCTYPE svg PUBLIC "-//W3C//DTD SVG 20010904//EN"
 "http://www.w3.org/TR/2001/REC-SVG-20010904/DTD/svg10.dtd">
<svg version="1.0" xmlns="http://www.w3.org/2000/svg"
 width="1080.000000pt" height="379.000000pt" viewBox="0 0 1080.000000 379.000000"
 preserveAspectRatio="xMidYMid meet">

<g transform="translate(0.000000,379.000000) scale(0.100000,-0.100000)"
fill="#000000" stroke="none">
<path d="M1200 3755 c-17 -19 -27 -22 -41 -15 -49 27 -119 -8 -119 -59 0 -18
-4 -21 -21 -16 -51 17 -109 -44 -95 -100 5 -20 3 -25 -13 -25 -26 0 -61 -46
-61 -79 0 -15 7 -36 15 -48 13 -18 12 -22 -4 -37 -27 -25 -34 -62 -17 -94 14
-27 13 -28 -20 -50 -19 -12 -48 -41 -64 -64 l-31 -42 53 -24 c66 -29 103 -63
134 -125 l25 -48 -30 15 c-43 23 -149 36 -204 25 -109 -20 -188 -85 -237 -192
-17 -38 -29 -54 -33 -45 -8 23 -43 28 -67 11 -17 -12 -21 -23 -18 -49 3 -27 0
-34 -15 -36 -11 -2 -26 -12 -34 -24 -12 -18 -11 -24 8 -48 16 -20 19 -30 10
-39 -15 -15 -14 -50 1 -65 21 -21 67 -14 95 14 14 14 26 24 27 22 1 -2 7 -15
13 -29 20 -48 78 -83 137 -84 38 0 61 -7 86 -25 37 -27 134 -39 160 -20 13 9
12 12 -5 22 -11 6 -41 31 -66 55 l-47 44 2 78 c1 71 -2 82 -31 129 l-32 51 45
22 c66 31 121 21 179 -34 52 -51 69 -101 69 -212 0 -131 -42 -196 -168 -260
-41 -20 -97 -57 -124 -81 l-51 -44 -16 57 c-35 120 -110 219 -176 229 -47 8
-86 -24 -100 -82 -8 -32 -16 -44 -29 -44 -30 0 -79 -49 -92 -91 -9 -31 -9 -54
1 -102 8 -43 9 -71 2 -88 -11 -30 -1 -88 21 -121 13 -19 10 -25 -39 -74 -66
-68 -128 -192 -147 -294 -8 -41 -17 -151 -21 -245 -3 -93 -9 -180 -12 -192 -4
-18 -1 -23 16 -23 30 0 91 27 117 51 l22 20 7 -67 c31 -290 168 -464 525 -664
270 -151 433 -273 490 -366 12 -18 28 -34 36 -34 48 0 -123 174 -256 261 -47
30 -150 93 -230 139 -80 45 -172 102 -205 126 -110 78 -213 192 -261 287 -86
169 -85 447 3 608 56 103 223 255 271 247 19 -3 16 -9 -28 -80 -74 -121 -95
-198 -94 -343 4 -288 89 -427 397 -649 202 -146 336 -295 417 -465 l34 -71 46
90 c92 177 210 304 422 456 281 203 368 340 384 609 9 149 -25 270 -110 396
-34 50 -35 54 -16 57 49 8 225 -162 277 -268 42 -86 56 -162 55 -295 0 -88 -5
-125 -25 -188 -66 -207 -190 -332 -511 -516 -144 -84 -258 -158 -330 -217 -69
-57 -165 -176 -146 -182 7 -3 24 11 38 29 77 103 211 202 457 339 195 108 287
174 375 267 117 123 170 243 195 436 6 45 8 48 24 33 22 -20 85 -46 110 -46
17 0 20 5 16 28 -3 15 -9 115 -15 222 -7 152 -13 210 -30 265 -29 94 -81 185
-139 243 l-48 48 19 34 c14 26 18 48 14 85 -3 28 -6 55 -6 60 0 6 5 34 11 63
9 40 9 62 0 92 -12 42 -61 90 -92 90 -14 0 -22 11 -30 45 -21 84 -90 107 -158
53 -39 -31 -93 -123 -116 -197 l-18 -60 -45 40 c-26 22 -81 58 -124 81 -96 49
-142 98 -164 174 -19 67 -14 169 12 234 34 84 131 136 208 110 57 -18 62 -32
29 -87 -24 -42 -28 -58 -28 -126 l0 -78 -45 -43 c-25 -23 -54 -48 -65 -54 -17
-10 -18 -13 -5 -22 26 -19 123 -7 160 20 25 18 48 25 86 25 59 1 109 31 134
81 8 16 16 31 17 33 2 2 12 -8 24 -22 15 -20 30 -27 54 -27 45 0 62 22 47 63
-10 25 -9 34 3 47 28 31 13 80 -24 80 -12 0 -16 10 -16 36 0 50 -28 70 -69 49
-16 -9 -30 -14 -31 -13 -1 2 -9 24 -18 49 -26 68 -78 124 -153 160 -55 27 -75
32 -137 31 -40 0 -92 -7 -117 -16 -24 -8 -46 -13 -48 -12 -7 8 37 82 65 108
15 15 52 37 81 50 l53 24 -30 42 c-17 23 -49 53 -71 68 -33 22 -38 29 -30 44
16 30 11 72 -10 95 -20 21 -20 23 -3 53 23 40 10 81 -34 102 -28 13 -31 19
-30 54 2 49 -40 90 -85 84 -22 -4 -28 -1 -28 14 0 48 -73 83 -120 58 -15 -8
-24 -5 -44 15 -34 34 -84 34 -116 0z m-40 -45 c11 -11 20 -26 20 -34 0 -21
-40 -66 -59 -66 -29 0 -61 30 -61 57 0 57 61 82 100 43z m284 -2 c9 -12 16
-30 16 -40 0 -22 -38 -58 -62 -58 -25 0 -58 35 -58 62 0 53 74 79 104 36z
m-226 -77 c10 -6 8 -10 -9 -14 -26 -7 -34 -3 -24 12 7 13 15 14 33 2z m116 -6
c6 -16 -3 -19 -28 -9 -9 3 -13 10 -10 15 8 14 31 11 38 -6z m-214 -41 c0 -2
-9 -8 -20 -14 -17 -9 -20 -8 -20 9 0 14 5 18 20 14 11 -3 20 -7 20 -9z m320
-17 c0 -4 -10 -3 -21 4 -17 9 -19 13 -8 20 13 8 28 -5 29 -24z m-121 -79 c57
-92 68 -131 51 -182 -14 -44 -72 -96 -106 -96 -59 0 -124 73 -124 139 0 45 95
221 119 221 6 0 33 -37 60 -82z m-345 10 c23 -32 20 -54 -11 -77 -57 -46 -125
27 -76 81 23 25 68 23 87 -4z m662 -3 c21 -32 7 -69 -30 -87 -34 -15 -76 12
-76 49 0 60 74 87 106 38z m-606 8 c0 -10 -20 -40 -20 -31 0 3 -3 13 -6 22 -4
11 -1 16 10 16 9 0 16 -3 16 -7z m480 -15 c0 -12 -1 -19 -3 -17 -1 2 -9 12
-16 22 -12 14 -11 17 3 17 10 0 16 -8 16 -22z m-520 -103 c0 -8 -4 -15 -9 -15
-13 0 -22 16 -14 24 11 11 23 6 23 -9z m555 6 c3 -5 1 -12 -5 -16 -5 -3 -10 1
-10 9 0 18 6 21 15 7z m-420 -154 c123 -69 143 -271 35 -344 -76 -52 -167 -8
-228 112 -25 50 -64 86 -122 115 l-44 23 47 43 c59 53 112 72 202 73 55 1 79
-4 110 -22z m536 -9 c24 -14 57 -40 73 -56 l28 -30 -49 -26 c-55 -28 -89 -64
-136 -146 -53 -92 -139 -124 -207 -77 -108 73 -88 273 35 345 35 20 51 22 126
19 70 -2 93 -8 130 -29z m-380 -253 c6 -22 22 -54 35 -72 26 -34 102 -69 134
-60 11 3 20 4 20 2 0 -1 -20 -32 -44 -68 -105 -156 -133 -336 -82 -523 13 -49
28 -100 32 -112 l7 -24 -51 26 c-63 32 -71 32 -132 1 -28 -14 -50 -22 -50 -18
0 5 12 44 26 88 66 204 32 430 -89 587 l-36 47 28 -5 c38 -8 112 26 138 62 26
37 43 88 44 133 2 33 2 33 6 6 2 -16 8 -48 14 -70z m-421 -41 c71 -21 116 -51
177 -118 96 -104 143 -231 143 -383 0 -115 -12 -170 -64 -303 -36 -92 -41
-115 -41 -187 0 -46 -2 -83 -3 -83 -15 0 -61 45 -77 73 l-19 35 -28 -43 c-42
-63 -148 -159 -210 -189 -99 -48 -208 -53 -340 -16 -45 13 -47 22 -12 41 45
23 102 98 157 203 70 135 132 200 247 261 153 81 196 153 188 319 -4 108 -31
173 -91 220 -32 26 -49 31 -105 34 -61 3 -71 1 -115 -28 l-48 -30 27 -33 c55
-65 67 -133 38 -206 -19 -49 -66 -77 -116 -67 -99 18 -135 166 -77 320 56 152
211 227 369 180z m1028 -14 c108 -47 174 -161 175 -305 1 -93 -16 -135 -66
-165 -61 -38 -124 -17 -151 50 -29 74 -14 155 41 212 l25 26 -43 29 c-37 24
-52 28 -114 28 -63 0 -76 -3 -109 -29 -72 -54 -99 -123 -98 -254 0 -141 51
-216 195 -288 102 -52 178 -133 246 -265 41 -77 71 -120 117 -166 l63 -62 -37
-11 c-132 -37 -241 -32 -340 16 -63 31 -174 131 -213 192 l-27 43 -17 -36
c-14 -29 -61 -75 -77 -75 -1 0 -3 37 -3 83 -1 71 -6 94 -37 172 -51 125 -69
204 -71 304 -2 107 14 173 64 276 102 211 297 303 477 225z m-1470 -202 c16
-16 16 -81 0 -76 -6 2 -20 15 -30 29 -29 39 -3 80 30 47z m1736 -5 c7 -18 -20
-63 -42 -71 -13 -4 -17 44 -6 72 8 21 40 20 48 -1z m-1753 -92 c27 -22 24 -28
-17 -37 -35 -7 -70 16 -61 40 9 22 49 20 78 -3z m1806 3 c9 -24 -26 -47 -61
-40 -41 9 -44 15 -17 37 29 23 69 25 78 3z m-1787 -81 c0 -4 -10 -17 -22 -30
-36 -38 -81 -26 -58 17 8 14 21 20 45 20 19 0 35 -3 35 -7z m1754 1 c24 -9 21
-54 -4 -54 -19 0 -60 36 -60 52 0 9 41 11 64 2z m-1752 -303 c25 -16 57 -44
70 -62 34 -46 63 -97 57 -102 -2 -3 -38 2 -79 9 -80 15 -154 10 -207 -12 -18
-7 -35 -10 -37 -6 -11 18 -18 85 -12 116 17 87 117 115 208 57z m1862 1 c32
-35 42 -83 27 -140 -12 -43 -19 -50 -37 -32 -5 5 -35 15 -66 20 -52 10 -135 3
-217 -17 l-24 -6 24 43 c60 107 130 159 215 160 43 0 54 -4 78 -28z m-1764
-259 c0 -3 -16 -34 -35 -69 -39 -69 -109 -137 -161 -156 -54 -19 -52 -21 96
-74 11 -4 2 -17 -33 -46 -120 -102 -217 -283 -217 -404 0 -40 -50 -110 -95
-131 -19 -9 -36 -15 -38 -12 -9 12 14 374 28 437 43 190 172 337 387 437 55
26 68 29 68 18z m1600 -40 c89 -48 203 -136 240 -186 48 -64 88 -157 105 -238
16 -83 34 -429 22 -429 -19 0 -66 31 -89 59 -19 21 -26 45 -31 94 -12 134 -71
249 -184 362 -72 71 -82 85 -63 85 18 0 120 41 120 49 0 4 -15 13 -34 19 -52
19 -129 94 -164 160 -18 33 -32 63 -32 67 0 11 41 -5 110 -42z m-550 -221 c94
-47 106 -229 21 -306 -19 -17 -19 -18 2 -64 19 -42 21 -72 27 -302 4 -174 9
-262 18 -277 14 -26 44 -37 75 -28 l22 7 -22 -23 c-16 -16 -37 -23 -76 -27
-49 -4 -57 -2 -90 28 -60 52 -67 93 -67 387 l0 253 -40 0 -40 0 0 -220 c0
-178 3 -227 16 -260 16 -40 16 -40 -16 -90 -50 -78 -132 -147 -197 -166 -69
-20 -140 -14 -181 14 -98 71 -96 280 4 327 51 24 137 5 173 -39 12 -14 8 -16
-29 -16 -53 0 -100 -42 -100 -90 0 -53 26 -99 65 -116 48 -20 83 -3 110 51 18
37 20 64 23 323 l3 282 -30 0 -31 0 0 -184 0 -184 -37 14 c-50 17 -137 18
-171 0 -41 -21 -71 -58 -91 -112 l-19 -48 -7 32 c-17 81 55 205 143 244 l42
19 0 187 c0 103 -5 207 -11 232 -13 57 -49 104 -107 141 l-46 29 315 0 c279 0
318 -2 349 -18z m-780 -229 c34 -103 99 -186 161 -205 21 -6 39 -14 39 -18 0
-3 -15 -11 -34 -18 -18 -7 -56 -36 -83 -65 -59 -62 -90 -136 -106 -254 -11
-78 -27 -113 -27 -59 0 39 -27 157 -51 222 -25 69 -99 148 -148 159 -42 9 -39
19 8 33 45 14 99 70 135 140 28 55 56 155 56 200 0 72 15 64 26 -15 7 -44 17
-98 24 -120z m680 -678 c0 -8 -7 -15 -15 -15 -16 0 -20 12 -8 23 11 12 23 8
23 -8z m-562 -39 c-4 -25 -43 -34 -51 -12 -4 9 1 22 9 30 20 20 46 9 42 -18z
m531 -42 c-9 -11 -15 -12 -25 -3 -11 9 -12 15 -3 25 9 11 15 12 25 3 11 -9 12
-15 3 -25z m-506 -35 c23 -37 -25 -68 -52 -35 -9 11 -10 20 -1 36 13 24 38 23
53 -1z m472 -24 c0 -22 -31 -33 -47 -17 -17 17 -1 44 24 40 15 -2 23 -10 23
-23z m-67 -51 c4 -25 -20 -47 -42 -38 -16 6 -22 45 -9 58 14 14 48 1 51 -20z
m-338 1 c31 -38 -27 -96 -65 -65 -18 15 -20 51 -3 68 17 17 53 15 68 -3z m270
-40 c18 -22 8 -50 -19 -50 -32 0 -49 28 -32 49 17 20 35 20 51 1z m-180 -20
c15 -18 10 -45 -12 -59 -35 -22 -74 27 -48 59 16 19 44 19 60 0z m94 -1 c9 -8
16 -19 16 -24 0 -9 -28 -40 -36 -40 -17 0 -44 23 -44 38 0 38 37 53 64 26z"/>
<path d="M1215 2835 c-36 -35 -35 -112 1 -149 34 -34 59 -33 95 3 57 58 27
171 -46 171 -14 0 -37 -11 -50 -25z"/>
<path d="M554 2576 c-10 -26 4 -48 28 -44 17 2 23 10 23 28 0 18 -6 26 -23 28
-13 2 -25 -3 -28 -12z"/>
<path d="M1924 2576 c-10 -26 4 -48 28 -44 17 2 23 10 23 28 0 18 -6 26 -23
28 -13 2 -25 -3 -28 -12z"/>
<path d="M1226 1684 c-13 -12 -16 -40 -16 -135 l0 -119 30 0 30 0 0 70 c0 68
1 70 25 70 l25 0 -20 32 c-23 39 -12 58 34 58 48 0 58 -16 34 -56 l-20 -34 26
0 c26 0 26 -1 26 -70 0 -67 1 -70 23 -70 71 0 116 150 65 215 -31 40 -77 55
-167 55 -59 0 -84 -4 -95 -16z"/>
<path d="M735 1381 c-3 -16 -22 -47 -41 -70 l-36 -41 36 -41 c19 -23 38 -54
41 -70 9 -40 17 -36 38 16 11 25 32 56 47 69 l29 23 -35 34 c-19 18 -40 50
-46 71 -13 45 -24 48 -33 9z"/>
<path d="M4550 3570 c-229 -42 -475 -241 -639 -518 -28 -48 -51 -84 -51 -81 0
12 51 151 114 313 37 93 65 171 62 173 -7 7 -440 -27 -531 -42 -448 -73 -693
-266 -785 -618 -13 -48 -21 -90 -18 -93 4 -3 81 2 172 12 123 13 166 21 162
30 -17 43 -28 144 -23 202 19 196 197 353 459 402 65 13 267 15 278 3 4 -4
-21 -82 -56 -172 -219 -565 -414 -1171 -498 -1547 -37 -165 -54 -284 -42 -284
11 0 278 40 302 45 19 4 22 14 28 112 4 60 11 126 15 148 6 35 8 28 15 -55 4
-52 14 -125 22 -162 15 -67 16 -68 47 -67 18 0 66 6 107 13 86 14 84 8 50 126
-40 142 -38 347 6 585 18 100 83 365 94 385 10 17 14 8 104 -240 205 -560 460
-920 761 -1073 97 -49 174 -69 290 -74 260 -12 447 84 545 280 41 82 49 112
28 104 -7 -2 -74 -24 -149 -48 l-136 -43 1 -63 c1 -57 -2 -65 -30 -93 -53 -54
-140 -59 -255 -14 -166 65 -378 286 -543 564 -126 212 -232 444 -296 648 -17
53 -30 99 -30 103 0 4 26 13 58 19 364 75 681 321 748 580 35 138 -7 299 -97
371 -75 59 -191 87 -289 69z m-5 -243 c76 -43 106 -136 87 -265 -17 -103 -54
-175 -131 -253 -112 -113 -295 -186 -521 -208 -52 -5 -97 -7 -99 -6 -8 8 58
169 125 305 147 298 301 447 464 449 19 0 53 -9 75 -22z"/>
<path d="M8659 3383 l21 -28 -90 -777 c-49 -428 -90 -793 -90 -812 0 -55 25
-66 151 -66 l107 0 -9 28 c-8 20 -1 92 23 272 l33 245 94 3 c105 3 135 -8 144
-55 5 -26 -37 -406 -49 -446 -13 -40 10 -47 162 -47 l145 0 -16 30 c-20 39
-19 70 10 305 14 110 25 221 25 247 0 83 -60 128 -173 128 l-47 0 133 163
c156 190 152 184 137 202 -10 12 -43 15 -159 15 l-147 0 4 -33 c3 -31 -8 -47
-115 -175 -65 -78 -119 -138 -121 -133 -2 5 22 211 53 457 68 550 80 498 -114
502 l-132 3 20 -28z"/>
<path d="M6557 3357 c4 -35 -57 -494 -73 -549 -5 -16 -23 -18 -187 -18 -170 0
-185 -2 -232 -24 -61 -29 -93 -62 -139 -146 -61 -114 -106 -312 -122 -551 -12
-179 15 -261 108 -325 40 -28 46 -29 172 -32 91 -2 139 1 156 10 16 9 42 46
73 108 51 103 49 105 31 -36 -10 -79 -1 -84 163 -84 129 0 135 1 121 18 -43
49 -46 20 78 843 l117 779 -23 25 c-22 24 -29 25 -136 25 l-112 0 5 -43z
m-107 -814 c0 -38 -77 -550 -84 -561 -9 -15 -90 -32 -151 -32 -98 0 -165 56
-165 136 0 99 45 316 81 391 34 70 84 90 237 92 l82 1 0 -27z"/>
<path d="M7056 3373 c16 -28 6 -113 -182 -1576 -5 -38 -2 -52 12 -68 15 -17
31 -19 137 -19 107 0 118 2 107 15 -7 9 -13 30 -12 48 2 59 113 760 123 778
16 32 64 49 133 49 55 0 69 -4 95 -26 57 -48 58 -63 7 -432 -25 -183 -46 -348
-46 -366 0 -56 21 -66 147 -66 l111 0 -5 39 c-3 22 20 235 52 483 58 440 58
443 40 481 -10 21 -34 50 -53 65 -34 26 -39 27 -194 30 -187 4 -192 2 -237
-86 -24 -45 -30 -52 -31 -32 0 14 18 172 41 352 23 180 39 334 36 342 -5 14
-29 16 -151 16 l-145 0 15 -27z"/>
<path d="M8106 3023 c-3 -21 -6 -59 -6 -85 0 -62 12 -68 140 -68 l101 0 -5 33
c-15 94 -16 126 -6 132 29 18 0 25 -104 25 l-113 0 -7 -37z"/>
<path d="M10560 3025 c-73 -33 -113 -98 -114 -185 -2 -197 231 -276 324 -110
33 59 35 158 5 209 -48 82 -141 119 -215 86z m139 -42 c46 -35 64 -70 69 -131
8 -106 -53 -182 -147 -182 -168 0 -208 263 -51 329 34 15 98 6 129 -16z"/>
<path d="M10564 2927 c-20 -18 -28 -35 -31 -73 -6 -63 14 -106 57 -124 27 -11
37 -11 65 3 31 15 54 51 41 64 -3 4 -17 -6 -30 -20 -30 -32 -59 -34 -86 -7
-25 25 -27 95 -4 128 18 26 65 30 84 7 14 -17 40 -20 40 -6 0 18 -53 51 -81
51 -15 0 -40 -10 -55 -23z"/>
<path d="M4970 2735 c0 -115 -1 -115 218 -115 162 0 180 -2 196 -19 25 -28 32
-86 12 -115 l-16 -25 -222 -3 c-239 -4 -263 -8 -294 -56 -37 -56 -94 -319 -94
-432 0 -72 20 -150 51 -195 38 -56 69 -65 217 -65 124 0 132 1 159 24 17 14
46 61 68 111 21 47 40 84 42 81 2 -2 -1 -43 -8 -91 -12 -87 -12 -88 10 -107
20 -15 42 -18 156 -18 l133 0 -14 39 c-14 42 -12 63 62 672 15 130 24 241 20
261 -9 48 -41 87 -90 109 -37 17 -70 19 -323 19 l-283 0 0 -75z m384 -507 c-3
-18 -13 -85 -22 -148 l-17 -115 -123 -3 c-120 -3 -123 -2 -148 24 -25 24 -26
31 -22 92 5 73 34 141 70 166 17 12 50 16 145 16 l122 0 -5 -32z"/>
<path d="M8055 2793 c4 -10 12 -30 18 -44 8 -21 -3 -132 -52 -505 -75 -581
-85 -528 97 -532 l121 -3 -14 35 c-14 33 -10 70 45 503 34 257 60 484 58 503
-4 50 -31 60 -167 60 -104 0 -113 -1 -106 -17z"/>
<path d="M9656 2764 c-10 -76 -7 -94 19 -119 24 -25 27 -25 197 -25 95 0 178
-4 184 -8 34 -23 46 -109 18 -136 -13 -13 -46 -16 -210 -16 -211 0 -270 -9
-304 -45 -69 -73 -128 -452 -90 -571 17 -55 57 -104 96 -120 47 -20 282 -19
308 1 10 8 41 56 68 107 l49 93 -8 -65 c-17 -149 -16 -150 165 -150 124 0 134
1 126 18 -19 41 -12 151 34 525 39 311 47 407 40 437 -13 48 -59 97 -106 110
-21 5 -156 10 -308 10 l-271 0 -7 -46z m384 -511 c0 -5 -9 -66 -20 -138 -11
-71 -20 -136 -20 -142 0 -10 -32 -13 -124 -13 -159 0 -171 7 -171 102 1 79 18
129 57 168 l30 30 124 0 c68 0 124 -3 124 -7z"/>
<path d="M6312 1479 c-7 -28 -12 -55 -12 -60 0 -5 30 -9 66 -9 57 0 65 -2 61
-17 -3 -10 -29 -123 -58 -252 -29 -128 -59 -240 -67 -247 -9 -9 -38 -14 -87
-14 -64 0 -76 3 -89 21 -14 21 -15 20 -27 -22 -6 -24 -12 -62 -13 -84 l-1 -40
167 0 c154 0 169 2 187 20 28 29 177 706 161 735 -10 19 -21 20 -144 20 l-133
0 -11 -51z"/>
<path d="M8548 1498 c2 -18 -27 -177 -63 -353 -37 -176 -67 -333 -67 -348 -1
-39 15 -47 93 -47 64 0 66 1 62 23 -3 12 28 184 67 381 57 288 69 361 58 367
-7 5 -45 9 -83 9 l-71 0 4 -32z"/>
<path d="M8818 1498 c2 -18 -26 -177 -62 -353 -36 -176 -66 -334 -66 -351 0
-39 12 -44 95 -44 56 0 63 2 58 18 -2 10 28 182 68 381 59 299 69 365 58 372
-8 5 -46 9 -84 9 l-71 0 4 -32z"/>
<path d="M9827 1383 c-5 -4 -55 -6 -113 -4 -102 2 -106 2 -99 -18 3 -11 -21
-141 -57 -296 -47 -209 -60 -280 -52 -293 8 -13 29 -18 81 -20 l71 -3 0 38 c1
32 70 365 88 426 9 28 68 48 135 46 32 -1 61 0 64 3 3 3 7 32 8 64 l2 59 -60
3 c-34 2 -64 -1 -68 -5z"/>
<path d="M6789 1370 c-137 -24 -181 -87 -213 -303 -20 -133 -20 -220 -2 -256
23 -44 58 -54 202 -59 183 -5 193 1 220 135 l6 31 -43 -15 c-31 -10 -73 -14
-137 -11 -114 4 -127 14 -116 93 3 28 8 53 11 58 2 4 80 7 173 7 l169 0 11 38
c6 20 13 69 17 107 7 90 -11 139 -61 160 -42 18 -176 27 -237 15z m145 -121
c26 -20 31 -44 20 -86 -6 -22 -11 -23 -105 -23 -54 0 -100 4 -103 9 -9 15 38
96 64 108 38 19 94 16 124 -8z"/>
<path d="M7154 1364 c3 -9 6 -143 6 -299 0 -333 -5 -318 97 -313 l65 3 86 190
87 189 5 -182 c4 -148 8 -185 20 -192 8 -5 42 -10 76 -10 l61 0 121 263 c67
144 128 279 137 300 22 53 9 67 -61 67 -44 0 -54 -3 -54 -17 0 -10 -37 -102
-82 -206 l-83 -190 -6 204 c-3 112 -6 205 -7 207 -1 1 -30 2 -65 2 l-63 0 -95
-206 -94 -207 -6 104 c-4 57 -7 147 -8 200 -1 110 0 109 -88 109 -46 0 -54 -3
-49 -16z"/>
<path d="M8110 1367 c-68 -16 -91 -28 -123 -66 -47 -57 -87 -235 -87 -391 0
-140 28 -160 227 -160 110 0 160 9 175 33 8 11 19 49 32 108 l6 27 -38 -14
c-44 -15 -189 -18 -227 -4 -33 13 -39 29 -30 95 l6 55 174 0 173 0 13 53 c16
66 16 185 0 215 -7 13 -28 30 -46 38 -49 20 -189 26 -255 11z m145 -107 c31
-12 42 -39 37 -86 l-4 -34 -105 0 -105 0 6 28 c19 80 95 121 171 92z"/>
<path d="M9225 1370 c-125 -18 -176 -83 -210 -264 -9 -49 -17 -130 -18 -181
-2 -81 1 -97 19 -122 32 -44 81 -55 225 -51 150 4 162 10 180 96 6 31 14 63
17 72 5 13 3 13 -14 -1 -26 -22 -218 -34 -254 -16 -27 14 -36 54 -25 114 l6
33 170 0 169 0 12 28 c6 15 13 70 16 123 4 95 4 97 -24 128 -24 27 -40 33 -94
41 -73 11 -103 11 -175 0z m152 -126 c8 -11 13 -36 11 -59 l-3 -40 -102 -3
c-88 -2 -103 0 -103 13 0 28 38 91 62 103 34 18 118 9 135 -14z"/>
<path d="M10063 1361 c-52 -24 -91 -87 -105 -173 -17 -105 -7 -117 144 -172
26 -10 58 -26 70 -35 22 -18 22 -19 4 -64 -9 -25 -25 -48 -34 -52 -9 -4 -58
-10 -108 -12 -73 -5 -99 -2 -124 11 -19 9 -34 15 -35 14 -1 -2 -7 -25 -14 -51
-18 -75 -15 -77 163 -77 83 0 167 5 188 10 44 13 101 73 119 126 7 22 13 67
13 101 1 55 -2 65 -28 92 -18 19 -54 39 -95 52 -36 12 -76 28 -88 35 -29 18
-29 53 -2 88 20 25 24 26 119 26 108 0 117 4 127 64 l6 36 -139 0 c-115 0
-146 -4 -181 -19z"/>
<path d="M6493 523 l-93 -4 0 -29 0 -30 1995 0 1995 0 0 29 c0 28 -1 28 -77
35 -75 6 -3640 5 -3820 -1z"/>
<path d="M6400 300 c0 -20 7 -20 1995 -20 1988 0 1995 0 1995 20 0 20 -7 20
-1995 20 -1988 0 -1995 0 -1995 -20z"/>
</g>
</svg>
