<?xml version="1.0" encoding="UTF-8"?>
<svg version="1.1" xmlns="http://www.w3.org/2000/svg" width="1080" height="556">
<path d="M0 0 C356.4 0 712.8 0 1080 0 C1080 183.48 1080 366.96 1080 556 C723.6 556 367.2 556 0 556 C0 372.52 0 189.04 0 0 Z " fill="#FDFDFD" transform="translate(0,0)"/>
<path d="M0 0 C192.39 0 384.78 0 583 0 C583 36.96 583 73.92 583 112 C390.61 112 198.22 112 0 112 C0 75.04 0 38.08 0 0 Z " fill="#DE4246" transform="translate(450,310)"/>
<path d="M0 0 C2.57755197 0.01070129 5.15440283 0.00004776 7.73193359 -0.01269531 C39.41393979 -0.03858424 70.7184421 7.39380517 94.40380859 29.75683594 C106.34588704 42.7092425 116.71240234 61.41407493 116.71240234 79.26074219 C89.65240234 79.26074219 62.59240234 79.26074219 34.71240234 79.26074219 C33.72240234 76.29074219 32.73240234 73.32074219 31.71240234 70.26074219 C26.89635789 64.06868503 19.33776097 60.68379046 11.71240234 59.26074219 C7.58455476 58.92813391 3.47712892 58.89062394 -0.66259766 58.88574219 C-1.74798828 58.86125 -2.83337891 58.83675781 -3.95166016 58.81152344 C-11.51145212 58.78413289 -18.01051748 59.69506277 -23.97265625 64.66552734 C-26.29789729 67.48638233 -26.49147232 70.74479145 -26.28759766 74.26074219 C-24.89138186 78.71362541 -23.02212601 81.69683263 -19.31103516 84.54589844 C-18.11122826 85.17077334 -16.89326077 85.76157189 -15.66259766 86.32324219 C-14.98382568 86.64776367 -14.30505371 86.97228516 -13.60571289 87.30664062 C0.49905981 93.64524139 16.25198428 96.5596791 31.27319336 99.97998047 C35.71113599 100.99389037 40.02634602 102.23525443 44.36474609 103.60449219 C47.98412624 104.61623239 51.65915054 105.22323038 55.36474609 105.83105469 C57.71240234 106.26074219 57.71240234 106.26074219 60.71240234 107.26074219 C60.71240234 107.92074219 60.71240234 108.58074219 60.71240234 109.26074219 C62.41396484 109.53917969 62.41396484 109.53917969 64.14990234 109.82324219 C85.33969751 114.62093166 104.9681893 126.94497503 116.71240234 145.26074219 C117.37240234 146.25074219 118.03240234 147.24074219 118.71240234 148.26074219 C118.71240234 149.58074219 118.71240234 150.90074219 118.71240234 152.26074219 C119.37240234 152.26074219 120.03240234 152.26074219 120.71240234 152.26074219 C121.19960447 153.61203865 121.67668418 154.96698534 122.14990234 156.32324219 C122.41673828 157.07734375 122.68357422 157.83144531 122.95849609 158.60839844 C127.87944641 175.92096456 125.33646079 197.525618 116.71240234 213.26074219 C116.08398438 214.45183594 116.08398438 214.45183594 115.44287109 215.66699219 C108.73321197 227.6445655 98.1579656 239.1649561 85.71240234 245.26074219 C85.05240234 245.26074219 84.39240234 245.26074219 83.71240234 245.26074219 C83.71240234 245.92074219 83.71240234 246.58074219 83.71240234 247.26074219 C82.69146484 247.69644531 81.67052734 248.13214844 80.61865234 248.58105469 C78.251247 249.59277651 75.90177344 250.627933 73.55615234 251.69042969 C65.93956447 254.98264641 58.38532475 257.24195132 50.27490234 259.01074219 C48.91945312 259.30827393 48.91945312 259.30827393 47.53662109 259.61181641 C33.39238899 262.53933187 19.58871405 263.59218623 5.18457031 263.52148438 C2.58293526 263.51072371 -0.01801402 263.52147219 -2.61962891 263.53417969 C-12.37164283 263.54227408 -21.67065874 263.00590099 -31.28759766 261.26074219 C-32.47740234 261.04885254 -33.66720703 260.83696289 -34.89306641 260.61865234 C-60.84648455 255.79308401 -85.28872189 241.59693196 -101.39306641 220.50292969 C-109.88744046 207.63948465 -114.28759766 195.6566977 -114.28759766 180.26074219 C-87.22759766 180.26074219 -60.16759766 180.26074219 -32.28759766 180.26074219 C-30.63759766 184.22074219 -28.98759766 188.18074219 -27.28759766 192.26074219 C-20.04684861 199.91134495 -11.01043561 203.72671616 -0.53369141 204.45117188 C2.40519446 204.52803812 5.33516274 204.53381405 8.27490234 204.51074219 C9.75893555 204.52234375 9.75893555 204.52234375 11.27294922 204.53417969 C21.19410779 204.50784615 30.39022114 202.76412628 38.14990234 196.19824219 C40.74696025 192.97789039 41.24143095 189.54355913 41.18115234 185.45214844 C40.10586395 180.42517518 36.06270217 176.95666619 32.02880859 174.04589844 C17.02985331 165.72799228 -2.35121773 163.33387727 -18.86816406 159.64111328 C-46.10394699 153.52941483 -80.58094076 145.46565683 -97.38916016 120.63330078 C-108.51460791 103.03583775 -112.29417868 83.2373233 -108.28759766 62.63574219 C-103.0784719 43.70442867 -92.43169259 28.32339482 -75.28759766 18.26074219 C-51.85377265 5.77390115 -51.85377265 5.77390115 -42.16259766 4.69824219 C-38.40871968 4.41347276 -38.40871968 4.41347276 -35.45996094 3.30273438 C-24.17696097 -0.40327177 -11.74467457 -0.05777891 0 0 Z " fill="#EB3338" transform="translate(150.28759765625,88.7392578125)"/>
<path d="M0 0 C17.13875306 13.58868932 30.02718171 30.90641635 34.39794922 52.76025391 C34.44397218 54.42628502 34.45786251 56.09466447 34.39794922 57.76025391 C35.05794922 57.76025391 35.71794922 57.76025391 36.39794922 57.76025391 C36.41212891 58.35193359 36.42630859 58.94361328 36.44091797 59.55322266 C36.71097558 64.0274203 36.86670004 66.14931735 39.89794922 69.63525391 C40.72294922 70.33650391 41.54794922 71.03775391 42.39794922 71.76025391 C43.68112814 75.60979067 43.46438559 78.70763526 43.39794922 82.76025391 C42.40794922 83.09025391 41.41794922 83.42025391 40.39794922 83.76025391 C39.37775349 84.73964181 38.37645117 85.73920839 37.39794922 86.76025391 C36.40794922 87.25525391 36.40794922 87.25525391 35.39794922 87.76025391 C34.93143715 89.88602173 34.93143715 89.88602173 34.77294922 92.32275391 C34.66080078 93.5621875 34.66080078 93.5621875 34.54638672 94.82666016 C34.49740234 95.46474609 34.44841797 96.10283203 34.39794922 96.76025391 C33.73794922 96.76025391 33.07794922 96.76025391 32.39794922 96.76025391 C32.23294922 97.91525391 32.06794922 99.07025391 31.89794922 100.26025391 C29.11242136 112.61007674 21.89202786 123.596031 13.39794922 132.76025391 C12.85783203 133.35193359 12.31771484 133.94361328 11.76123047 134.55322266 C10.39794922 135.76025391 10.39794922 135.76025391 8.39794922 135.76025391 C7.77919922 134.12056641 7.77919922 134.12056641 7.14794922 132.44775391 C5.71595313 129.20277194 4.75625661 127.26265458 1.39794922 125.76025391 C-1.68686796 125.30493034 -4.52348232 125.23395452 -7.60205078 125.76025391 C-10.10365896 127.63646004 -11.2215073 128.99916694 -12.60205078 131.76025391 C-12.97545977 136.70792305 -12.82442321 139.87118373 -9.60205078 143.76025391 C-7.03105676 145.10715306 -7.03105676 145.10715306 -4.60205078 145.76025391 C-6.06380932 149.64720274 -7.90331241 150.76840619 -11.60205078 152.51025391 C-12.48892578 152.93822266 -13.37580078 153.36619141 -14.28955078 153.80712891 C-16.60205078 154.76025391 -16.60205078 154.76025391 -18.60205078 154.76025391 C-18.57884766 155.88173828 -18.55564453 157.00322266 -18.53173828 158.15869141 C-18.37337235 169.93669743 -18.83073023 181.63321915 -19.53955078 193.38525391 C-19.60490021 194.47879181 -19.60490021 194.47879181 -19.67156982 195.59442139 C-20.05814114 201.99344489 -20.46489726 208.38266168 -21.07739258 214.7644043 C-21.74407804 221.98746775 -22.13141546 229.22576161 -22.53173828 236.46728516 C-22.6178107 238.00023445 -22.7039847 239.53317804 -22.79025269 241.06611633 C-23.75918305 258.35241301 -24.67781929 275.64148709 -25.59362793 292.93066406 C-25.82117725 297.22349762 -26.04954712 301.51628754 -26.27783203 305.80908203 C-26.72000625 314.12609867 -27.1613296 322.44316014 -27.60205078 330.76025391 C-28.26205078 330.76025391 -28.92205078 330.76025391 -29.60205078 330.76025391 C-29.57884766 331.87142578 -29.55564453 332.98259766 -29.53173828 334.12744141 C-29.33435557 347.31646496 -29.49247414 360.10910498 -39.01220703 370.35400391 C-45.62944442 376.51319983 -49.71769941 378.26252032 -58.71923828 378.16650391 C-65.61211708 377.19514971 -71.12896877 372.05413324 -75.32080078 366.72119141 C-82.99758817 354.97196193 -81.7308423 340.35474486 -82.25048828 326.84814453 C-82.30791642 325.40247783 -82.36556045 323.9568197 -82.42340088 322.51116943 C-82.54647506 319.42358189 -82.66804491 316.33594031 -82.78839111 313.24824524 C-82.97956499 308.34341964 -83.17415564 303.43873297 -83.36914062 298.53405762 C-83.67789529 290.7574432 -83.98434436 282.98073989 -84.28982353 275.20399618 C-84.83513968 261.32333049 -85.38429366 247.44281642 -85.93443489 233.56234121 C-86.12668213 228.70948204 -86.3178916 223.85658344 -86.50823498 219.00364923 C-86.65604379 215.2382469 -86.80465621 211.4728766 -86.95361328 207.70751953 C-86.98172026 206.99586986 -87.00982723 206.28422018 -87.03878593 205.55100536 C-87.41209177 196.12864705 -87.81291516 186.70818389 -88.31106567 177.29148102 C-88.69534783 169.77966641 -88.69778072 162.28037224 -88.60205078 154.76025391 C-89.92076172 154.35806641 -89.92076172 154.35806641 -91.26611328 153.94775391 C-94.44473897 152.81625249 -97.09135944 151.49340186 -99.97705078 149.76025391 C-101.28802734 148.98681641 -101.28802734 148.98681641 -102.62548828 148.19775391 C-103.27775391 147.72337891 -103.93001953 147.24900391 -104.60205078 146.76025391 C-104.60205078 146.10025391 -104.60205078 145.44025391 -104.60205078 144.76025391 C-103.48830078 144.53337891 -102.37455078 144.30650391 -101.22705078 144.07275391 C-97.57548043 143.14475361 -97.57548043 143.14475361 -96.16455078 140.69775391 C-95.38686995 136.63653178 -94.88221319 132.86485977 -95.60205078 128.76025391 C-97.75323137 125.9151441 -99.26657125 125.011411 -102.76220703 124.35400391 C-107.04890147 124.06774718 -109.02204928 124.3283379 -112.53955078 126.94775391 C-114.43889797 129.53777279 -115.64334594 131.70982941 -116.60205078 134.76025391 C-121.47684268 131.04612675 -125.34741265 126.9884492 -128.60205078 121.76025391 C-128.60205078 121.10025391 -128.60205078 120.44025391 -128.60205078 119.76025391 C-129.26205078 119.76025391 -129.92205078 119.76025391 -130.60205078 119.76025391 C-132.60205078 116.76025391 -132.60205078 116.76025391 -132.35205078 114.19775391 C-131.60205078 111.76025391 -131.60205078 111.76025391 -129.60205078 109.76025391 C-129.37179743 105.69244462 -129.20846264 101.61942107 -130.60205078 97.76025391 C-133.21235932 95.73001393 -134.91324845 94.80945407 -138.22705078 94.57275391 C-139.01080078 94.30462891 -139.79455078 94.03650391 -140.60205078 93.76025391 C-141.5303997 91.804412 -142.1396512 89.82674106 -142.78173828 87.76025391 C-143.97764683 84.84451496 -146.08381453 83.54952703 -148.60205078 81.76025391 C-150.23311377 76.86706494 -150.35487255 72.52938506 -148.35205078 67.82275391 C-146.44028572 65.56960222 -145.49721908 65.05975407 -142.60205078 64.76025391 C-142.60205078 62.45025391 -142.60205078 60.14025391 -142.60205078 57.76025391 C-141.99876953 57.59009766 -141.39548828 57.41994141 -140.77392578 57.24462891 C-136.00430631 55.7983572 -132.93716248 54.62898347 -129.60205078 50.76025391 C-128.94205078 50.76025391 -128.28205078 50.76025391 -127.60205078 50.76025391 C-127.75381323 43.65501195 -128.41619523 40.80963957 -133.60205078 35.76025391 C-134.33573024 28.4234593 -129.00388798 23.15845291 -124.60205078 17.76025391 C-121.69261659 14.33560741 -118.67920752 11.03417377 -115.60205078 7.76025391 C-114.98974609 7.06029297 -114.37744141 6.36033203 -113.74658203 5.63916016 C-85.72802601 -25.0080024 -31.31126743 -24.23020665 0 0 Z " fill="#434A4C" transform="translate(433.60205078125,125.23974609375)"/>
<path d="M0 0 C115.83 0 231.66 0 351 0 C351 29.37 351 58.74 351 89 C235.17 89 119.34 89 0 89 C0 59.63 0 30.26 0 0 Z " fill="#E9393E" transform="translate(682,425)"/>
<path d="M0 0 C20.46 0 40.92 0 62 0 C62.33 41.25 62.66 82.5 63 125 C73.10907515 112.13390436 83.14006092 99.30309875 92.73950195 86.06176758 C93.8348241 84.56148196 94.94816846 83.07415381 96.08088684 81.60189819 C98.04853798 79.01604565 98.04853798 79.01604565 99.71932983 76.1653595 C102.81692907 71.5365659 105.14461905 68.48858723 110.66300964 67.03540039 C115.13337505 66.5881364 119.58471217 66.76064767 124.06640625 66.92578125 C125.71258822 66.94632969 127.35883805 66.96197265 129.00511169 66.97294617 C133.31252859 67.01470226 137.61578383 67.12251373 141.92156982 67.24468994 C146.32539571 67.35776514 150.72990267 67.40757073 155.13476562 67.46289062 C163.75840833 67.58042738 172.37868479 67.76783999 181 68 C179.20467891 71.87949716 176.89932945 74.26961294 173.8125 77.25 C169.95189872 81.02596647 166.25156372 84.86718981 162.7421875 88.97265625 C160.69906239 91.35019421 158.60233785 93.67468692 156.5 96 C153.84886006 98.93678465 151.21709829 101.88602542 148.625 104.875 C145.64081672 108.30334079 142.57742662 111.65555831 139.5 115 C138.55446832 116.03104905 137.60915192 117.06229556 136.6640625 118.09375 C135.03762407 119.86804647 133.40816973 121.63959201 131.7734375 123.40625 C131.14695312 124.0971875 130.52046875 124.788125 129.875 125.5 C129.33617187 126.0878125 128.79734375 126.675625 128.2421875 127.28125 C126.763955 129.32660315 126.28718157 130.4821014 126 133 C127.01034994 135.7600881 127.01034994 135.7600881 128.65625 138.6796875 C129.25953125 139.82187744 129.8628125 140.96406738 130.484375 142.14086914 C131.15622447 143.38559321 131.82810015 144.63030313 132.5 145.875 C133.89060725 148.49335697 135.27295215 151.11605713 136.65625 153.73828125 C137.01404541 154.41360397 137.37184082 155.0889267 137.74047852 155.78471375 C140.25748066 160.54726489 142.69971882 165.3425133 145.09375 170.16796875 C145.42354858 170.83258118 145.75334717 171.4971936 146.09313965 172.1819458 C147.3710848 174.76178275 148.6465093 177.34281989 149.91577148 179.92694092 C153.52640573 187.27357182 157.30584942 194.41310165 161.57446289 201.40112305 C163.49448074 204.90148098 164.32201742 208.0827673 165 212 C165.66 212 166.32 212 167 212 C169.42614866 216.8029545 171.84708842 221.60848418 174.26318359 226.41650391 C175.08629062 228.05264441 175.91083051 229.68806488 176.73681641 231.32275391 C177.92204878 233.66903023 179.1021477 236.01782585 180.28125 238.3671875 C180.65310425 239.10057343 181.0249585 239.83395935 181.40808105 240.58956909 C184 245.77225659 184 245.77225659 184 248 C161.56 248 139.12 248 116 248 C109.4375 232.9375 109.4375 232.9375 107.41577148 228.28881836 C102.62901378 217.30992583 97.77039203 206.35266099 92.3125 195.6875 C89.28885514 189.71006346 86.49571006 183.55121006 85 177 C81.09637374 179.83900092 78.09091008 183.05666684 74.9765625 186.69921875 C72.73042832 189.31378996 70.43265099 191.87710628 68.125 194.4375 C67.36445312 195.28183594 66.60390625 196.12617188 65.8203125 196.99609375 C64.89681567 198.01273297 63.97118528 199.02881472 63 200 C62.8775669 201.50316769 62.82223715 203.01188167 62.79467773 204.51977539 C62.77449585 205.49418579 62.75431396 206.46859619 62.73352051 207.47253418 C62.71704468 208.50382446 62.70056885 209.53511475 62.68359375 210.59765625 C62.66494263 211.54024292 62.6462915 212.48282959 62.6270752 213.45397949 C62.55854718 216.99005361 62.49854588 220.5262888 62.4375 224.0625 C62.293125 231.961875 62.14875 239.86125 62 248 C41.54 248 21.08 248 0 248 C0 166.16 0 84.32 0 0 Z " fill="#222021" transform="translate(848,48)"/>
<path d="M0 0 C2.99028227 0.00315431 5.97956607 -0.02036805 8.96972656 -0.0456543 C31.77793579 -0.12124201 53.87232071 1.92515172 71.44628906 17.94067383 C83.76969855 30.85207899 87.59262529 51.58531926 87.51416016 68.85742188 C87.51959084 70.3428373 87.51959084 70.3428373 87.52513123 71.85826111 C87.53197444 73.98884352 87.53454029 76.11944327 87.53318405 78.25003624 C87.53220943 81.63692698 87.54527208 85.02350841 87.56216431 88.41035461 C87.60814729 98.03331118 87.63301731 107.65623402 87.63964844 117.27929688 C87.64469761 123.18602088 87.66911669 129.09241965 87.70497513 134.99903297 C87.71469199 137.23261361 87.71715007 139.46623945 87.71180344 141.69983482 C87.68233212 154.61792546 88.5038437 165.92469057 92.25878906 178.31567383 C92.58878906 179.96567383 92.91878906 181.61567383 93.25878906 183.31567383 C74.77878906 183.31567383 56.29878906 183.31567383 37.25878906 183.31567383 C32.25878906 168.31567383 32.25878906 168.31567383 32.25878906 162.31567383 C31.80890625 162.72817383 31.35902344 163.14067383 30.89550781 163.56567383 C15.62635828 177.27424896 15.62635828 177.27424896 9.25878906 178.31567383 C9.25878906 178.97567383 9.25878906 179.63567383 9.25878906 180.31567383 C8.41574219 180.59282227 7.57269531 180.8699707 6.70410156 181.15551758 C5.60839844 181.51774414 4.51269531 181.8799707 3.38378906 182.25317383 C1.74796875 182.79264648 1.74796875 182.79264648 0.07910156 183.34301758 C-2.64879776 184.21481457 -2.64879776 184.21481457 -4.74121094 185.31567383 C-15.40327946 187.29763229 -25.9282232 187.77300604 -36.74121094 187.31567383 C-37.46131348 187.29053711 -38.18141602 187.26540039 -38.92333984 187.23950195 C-53.98959135 186.57843518 -65.09074381 181.31162067 -75.54980469 170.16333008 C-83.47324944 159.86708904 -87.13059309 148.47858092 -87.05371094 135.56567383 C-87.04807129 134.58429443 -87.04243164 133.60291504 -87.03662109 132.59179688 C-86.92219062 125.77865168 -86.48462766 119.63384568 -83.74121094 113.31567383 C-83.33902344 112.38754883 -82.93683594 111.45942383 -82.52246094 110.50317383 C-76.79299365 98.78959626 -66.78938737 91.46503022 -54.67871094 87.19067383 C-53.29184815 86.68846725 -51.90512603 86.18587201 -50.51855469 85.68286133 C-49.91261475 85.46742676 -49.3066748 85.25199219 -48.68237305 85.0300293 C-47.22802696 84.49482408 -45.79060789 83.91323658 -44.36352539 83.30908203 C-41.58480334 82.25642213 -38.92034062 81.63309137 -36.00683594 81.05395508 C-34.88736572 80.82571045 -33.76789551 80.59746582 -32.61450195 80.36230469 C-30.8209729 79.99890991 -30.8209729 79.99890991 -28.99121094 79.62817383 C-11.72323907 76.02304488 5.7075707 72.06693937 22.00097656 65.16333008 C24.25878906 64.31567383 24.25878906 64.31567383 27.25878906 64.31567383 C27.08371821 61.74696188 26.87025353 59.19135939 26.63378906 56.62817383 C26.56611328 55.54632813 26.56611328 55.54632813 26.49707031 54.44262695 C26.07070366 50.19834071 25.57303889 48.65120571 22.54785156 45.42114258 C14.29473485 40.13797166 4.67642191 40.0452612 -4.79980469 41.92114258 C-12.19758567 44.08661487 -16.83682656 46.36586964 -20.74121094 53.31567383 C-21.92424414 56.27325684 -22.85805815 59.25805566 -23.74121094 62.31567383 C-32.78277336 61.53902841 -41.80664751 60.60465013 -50.82983398 59.64111328 C-52.48066865 59.46565202 -54.13171303 59.29215293 -55.78295898 59.12060547 C-64.53244723 58.21124124 -73.14801 57.26113962 -81.74121094 55.31567383 C-82.29240691 42.28740531 -76.20491336 30.27959361 -68.15917969 20.36645508 C-50.32156774 1.0532256 -24.56047899 -0.05398347 0 0 Z " fill="#222021" transform="translate(579.7412109375,112.684326171875)"/>
<path d="M0 0 C1.68686513 0.96553809 3.36186096 1.95392245 5 3 C3.65208267 14.24220408 -0.54730919 24.39207167 -5.4675293 34.48071289 C-8.33867437 40.46801376 -10.25927154 46.58849705 -12 53 C-12.60328125 52.79503906 -13.2065625 52.59007812 -13.828125 52.37890625 C-14.62734375 52.10949219 -15.4265625 51.84007812 -16.25 51.5625 C-17.03890625 51.29566406 -17.8278125 51.02882812 -18.640625 50.75390625 C-22.69438179 49.4585833 -26.15850909 48.842174 -30.4375 48.8125 C-31.36433594 48.79832031 -32.29117188 48.78414062 -33.24609375 48.76953125 C-39.83185989 49.32068047 -43.00752995 52.52648994 -47.13671875 57.37109375 C-53.53417996 66.39728116 -55.06820891 78.57710548 -56.09912109 89.36035156 C-56.18312353 90.2251627 -56.26712597 91.08997383 -56.35367393 91.98099136 C-57.18001693 101.06354254 -57.35032912 110.11987315 -57.4140625 119.234375 C-57.43284918 120.97699827 -57.4524276 122.71961317 -57.4727478 124.46221924 C-57.52328535 128.97299167 -57.56332129 133.48379337 -57.60089111 137.99468994 C-57.64860381 143.44758715 -57.70985351 148.90034834 -57.76873779 154.35313416 C-57.85598975 162.56869878 -57.92643768 170.78425022 -58 179 C-78.13 179 -98.26 179 -119 179 C-119 119.27 -119 59.54 -119 -2 C-100.19 -2 -81.38 -2 -62 -2 C-61.67 6.91 -61.34 15.82 -61 25 C-60.030625 22.89625 -59.06125 20.7925 -58.0625 18.625 C-53.35355227 8.94887919 -46.85085613 0.79170603 -37 -4 C-25.09587653 -7.96804116 -11.10809656 -4.96646635 0 0 Z " fill="#232122" transform="translate(822,118)"/>
<path d="M0 0 C38.94 0 77.88 0 118 0 C118 36.3 118 72.6 118 110 C79.06 110 40.12 110 0 110 C0 73.7 0 37.4 0 0 Z " fill="#E5353A" transform="translate(566,311)"/>
<path d="M0 0 C37.95 0 75.9 0 115 0 C115 36.3 115 72.6 115 110 C77.05 110 39.1 110 0 110 C0 73.7 0 37.4 0 0 Z " fill="#211F20" transform="translate(917,311)"/>
<path d="M0 0 C37.95 0 75.9 0 115 0 C115 36.3 115 72.6 115 110 C77.05 110 39.1 110 0 110 C0 73.7 0 37.4 0 0 Z " fill="#232122" transform="translate(684,311)"/>
<path d="M0 0 C37.95 0 75.9 0 115 0 C115 36.3 115 72.6 115 110 C77.05 110 39.1 110 0 110 C0 73.7 0 37.4 0 0 Z " fill="#201E1F" transform="translate(451,311)"/>
<path d="M0 0 C0.78375 0.515625 1.5675 1.03125 2.375 1.5625 C6.50041682 3.82165683 10.48288912 2.72800039 15 2 C15.27773492 14.55979026 14.81681854 27.02902499 14.0625 39.5625 C13.99715057 40.65869659 13.99715057 40.65869659 13.93048096 41.77703857 C13.54384552 48.19583454 13.1390484 54.60493624 12.5246582 61.00634766 C11.85781662 68.22866756 11.47059515 75.46623437 11.0703125 82.70703125 C10.98424008 84.23998054 10.89806608 85.77292413 10.8117981 87.30586243 C9.84286773 104.5921591 8.92423149 121.88123319 8.00842285 139.17041016 C7.78087353 143.46324372 7.55250366 147.75603363 7.32421875 152.04882812 C6.88204453 160.36584476 6.44072118 168.68290624 6 177 C5.34 177 4.68 177 4 177 C4.02320313 178.11117187 4.04640625 179.22234375 4.0703125 180.3671875 C4.26769521 193.55621105 4.10957664 206.34885107 -5.41015625 216.59375 C-12.02739364 222.75294592 -16.11564862 224.50226641 -25.1171875 224.40625 C-32.01006629 223.43489581 -37.52691799 218.29387934 -41.71875 212.9609375 C-45.39650262 207.33218196 -47.11904975 201.77576663 -47.56394958 195.08119202 C-47.64035109 193.9354175 -47.71675259 192.78964298 -47.79546928 191.60914803 C-48.14073214 185.51664142 -48.41789851 179.42318205 -48.66430664 173.32592773 C-48.72338892 171.90459974 -48.78265456 170.48327935 -48.84208679 169.06196594 C-49.00143765 165.2340901 -49.15770333 161.40609486 -49.31296849 157.57805133 C-49.4108821 155.16571077 -49.50934759 152.75339332 -49.60796928 150.34108162 C-49.91877854 142.73468786 -50.22767971 135.1282202 -50.533804 127.52163643 C-50.88265148 118.85380298 -51.23770297 110.18625459 -51.5983935 101.51890606 C-51.87965975 94.75061786 -52.15509167 87.9821064 -52.4264726 81.21341473 C-52.58730618 77.20489708 -52.75024927 73.19649853 -52.91938972 69.18832207 C-53.86222632 46.78089449 -54.16618955 24.4269567 -54 2 C-52.35451172 2.41572266 -52.35451172 2.41572266 -50.67578125 2.83984375 C-49.22137007 3.20579237 -47.7669421 3.57167427 -46.3125 3.9375 C-45.59126953 4.11990234 -44.87003906 4.30230469 -44.12695312 4.49023438 C-40.43172752 5.41825907 -36.74654531 6.29798461 -33 7 C-33 7.66 -33 8.32 -33 9 C-29.04 9 -25.08 9 -21 9 C-21 48.93 -21 88.86 -21 130 C-20.7113881 96.95841268 -20.7113881 96.95841268 -20.43188477 63.91674805 C-20.3729248 57.46447754 -20.3729248 57.46447754 -20.34410095 54.42512512 C-20.32512695 52.34347337 -20.30775049 50.26180661 -20.29173279 48.18013 C-20.18706425 34.75896751 -19.84312683 21.39615568 -19 8 C-17.35 8 -15.7 8 -14 8 C-13.7525 7.236875 -13.505 6.47375 -13.25 5.6875 C-10.50989463 -0.20372655 -6.17412744 -0.98536579 0 0 Z " fill="#626264" transform="translate(400,279)"/>
<path d="M0 0 C11.7323945 9.30218572 26.29227535 21.98252855 28.39794922 37.76025391 C27.59357422 38.37900391 26.78919922 38.99775391 25.96044922 39.63525391 C23.35920403 41.50189432 23.35920403 41.50189432 22.39794922 43.76025391 C22.13039514 47.30534549 22.19185694 50.11253532 23.27294922 53.51025391 C26.590429 57.02287956 30.78842758 57.69651814 35.39794922 58.76025391 C35.39794922 61.07025391 35.39794922 63.38025391 35.39794922 65.76025391 C27.32801392 65.78389488 19.25809414 65.80142272 11.18813229 65.81206608 C7.43701352 65.81718586 3.68591916 65.82407225 -0.06518555 65.83569336 C-16.53420994 65.88529822 -32.96282176 65.75750793 -49.42349243 65.15359497 C-66.54832929 64.54604189 -83.6820061 64.41581841 -100.81561279 64.22802734 C-105.43651036 64.17667138 -110.05736372 64.12159758 -114.67822266 64.06689453 C-123.6527938 63.96116998 -132.62740426 63.85935948 -141.60205078 63.76025391 C-141.60205078 61.45025391 -141.60205078 59.14025391 -141.60205078 56.76025391 C-140.36455078 56.51275391 -139.12705078 56.26525391 -137.85205078 56.01025391 C-134.04428442 55.08185857 -132.19798736 53.75556534 -129.60205078 50.76025391 C-128.94205078 50.76025391 -128.28205078 50.76025391 -127.60205078 50.76025391 C-127.75381323 43.65501195 -128.41619523 40.80963957 -133.60205078 35.76025391 C-134.33573024 28.4234593 -129.00388798 23.15845291 -124.60205078 17.76025391 C-121.69261659 14.33560741 -118.67920752 11.03417377 -115.60205078 7.76025391 C-114.98974609 7.06029297 -114.37744141 6.36033203 -113.74658203 5.63916016 C-85.72802601 -25.0080024 -31.31126743 -24.23020665 0 0 Z " fill="#4E585C" transform="translate(433.60205078125,125.23974609375)"/>
<path d="M0 0 C9.0271993 6.67653619 13.79751744 14.744638 16.80859375 25.5390625 C17.39824505 29.85506686 17.37193378 34.14903331 17.375 38.5 C17.38724609 39.39525391 17.39949219 40.29050781 17.41210938 41.21289062 C17.44182583 54.93198923 14.00238957 67.3283882 4.1875 77.3125 C-6.18621193 85.43798426 -17.91865332 87.35093061 -30.8125 86.3125 C-41.23981703 84.80493609 -49.83502655 80.70290409 -56.46875 72.35546875 C-65.8485563 58.09489115 -67.07163476 39.95595306 -64.125 23.46484375 C-60.84562134 12.8751835 -54.32182873 3.3826304 -44.44140625 -1.97265625 C-30.95567684 -8.15084755 -12.79279991 -7.89068499 0 0 Z " fill="#FDF8F8" transform="translate(648.8125,325.6875)"/>
<path d="M0 0 C1.64548828 0.41572266 1.64548828 0.41572266 3.32421875 0.83984375 C4.77862993 1.20579237 6.2330579 1.57167427 7.6875 1.9375 C8.40873047 2.11990234 9.12996094 2.30230469 9.87304688 2.49023438 C13.56827248 3.41825907 17.25345469 4.29798461 21 5 C21 5.66 21 6.32 21 7 C24.96 7 28.92 7 33 7 C33.03250358 19.04165362 33.05158558 31.08330809 33.0625 43.125 C33.06335602 44.06233978 33.06421204 44.99967957 33.06509399 45.96542358 C33.09647044 85.14540115 32.82764558 124.32174244 32.5 163.5 C32.49402628 164.21535573 32.48805257 164.93071146 32.48189783 165.66774464 C32.32774745 184.11188708 32.16727702 202.55597165 32 221 C31.07960938 220.8453125 30.15921875 220.690625 29.2109375 220.53125 C27.01867776 220.16854036 24.82307176 219.82564026 22.625 219.5 C15.84228364 216.69335875 11.53867002 210.84933353 8.5625 204.25 C5.07234583 193.93668683 5.77147007 182.10901933 5.33569336 171.32592773 C5.27661108 169.90459974 5.21734544 168.48327935 5.15791321 167.06196594 C4.99856235 163.2340901 4.84229667 159.40609486 4.68703151 155.57805133 C4.5891179 153.16571077 4.49065241 150.75339332 4.39203072 148.34108162 C4.08122146 140.73468786 3.77232029 133.1282202 3.466196 125.52163643 C3.11734852 116.85380298 2.76229703 108.18625459 2.4016065 99.51890606 C2.12034025 92.75061786 1.84490833 85.9821064 1.5735274 79.21341473 C1.41269382 75.20489708 1.24975073 71.19649853 1.08061028 67.18832207 C0.13777368 44.78089449 -0.16618955 22.4269567 0 0 Z " fill="#211F20" transform="translate(346,281)"/>
<path d="M0 0 C11.6015625 -0.12375 11.6015625 -0.12375 23.4375 -0.25 C27.0735022 -0.30462402 27.0735022 -0.30462402 30.78295898 -0.36035156 C32.72899493 -0.37204659 34.67504074 -0.38223648 36.62109375 -0.390625 C37.6114563 -0.41108887 38.60181885 -0.43155273 39.62219238 -0.45263672 C48.48369145 -0.45703721 55.75754199 2.04721135 62.359375 8.09375 C66.7485219 13.19352069 70.5098465 19.12328992 70 26 C70.66 26 71.32 26 72 26 C76.22264935 38.66794805 74.74423393 57.72251809 68.91015625 69.76953125 C63.5188365 78.8873665 57.43703152 84.72290416 47.09823608 87.58937073 C42.92481149 88.40611881 38.70921996 88.24163367 34.47265625 88.1953125 C33.59508667 88.19329834 32.71751709 88.19128418 31.81335449 88.18920898 C28.56301581 88.17881509 25.31275216 88.15089295 22.0625 88.125 C11.1415625 88.063125 11.1415625 88.063125 0 88 C0 58.96 0 29.92 0 0 Z " fill="#FAFAFA" transform="translate(705,322)"/>
<path d="M0 0 C9.24 0 18.48 0 28 0 C32 12 32 12 32 17 C32.66 17 33.32 17 34 17 C38.67945022 30.66231449 43.34743746 44.3285044 48 58 C48.26367371 58.774505 48.52734741 59.54901001 48.79901123 60.34698486 C50.33244487 64.85361423 51.85673503 69.36323156 53.375 73.875 C53.74939209 74.97690674 54.12378418 76.07881348 54.50952148 77.21411133 C55.01140991 78.71300903 55.01140991 78.71300903 55.5234375 80.2421875 C55.81138184 81.0966748 56.09932617 81.95116211 56.39599609 82.83154297 C57 85 57 85 57 88 C48.42 88 39.84 88 31 88 C29.02 81.07 29.02 81.07 27 74 C13.14 73.505 13.14 73.505 -1 73 C-1.33 76.3 -1.66 79.6 -2 83 C-2.66 84.65 -3.32 86.3 -4 88 C-12.25 88 -20.5 88 -29 88 C-27.71038994 82.19675472 -26.39335429 76.74331085 -24.50976562 71.15698242 C-24.26884689 70.43057556 -24.02792816 69.7041687 -23.77970886 68.95574951 C-22.99296324 66.58749534 -22.19980066 64.2214505 -21.40625 61.85546875 C-20.85308667 60.19649817 -20.30023539 58.53742351 -19.74768066 56.87825012 C-18.59389585 53.41698498 -17.43703971 49.9567671 -16.27783203 46.49731445 C-14.79317836 42.06611887 -13.31523047 37.63272205 -11.83942413 33.19857311 C-10.70073969 29.77917847 -9.5590652 26.36078825 -8.41642761 22.94271278 C-7.87021614 21.30792179 -7.32480933 19.67286172 -6.78022766 18.03752708 C-6.01985265 15.75603093 -5.2555897 13.4758744 -4.49023438 11.19604492 C-4.26679855 10.52326004 -4.04336273 9.85047516 -3.81315613 9.15730286 C-2.72795074 5.93826138 -1.52699093 3.05398186 0 0 Z " fill="#FDF7F7" transform="translate(844,322)"/>
<path d="M0 0 C2.19202046 3.28803068 3.04258616 6.08254261 4.125 9.875 C4.65480469 11.69644531 4.65480469 11.69644531 5.1953125 13.5546875 C5.89353035 16.5441445 6.1736106 18.95602755 6 22 C6.66 22 7.32 22 8 22 C8.01417969 22.59167969 8.02835938 23.18335938 8.04296875 23.79296875 C8.31302636 28.26716639 8.46875082 30.38906344 11.5 33.875 C12.325 34.57625 13.15 35.2775 14 36 C15.28317892 39.84953676 15.06643637 42.94738135 15 47 C14.01 47.33 13.02 47.66 12 48 C10.97980427 48.9793879 9.97850195 49.97895449 9 51 C6.01529789 52.49235105 2.96503285 52.13863762 -0.30761719 52.12939453 C-1.44939391 52.13196778 -1.44939391 52.13196778 -2.61423683 52.13459301 C-5.17513702 52.1389496 -7.73597377 52.13594405 -10.296875 52.1328125 C-12.12309799 52.13404134 -13.94932078 52.13561058 -15.77554321 52.13749695 C-21.76704396 52.14142105 -27.7585065 52.1338562 -33.75 52.125 C-35.27579052 52.12309473 -35.27579052 52.12309473 -36.83240509 52.12115097 C-49.63215403 52.10510857 -62.43181179 52.07365764 -75.23149681 52.03044605 C-81.6714886 52.00906626 -88.11145692 51.99350857 -94.55147552 51.98311996 C-104.64359776 51.96675675 -114.73534701 51.93291727 -124.82726288 51.8646965 C-129.56389786 51.83284764 -134.30023938 51.80884873 -139.0369873 51.80499268 C-143.48048821 51.80081228 -147.92321048 51.77296279 -152.36646652 51.72669411 C-153.99079255 51.71376061 -155.615211 51.70922956 -157.23958206 51.71381187 C-159.45537093 51.71869179 -161.66878284 51.69288545 -163.88427734 51.65942383 C-165.12124359 51.65276199 -166.35820984 51.64610016 -167.63265991 51.63923645 C-172.14172406 50.78326168 -173.7889459 49.2460362 -177 46 C-178.63106299 41.10681104 -178.75282177 36.76913115 -176.75 32.0625 C-174.83823494 29.80934832 -173.8951683 29.29950017 -171 29 C-171 26.69 -171 24.38 -171 22 C-170.67 22 -170.34 22 -170 22 C-170 23.98 -170 25.96 -170 28 C-169.06659286 27.99777939 -168.13318573 27.99555878 -167.17149353 27.99327087 C-158.21902124 27.97268025 -149.26655397 27.95785966 -140.31406307 27.94818783 C-135.71546859 27.94304779 -131.11689373 27.93611975 -126.51831055 27.92456055 C-107.78001215 27.87874303 -89.07196588 27.91200426 -70.34457397 28.60665894 C-60.74165777 28.96113138 -51.14307221 29.17351139 -41.53515625 29.31640625 C-40.81232389 29.32720152 -40.08949154 29.33799679 -39.34475517 29.34911919 C-34.98864685 29.41329881 -30.63248936 29.47338058 -26.27630615 29.53222656 C-22.49992967 29.58386789 -18.72360063 29.63878338 -14.94726562 29.69335938 C-7.63155134 29.79863622 -0.31579567 29.90051991 7 30 C7 27.69 7 25.38 7 23 C5.783125 22.938125 4.56625 22.87625 3.3125 22.8125 C-1.17383464 22.27159441 -3.14764741 20.54383201 -6 17 C-7.57455739 13.85088521 -7.34799118 11.47991184 -7 8 C-5.56855892 5.54839009 -4.06758347 4.01835529 -2 2 C-1.34 2 -0.68 2 0 2 C0 1.34 0 0.68 0 0 Z " fill="#E85B61" transform="translate(462,161)"/>
<path d="M0 0 C5.28 0 10.56 0 16 0 C19.37565954 7.87653892 19.37565954 7.87653892 20.22680664 11.10839844 C20.42033218 11.83315369 20.61385773 12.55790894 20.81324768 13.30462646 C21.01022751 14.06519348 21.20720734 14.8257605 21.41015625 15.609375 C21.62312851 16.41683167 21.83610077 17.22428833 22.05552673 18.05621338 C22.50261126 19.75651502 22.94703311 21.45751881 23.38891602 23.15917969 C24.05742065 25.73046321 24.73604836 28.29891447 25.41601562 30.8671875 C27.60459772 39.19500742 29.69941579 47.47702261 31 56 C33.83637536 54.58181232 33.99990121 52.95407331 35 50 C35.33548051 48.36253561 35.62543354 46.71524117 35.875 45.0625 C36.92429965 39.00699975 38.55772602 33.21394392 40.3125 27.32910156 C41.1500229 24.49175482 41.96558047 21.64839252 42.78125 18.8046875 C43.41652844 16.59891852 44.05194582 14.39318955 44.6875 12.1875 C45.15192505 10.56581909 45.15192505 10.56581909 45.62573242 8.91137695 C46.06429565 7.39870239 46.06429565 7.39870239 46.51171875 5.85546875 C46.90556763 4.48878052 46.90556763 4.48878052 47.30737305 3.09448242 C48 1 48 1 49 0 C51.64326005 -0.20696667 54.2283029 -0.32436753 56.875 -0.375 C57.60847656 -0.41238281 58.34195313 -0.44976562 59.09765625 -0.48828125 C61.2421875 -0.5234375 61.2421875 -0.5234375 65 0 C67.57548137 3.42918272 68.73794666 6.94787288 69.8671875 11.05078125 C70.19323975 12.21714111 70.51929199 13.38350098 70.85522461 14.58520508 C71.19175049 15.8152124 71.52827637 17.04521973 71.875 18.3125 C72.58037296 20.84421261 73.28739593 23.3754661 73.99609375 25.90625 C74.33753418 27.12699219 74.67897461 28.34773438 75.03076172 29.60546875 C76.58482114 35.04819977 78.31458536 40.42686348 80.08984375 45.80078125 C81.05455728 49.19176999 81.57896289 52.50317601 82 56 C82.66 56 83.32 56 84 56 C84.11029541 54.90220215 84.22059082 53.8044043 84.33422852 52.67333984 C84.9961662 47.40772627 86.30959731 42.35381406 87.65234375 37.2265625 C87.91253799 36.22160736 88.17273224 35.21665222 88.44081116 34.1812439 C88.98882261 32.07117153 89.53943918 29.96177419 90.0925293 27.85302734 C90.93972526 24.61649888 91.77399481 21.37681656 92.60742188 18.13671875 C93.14245277 16.0831309 93.67823356 14.02973824 94.21484375 11.9765625 C94.46386948 11.00578766 94.7128952 10.03501282 94.96946716 9.03482056 C95.20633743 8.13983856 95.4432077 7.24485657 95.68725586 6.32275391 C95.89297714 5.53413971 96.09869843 4.74552551 96.31065369 3.93301392 C97 2 97 2 99 0 C102.22265625 -0.23046875 102.22265625 -0.23046875 106.0625 -0.1875 C107.96708984 -0.17783203 107.96708984 -0.17783203 109.91015625 -0.16796875 C113 0 113 0 114 1 C113.53127486 6.73238172 112.31346847 11.95500269 110.625 17.4375 C110.31175781 18.48647461 110.31175781 18.48647461 109.9921875 19.55664062 C108.43116287 24.73943277 106.73040309 29.87170471 105 35 C103.87343571 38.35364318 102.7487323 41.70790689 101.625 45.0625 C101.32118408 45.96774414 101.01736816 46.87298828 100.7043457 47.80566406 C99.25326254 52.15165242 97.83069306 56.5010263 96.50390625 60.88671875 C96.16721924 61.99744751 96.16721924 61.99744751 95.82373047 63.13061523 C95.40821384 64.51476714 94.99937765 65.90094698 94.59814453 67.28930664 C94.12185596 68.87756357 93.56819357 70.44225582 93 72 C90.65147472 73.17426264 89.26225935 73.11508173 86.6484375 73.09765625 C85.37226562 73.09282227 85.37226562 73.09282227 84.0703125 73.08789062 C83.18085937 73.07951172 82.29140625 73.07113281 81.375 73.0625 C80.4778125 73.05798828 79.580625 73.05347656 78.65625 73.04882812 C76.43743352 73.03702591 74.21874982 73.02056155 72 73 C66.88375703 63.09898896 64.17962868 52.34219236 61.1940918 41.65014648 C59.62056111 36.04138144 57.89633242 30.50815496 56 25 C55.77860352 25.83547363 55.55720703 26.67094727 55.32910156 27.53173828 C54.48771682 30.7042228 53.64511717 33.87637991 52.80175781 37.04833984 C52.440612 38.40759039 52.07991718 39.76696086 51.71972656 41.12646484 C50.66804848 45.09522765 49.606601 49.06116812 48.53295898 53.02404785 C48.17577596 54.3483084 47.82180331 55.67343877 47.47094727 56.99938965 C46.96307562 58.91592441 46.44267248 60.82912475 45.921875 62.7421875 C45.6237793 63.85190918 45.32568359 64.96163086 45.01855469 66.10498047 C44.00143008 68.9959353 43.19079721 70.85943722 41 73 C38.82348633 73.45410156 38.82348633 73.45410156 36.33203125 73.390625 C35.43935547 73.37773437 34.54667969 73.36484375 33.62695312 73.3515625 C32.69818359 73.31804687 31.76941406 73.28453125 30.8125 73.25 C29.87212891 73.23195313 28.93175781 73.21390625 27.96289062 73.1953125 C25.64090111 73.1481655 23.3209631 73.08238231 21 73 C18.20382513 66.90864058 16.24985126 60.65982388 14.3125 54.25 C13.96872314 53.12416504 13.62494629 51.99833008 13.27075195 50.83837891 C10.3496277 41.24011501 7.50233385 31.61964762 4.70239258 21.98535156 C3.36427328 17.41636702 2.02219016 12.94275115 0.20703125 8.5390625 C-1 5 -1 5 0 0 Z " fill="#FDF5F5" transform="translate(843,433)"/>
<path d="M0 0 C0.78439453 0.00064453 1.56878906 0.00128906 2.37695312 0.00195312 C3.19228516 0.01806641 4.00761719 0.03417969 4.84765625 0.05078125 C5.65912109 0.04755859 6.47058594 0.04433594 7.30664062 0.04101562 C14.53584218 0.10625042 14.53584218 0.10625042 17.91015625 2.36328125 C19.58251953 4.63134766 19.58251953 4.63134766 21.23046875 7.46484375 C21.84374023 8.50543945 22.45701172 9.54603516 23.08886719 10.61816406 C23.73114258 11.73030273 24.37341797 12.84244141 25.03515625 13.98828125 C26.37513521 16.26761347 27.71628276 18.54625909 29.05859375 20.82421875 C29.71311523 21.94022461 30.36763672 23.05623047 31.04199219 24.20605469 C33.51455151 28.38471872 36.06848346 32.50772984 38.66015625 36.61328125 C41.11686003 40.50717184 43.54812674 44.4109413 45.91015625 48.36328125 C45.92046371 47.79143097 45.93077118 47.21958069 45.94139099 46.63040161 C46.0493394 40.69342339 46.16394667 34.75660054 46.2824707 28.81982422 C46.32585703 26.60240928 46.36752933 24.38496013 46.4074707 22.16748047 C46.46508379 18.98524653 46.52880389 15.80318541 46.59375 12.62109375 C46.61046249 11.62522247 46.62717499 10.6293512 46.64439392 9.603302 C46.66433914 8.68249847 46.68428436 7.76169495 46.70483398 6.81298828 C46.72037827 6.00024445 46.73592255 5.18750061 46.75193787 4.35012817 C46.91015625 2.36328125 46.91015625 2.36328125 47.91015625 0.36328125 C52.53015625 0.36328125 57.15015625 0.36328125 61.91015625 0.36328125 C63.31576934 3.17450743 63.06078563 5.5327991 63.0871582 8.67724609 C63.0937294 9.3246022 63.1003006 9.97195831 63.10707092 10.63893127 C63.12680295 12.78402825 63.13846554 14.92905525 63.1484375 17.07421875 C63.15251303 17.80657368 63.15658855 18.5389286 63.16078758 19.2934761 C63.18164688 23.16895516 63.19594976 27.04439882 63.20532227 30.91992188 C63.21639292 34.92394307 63.25079998 38.92740945 63.29049397 42.93123436 C63.31662923 46.00931843 63.32501125 49.0872696 63.32860374 52.16545486 C63.33347695 53.64146298 63.34511195 55.11746487 63.36364174 56.59336472 C63.38797195 58.65953411 63.38708075 60.72425878 63.38012695 62.79052734 C63.38599319 63.96586029 63.39185944 65.14119324 63.39790344 66.35214233 C62.80585026 70.00722102 61.8544411 71.17826304 58.91015625 73.36328125 C55.4140625 73.9296875 55.4140625 73.9296875 51.47265625 73.92578125 C50.17457031 73.94769531 48.87648438 73.96960938 47.5390625 73.9921875 C41.3272852 72.91565774 38.99887937 68.57499376 35.5 63.72265625 C31.91926268 58.4886004 28.66157435 53.09247528 25.47265625 47.61328125 C24.91352539 46.65969727 24.35439453 45.70611328 23.77832031 44.72363281 C12.19303837 24.92904548 12.19303837 24.92904548 9.91015625 20.36328125 C9.58015625 37.52328125 9.25015625 54.68328125 8.91015625 72.36328125 C6.0438183 73.79645023 3.53780124 73.49528486 0.34765625 73.48828125 C-1.41771484 73.49214844 -1.41771484 73.49214844 -3.21875 73.49609375 C-6.08984375 73.36328125 -6.08984375 73.36328125 -7.08984375 72.36328125 C-7.19989809 70.2321442 -7.23897947 68.09732201 -7.25097656 65.96337891 C-7.25594147 65.29505539 -7.26090637 64.62673187 -7.26602173 63.93815613 C-7.28067726 61.71787502 -7.28745116 59.49766537 -7.29296875 57.27734375 C-7.29871772 55.73896278 -7.30447548 54.20058184 -7.3102417 52.66220093 C-7.32076155 49.43234929 -7.32659766 46.20252262 -7.33007812 42.97265625 C-7.33556291 38.8307308 -7.35958615 34.6891341 -7.38805008 30.54731178 C-7.40666038 27.36804232 -7.4118812 24.18885226 -7.413414 21.00953293 C-7.41644506 19.48247863 -7.42448886 17.95542587 -7.43759918 16.42842484 C-7.45462576 14.29268554 -7.45278824 12.157752 -7.44628906 10.02197266 C-7.44993469 8.80587311 -7.45358032 7.58977356 -7.45733643 6.33682251 C-7.08984375 3.36328125 -7.08984375 3.36328125 -5.68815613 1.47038269 C-3.66466251 0.06877138 -2.4498333 -0.0102434 0 0 Z " fill="#FDF5F5" transform="translate(703.08984375,432.63671875)"/>
<path d="M0 0 C25.08 0 50.16 0 76 0 C76 7.59 76 15.18 76 23 C67.75 23 59.5 23 51 23 C51 44.78 51 66.56 51 89 C42.75 89 34.5 89 26 89 C26 67.22 26 45.44 26 23 C17.42 23 8.84 23 0 23 C0 15.41 0 7.82 0 0 Z " fill="#FDFDFD" transform="translate(470,321)"/>
<path d="M0 0 C9.24 0 18.48 0 28 0 C32.75 9.5625 32.75 9.5625 34.22167969 12.53344727 C36.16259165 16.42751046 38.12216488 20.27584985 40.328125 24.02734375 C42 27 42 27 42 29 C44.96865509 26.45543849 46.3619751 23.51005335 48 20 C48.66 20 49.32 20 50 20 C50.25523437 18.98808594 50.51046875 17.97617187 50.7734375 16.93359375 C52.51946107 10.82251126 55.92381662 5.52573682 59 0 C68.24 0 77.48 0 87 0 C86.34 1.65 85.68 3.3 85 5 C84.34 5 83.68 5 83 5 C82.71946777 5.73395996 82.43893555 6.46791992 82.14990234 7.22412109 C80.34955815 11.57017492 77.95963736 15.54780324 75.625 19.625 C75.10059326 20.56811035 74.57618652 21.5112207 74.03588867 22.48291016 C71.4792672 27.01204324 68.92769535 31.24978005 65.57421875 35.234375 C53.0249228 50.76112541 55.51003035 70.03252111 56 89 C47.75 89 39.5 89 31 89 C31.18755859 85.38998047 31.18755859 85.38998047 31.37890625 81.70703125 C32.22083981 57.01491916 27.61046394 41.85144537 13 22 C11.71481477 20.18599085 10.43447452 18.36853447 9.16015625 16.546875 C8.32097656 15.34853027 8.32097656 15.34853027 7.46484375 14.12597656 C5.74617154 11.6316103 4.11910733 9.09856399 2.5625 6.5 C2.06878906 5.6853125 1.57507813 4.870625 1.06640625 4.03125 C0 2 0 2 0 0 Z " fill="#F9F9F9" transform="translate(931,321)"/>
<path d="M0 0 C0.80972763 0.00142502 1.61945526 0.00285004 2.45372009 0.00431824 C3.83008385 -0.00029671 3.83008385 -0.00029671 5.23425293 -0.00500488 C6.22698715 0.00218063 7.21972137 0.00936615 8.24253845 0.01676941 C9.7662632 0.01745674 9.7662632 0.01745674 11.32077026 0.01815796 C13.47024197 0.0211822 15.61971145 0.0290736 17.76914978 0.04142761 C21.07220662 0.05968192 24.37498332 0.06193736 27.67808533 0.06169128 C29.76207214 0.06660637 31.84605705 0.07243465 33.93003845 0.07926941 C35.42217613 0.08093864 35.42217613 0.08093864 36.94445801 0.0826416 C37.85888168 0.08902145 38.77330536 0.09540131 39.71543884 0.10197449 C40.9288369 0.10769218 40.9288369 0.10769218 42.16674805 0.11352539 C44.0198822 0.24723816 44.0198822 0.24723816 45.0198822 1.24723816 C45.11812157 2.91152867 45.14961851 4.58005747 45.1448822 6.24723816 C45.14874939 7.60848816 45.14874939 7.60848816 45.1526947 8.99723816 C45.0198822 11.24723816 45.0198822 11.24723816 44.0198822 12.24723816 C41.72836803 12.33514791 39.43415696 12.35417854 37.14097595 12.34489441 C36.11098228 12.34277199 36.11098228 12.34277199 35.06018066 12.34060669 C32.85920419 12.33499295 30.65832811 12.32243823 28.4573822 12.30973816 C26.96845138 12.30472492 25.47951896 12.30016171 23.99058533 12.29606628 C20.33361415 12.28586837 16.67686103 12.26629595 13.0198822 12.24723816 C13.0198822 17.85723816 13.0198822 23.46723816 13.0198822 29.24723816 C15.80039001 29.21243347 15.80039001 29.21243347 18.6370697 29.17692566 C21.05633652 29.15817165 23.47560768 29.13997106 25.8948822 29.12223816 C27.11820251 29.10548035 28.34152283 29.08872253 29.60191345 29.07145691 C30.76851501 29.0650116 31.93511658 29.05856628 33.1370697 29.05192566 C34.21585388 29.04145203 35.29463806 29.03097839 36.40611267 29.02018738 C39.0198822 29.24723816 39.0198822 29.24723816 41.0198822 31.24723816 C41.25035095 33.12223816 41.25035095 33.12223816 41.2073822 35.24723816 C41.20093689 35.94848816 41.19449158 36.64973816 41.18785095 37.37223816 C41.0198822 39.24723816 41.0198822 39.24723816 40.0198822 41.24723816 C31.1098822 41.24723816 22.1998822 41.24723816 13.0198822 41.24723816 C13.0198822 47.84723816 13.0198822 54.44723816 13.0198822 61.24723816 C15.24609314 61.2356366 17.47230408 61.22403503 19.76597595 61.21208191 C21.91384234 61.20429094 24.06170717 61.19821441 26.20957947 61.19230652 C27.70633139 61.18726695 29.20307836 61.18043529 30.69981384 61.17179871 C32.84688027 61.15971657 34.99388182 61.15400625 37.14097595 61.14958191 C39.08121643 61.14172668 39.08121643 61.14172668 41.06065369 61.13371277 C44.0198822 61.24723816 44.0198822 61.24723816 45.0198822 62.24723816 C45.11812157 63.91152867 45.14961851 65.58005747 45.1448822 67.24723816 C45.14874939 68.60848816 45.14874939 68.60848816 45.1526947 69.99723816 C45.0198822 72.24723816 45.0198822 72.24723816 44.0198822 73.24723816 C42.58816846 73.35574223 41.15120711 73.39625199 39.71543884 73.40837097 C38.34380333 73.42278229 38.34380333 73.42278229 36.94445801 73.43748474 C35.45232033 73.44385956 35.45232033 73.44385956 33.93003845 73.45036316 C32.91517868 73.45606323 31.90031891 73.46176331 30.85470581 73.46763611 C28.70347644 73.47710146 26.55223247 73.48362616 24.40098572 73.48747253 C21.0998677 73.4971867 17.79936976 73.52819943 14.49839783 73.55973816 C12.41311508 73.5662669 10.32782787 73.57151788 8.24253845 73.57536316 C7.24980423 73.58770996 6.25707001 73.60005676 5.23425293 73.61277771 C4.31667709 73.60977661 3.39910126 73.60677551 2.45372009 73.60368347 C1.64399246 73.6073291 0.83426483 73.61097473 0 73.61473083 C-0.65343887 73.49345825 -1.30687775 73.37218567 -1.9801178 73.24723816 C-4.38711353 69.63674456 -4.23319019 67.99064247 -4.23890686 63.69621277 C-4.24416382 62.70551033 -4.24416382 62.70551033 -4.24952698 61.6947937 C-4.2583255 59.51294935 -4.25250263 57.33142952 -4.2457428 55.14958191 C-4.24708983 53.63408343 -4.24903068 52.11858538 -4.25154114 50.60308838 C-4.25448971 47.42803327 -4.25020278 44.25309073 -4.24085999 41.07804871 C-4.2294558 37.00339538 -4.23603259 32.92900524 -4.24800491 28.85436153 C-4.25522246 25.72573859 -4.25293626 22.59717834 -4.24774933 19.46855354 C-4.24641304 17.96581046 -4.24805983 16.46306173 -4.25270844 14.96032524 C-4.25777309 12.86301909 -4.25006522 10.76614303 -4.23890686 8.66886902 C-4.23652008 6.87708473 -4.23652008 6.87708473 -4.23408508 5.04910278 C-3.93818287 1.78459593 -3.4092871 0.42568471 0 0 Z " fill="#FDF6F6" transform="translate(787.9801177978516,432.7527618408203)"/>
<path d="M0 0 C1.18251343 0.01087646 1.18251343 0.01087646 2.38891602 0.02197266 C9.47368207 0.1904657 15.04781287 1.36520858 21.0625 5.375 C21.35546875 7.9765625 21.35546875 7.9765625 21.25 11 C21.20939453 12.50433594 21.20939453 12.50433594 21.16796875 14.0390625 C21.13316406 14.80992187 21.09835937 15.58078125 21.0625 16.375 C17.5194322 15.94115496 14.2684712 15.44365707 10.875 14.3125 C5.18827228 12.91412433 -1.98736079 11.68213488 -7.265625 14.7109375 C-9.21686241 16.34052167 -9.21686241 16.34052167 -9.5 19.3125 C-9.22241796 22.47539877 -9.22241796 22.47539877 -6.91796875 24.359375 C-3.32857302 26.78680383 0.27231412 28.18225435 4.3125 29.6875 C13.02536559 33.10427361 20.81747153 37.28891444 26.0625 45.375 C27.70143178 49.47232944 27.74881987 54.15429622 26.44921875 58.359375 C23.13011596 65.90411966 16.69217203 71.38947616 9.0625 74.375 C-1.8868028 76.6621877 -16.10955117 77.39438643 -25.9375 71.375 C-28.44612075 68.69987788 -29.34053987 66.91338257 -29.25 63.25 C-28.9375 59.375 -28.9375 59.375 -26.9375 57.375 C-24.52761164 57.71541024 -22.36179261 58.56924274 -20.0546875 59.34765625 C-11.90114541 62.08842522 -4.72203432 64.16920037 3.5625 61.0625 C6.28172531 59.45707479 6.28172531 59.45707479 8.0625 56.375 C7.89860563 52.14229577 7.89860563 52.14229577 5.4609375 48.8671875 C2.4011459 46.96353865 -0.82622828 45.74980503 -4.1875 44.5 C-13.06416031 41.05027734 -20.40016965 37.46065192 -25.9375 29.375 C-27.68748045 24.12505866 -28.07466424 18.22498837 -25.99609375 13.015625 C-20.0576198 3.11196311 -11.11932194 -0.20158737 0 0 Z " fill="#FDF4F4" transform="translate(991.9375,431.625)"/>
<path d="M0 0 C21.02208075 -0.07830426 42.03598123 0.13778854 63.05593657 0.40385818 C67.60818385 0.46111899 72.16045454 0.5164569 76.71272278 0.57202148 C85.28604598 0.67694733 93.8593476 0.78353735 102.43264228 0.89076519 C112.21299358 1.01300589 121.99336819 1.13333057 131.77374494 1.25351524 C151.84918943 1.50025113 171.92460433 1.74932515 192 2 C191.36953485 6.75123736 190.77672775 8.90995003 187 12 C184.01529789 13.49235105 180.96503285 13.13863762 177.69238281 13.12939453 C176.55060609 13.13196778 176.55060609 13.13196778 175.38576317 13.13459301 C172.82486298 13.1389496 170.26402623 13.13594405 167.703125 13.1328125 C165.87690201 13.13404134 164.05067922 13.13561058 162.22445679 13.13749695 C156.23295604 13.14142105 150.2414935 13.1338562 144.25 13.125 C142.72420948 13.12309473 142.72420948 13.12309473 141.16759491 13.12115097 C128.36784597 13.10510857 115.56818821 13.07365764 102.76850319 13.03044605 C96.3285114 13.00906626 89.88854308 12.99350857 83.44852448 12.98311996 C73.35640224 12.96675675 63.26465299 12.93291727 53.17273712 12.8646965 C48.43610214 12.83284764 43.69976062 12.80884873 38.9630127 12.80499268 C34.51951179 12.80081228 30.07678952 12.77296279 25.63353348 12.72669411 C24.00920745 12.71376061 22.384789 12.70922956 20.76041794 12.71381187 C18.54462907 12.71869179 16.33121716 12.69288545 14.11572266 12.65942383 C12.87875641 12.65276199 11.64179016 12.64610016 10.36734009 12.63923645 C5.9416529 11.79908948 4.00836264 10.3284389 1 7 C0.125 3.1875 0.125 3.1875 0 0 Z " fill="#EB3338" transform="translate(284,200)"/>
<path d="M0 0 C0.54032583 30.64848195 0.54032583 30.64848195 -9 41 C-17.05838445 48.16750778 -25.88738398 51.6502199 -36.68359375 51.2109375 C-42.24294312 50.70468983 -45.64693379 49.74994877 -49.375 45.5625 C-53.89369415 39.96850163 -53.59775723 33.91816086 -53 27 C-51.52704641 20.99870934 -48.12213698 17.86637446 -43.06518555 14.60546875 C-36.29667967 11.06029196 -28.88601954 8.99418538 -21.625 6.6875 C-19.95661906 6.14645168 -18.28864615 5.60414347 -16.62109375 5.06054688 C-13.58398244 4.07253523 -10.5448631 3.09140881 -7.50244141 2.11987305 C-0.87246566 0 -0.87246566 0 0 0 Z " fill="#F9F9F9" transform="translate(607,211)"/>
<path d="M0 0 C5.21045586 2.02628839 7.93021491 4.01593742 10.55859375 8.890625 C12.68109673 13.95745574 12.43737006 19.08766439 12.375 24.5 C12.38660156 25.50675781 12.39820313 26.51351563 12.41015625 27.55078125 C12.3777493 35.79294852 10.93696485 41.88841854 5 48 C0.71914544 50.56851274 -4.14332062 50.70237691 -9 50 C-12.96730869 47.94287698 -15.65505712 45.79657418 -18 42 C-18.51433594 41.20335937 -19.02867187 40.40671875 -19.55859375 39.5859375 C-21.59314671 34.52436673 -21.43646895 29.90243754 -21.375 24.5 C-21.38660156 23.48035156 -21.39820313 22.46070313 -21.41015625 21.41015625 C-21.38465841 14.87420926 -20.91279106 10.09443505 -16.24609375 5.13671875 C-15.64925781 4.65847656 -15.05242188 4.18023437 -14.4375 3.6875 C-13.83808594 3.19636719 -13.23867188 2.70523437 -12.62109375 2.19921875 C-8.6791435 -0.71687456 -4.74393384 -0.45522597 0 0 Z " fill="#E9353A" transform="translate(629,341)"/>
<path d="M0 0 C192.06 0 384.12 0 582 0 C581.67 0.99 581.34 1.98 581 3 C466.16 3 351.32 3 233 3 C233 2.67 233 2.34 233 2 C117.665 1.505 117.665 1.505 0 1 C0 0.67 0 0.34 0 0 Z " fill="#FBF3F3" transform="translate(451,422)"/>
<path d="M0 0 C14.03448276 0 14.03448276 0 19 3 C24.99847934 9.31418878 24.21416638 15.55733053 24.25 23.8125 C24.270625 24.98876953 24.29125 26.16503906 24.3125 27.37695312 C24.36165189 38.24566376 24.36165189 38.24566376 21 43 C14.00343519 49.47182245 10.7634342 48 0 48 C0 32.16 0 16.32 0 0 Z " fill="#262425" transform="translate(729,342)"/>
<path d="M0 0 C0.66 0.33 1.32 0.66 2 1 C1.94199219 2.04414063 1.88398438 3.08828125 1.82421875 4.1640625 C1.3594466 16.74331631 2.26868863 31.53737726 8 43 C22.85 43.33 37.7 43.66 53 44 C53 44.33 53 44.66 53 45 C29.57 45 6.14 45 -18 45 C-18 42.69 -18 40.38 -18 38 C-16.7625 37.7525 -15.525 37.505 -14.25 37.25 C-10.44223364 36.32160467 -8.59593658 34.99531144 -6 32 C-5.34 32 -4.68 32 -4 32 C-4.15176245 24.89475804 -4.81414445 22.04938567 -10 17 C-10.32179491 11.31495653 -7.92501752 7.98953246 -4.5703125 3.69921875 C-3 2 -3 2 0 0 Z " fill="#45494B" transform="translate(310,144)"/>
<path d="M0 0 C25.08 0 50.16 0 76 0 C76 7.59 76 15.18 76 23 C67.75 23 59.5 23 51 23 C51 44.78 51 66.56 51 89 C42.75 89 34.5 89 26 89 C26 67.22 26 45.44 26 23 C17.42 23 8.84 23 0 23 C0 15.41 0 7.82 0 0 Z M2 2 C2 8.27 2 14.54 2 21 C9.92 21 17.84 21 26 21 C26.33 43.11 26.66 65.22 27 88 C34.59 88 42.18 88 50 88 C50.33 66.22 50.66 44.44 51 22 C58.92 21.67 66.84 21.34 75 21 C75 14.73 75 8.46 75 2 C50.91 2 26.82 2 2 2 Z " fill="#C1C0C1" transform="translate(470,321)"/>
<path d="M0 0 C2.65683189 1.49748707 4.84652751 2.84652751 7 5 C7.51252731 10.87435144 7.95741335 16.25110398 4 21 C2.28310511 22.71689489 0.09121863 22.25303054 -2.25 22.3125 C-6.05748106 22.27793143 -7.69902971 22.17198302 -11.0625 20.25 C-13.95707467 16.88855845 -14.86100675 15.07223365 -15.4375 10.625 C-14.85694294 5.8146701 -13.38607407 4.38607407 -10 1 C-6.79148762 -0.60425619 -3.48064156 -0.49077692 0 0 Z " fill="#A6A8AC" transform="translate(401,220)"/>
<path d="M0 0 C3.19010589 1.52255054 5.77616779 3.24816294 8 6 C8.80314087 9.75963047 8.75865348 13.23422005 8 17 C5.68111903 20.29562174 2.81463256 21.62337815 -1.0703125 22.4296875 C-4.64821858 22.660959 -6.82709321 22.10524761 -9.875 20.25 C-13.02630793 16.91332102 -13.87313941 15.16288877 -14.375 10.5625 C-13.93579229 6.39002679 -12.92952192 4.92952192 -10 2 C-6.27420911 -0.48386059 -4.41288598 -0.3804212 0 0 Z " fill="#A4A6AA" transform="translate(434,220)"/>
<path d="M0 0 C3.61403506 2.93640349 5.7819674 5.08131311 6.3125 9.75 C5.91993628 13.83266269 4.53100884 15.81816032 2 19 C-2.00701694 21.67134463 -5.28876296 21.82653281 -10 21 C-13.28175318 18.47031526 -14.69243777 16.92268669 -16 13 C-16.66611433 7.11599006 -16.66611433 7.11599006 -14.953125 4.24609375 C-10.33880017 -1.38609685 -6.82992803 -1.75761533 0 0 Z " fill="#A3A6A9" transform="translate(402,250)"/>
<path d="M0 0 C3.70390021 2.02666238 5.65363011 3.48044516 8 7 C8.48256365 11.26264558 8.26873267 13.49132744 6.25 17.3125 C3.06757519 21.11372964 1.50776762 21.80454864 -3.375 22.4375 C-8.20918218 21.85406422 -9.63062001 20.44960332 -13 17 C-14.21762731 13.34711807 -14.39075851 10.84245864 -14 7 C-10.38566438 0.94463921 -6.9253044 -0.5771087 0 0 Z " fill="#A4A6AA" transform="translate(332,219)"/>
<path d="M0 0 C3.33291305 1.70461965 6.30251153 3.60502305 8 7 C8.67660495 12.86390959 8.67660495 12.86390959 6.953125 15.7578125 C4.49348454 18.75278647 2.70016774 20.78935975 -1.20703125 21.2734375 C-5.63020223 21.44585496 -8.25939041 21.44436576 -12.125 19.125 C-14.76174026 14.7304329 -14.91219098 11.00472351 -14 6 C-10.47878255 0.24867817 -6.61899722 -1.09522976 0 0 Z " fill="#A5A6AA" transform="translate(367,161)"/>
<path d="M0 0 C3.76110572 0.02155361 5.955079 0.3286021 8.875 2.75 C12.91006208 7.09545147 12.40497132 9.64177838 12.3125 15.375 C11.6525 15.375 10.9925 15.375 10.3125 15.375 C10.044375 15.99375 9.77625 16.6125 9.5 17.25 C8.3125 19.375 8.3125 19.375 5.3125 21.375 C0.67312241 22.20035744 -2.70087387 22.01219604 -6.6875 19.4375 C-9.29029213 15.45197454 -10.1468145 12.12681727 -9.6875 7.375 C-6.91520825 2.20005541 -5.7411981 0.22312579 0 0 Z " fill="#A5A6AA" transform="translate(361.6875,219.625)"/>
<path d="M0 0 C4.07038944 1.10562481 6.90318881 3.10718015 9.2578125 6.61328125 C10.12892464 10.50034466 9.51373862 13.8455029 8.2578125 17.61328125 C6.01291427 20.14784377 4.23979353 21.43591193 0.87890625 22.04296875 C-3.80265398 22.28018641 -6.01205857 22.17950369 -9.8046875 19.23828125 C-12.84456762 15.11973399 -13.33554117 12.78393468 -12.7421875 7.61328125 C-9.89644789 2.00869484 -6.33793726 -0.54785559 0 0 Z " fill="#A5A7AB" transform="translate(399.7421875,131.38671875)"/>
<path d="M0 0 C4.51060605 0.07776907 7.63725035 0.70139578 11.14453125 3.6171875 C13.24886655 6.62338079 13.25191568 9.41449071 13.01171875 12.99609375 C11.9344101 17.02113036 9.85762429 18.21577294 6.375 20.375 C3.27451072 21.92524464 0.79605782 21.66492015 -2.625 21.375 C-6.0371353 19.25189359 -8.37448744 17.24022064 -9.625 13.375 C-10.3129834 8.10046059 -8.81188757 5.52761108 -5.625 1.375 C-4.00219061 -0.24780939 -2.23832134 0.0879099 0 0 Z " fill="#A5A7AB" transform="translate(430.625,132.625)"/>
<path d="M0 0 C3.45536091 0.03851517 4.66420015 0.26245009 7.75 2.0625 C9.83363667 4.40659126 10.48747199 5.24967327 10.75 8.3125 C10.87375 9.42625 10.9975 10.54 11.125 11.6875 C10.62447618 16.52589688 9.14639916 17.91610084 5.75 21.3125 C2.60088521 22.88705739 0.22991184 22.66049118 -3.25 22.3125 C-6.72998516 20.30957521 -8.9568445 18.19196651 -10.25 14.3125 C-10.75474898 9.09676052 -10.75474898 9.09676052 -10.25 6.3125 C-7.8125 3.375 -7.8125 3.375 -5.25 1.3125 C-3.69014791 -0.24735209 -2.16093902 0.06797656 0 0 Z " fill="#A5A7AA" transform="translate(362.25,248.6875)"/>
<path d="M0 0 C0 0.66 0 1.32 0 2 C0.61875 2.268125 1.2375 2.53625 1.875 2.8125 C4 4 4 4 6 7 C6.43660384 10.30571478 6.71042728 12.81419387 4.94921875 15.75390625 C3.16506981 17.93804138 1.54181233 19.72909383 -1 21 C-6.24768331 21.34411038 -9.81689172 21.5679453 -14 18 C-16.30706834 14.329664 -16.23782759 11.08231488 -15.515625 6.9375 C-13.27776807 -1.47141696 -7.37122361 -0.57190528 0 0 Z " fill="#A5A7AB" transform="translate(437,162)"/>
<path d="M0 0 C3.20267069 0.82136087 5.448146 2.4168886 7.96484375 4.50390625 C9.82210991 8.21843857 9.54985464 12.4597005 8.96484375 16.50390625 C6.77461457 19.32814913 5.13467168 20.91899228 1.96484375 22.50390625 C-3.04211175 22.73015375 -6.20445391 22.19898372 -10.09765625 18.94140625 C-12.3441057 14.95577014 -13.21360278 11.92096124 -12.03515625 7.50390625 C-9.29047598 2.22413948 -6.07395304 -0.54793818 0 0 Z " fill="#A7A9AD" transform="translate(399.03515625,160.49609375)"/>
<path d="M0 0 C3.79944876 1.0063799 6.65993107 2.32678507 9.03515625 5.5390625 C10.12105145 9.72254338 9.90098364 13.49554572 8.2109375 17.484375 C5.93673408 20.7879547 3.38874141 22.02213789 -0.40234375 22.7265625 C-3.8956682 22.91318417 -5.7432512 22.43006876 -8.46484375 20.2265625 C-11.74827502 16.69687389 -12.44750799 14.59654456 -12.3671875 9.71484375 C-11.19147558 3.35686766 -6.4284672 -0.66885786 0 0 Z " fill="#A5A7AB" transform="translate(330.96484375,130.4609375)"/>
<path d="M0 0 C2.79943278 1.35045101 3.87679808 2.55831779 6 5 C6.75 8.25 6.75 8.25 7 11 C7.66 11.33 8.32 11.66 9 12 C7.06695667 13.65132849 5.12895263 15.29611041 3.1875 16.9375 C2.36668945 17.64036133 2.36668945 17.64036133 1.52929688 18.35742188 C-0.97214225 20.46469483 -2.86702907 21.95567636 -6 23 C-6 22.34 -6 21.68 -6 21 C-6.7425 20.95875 -7.485 20.9175 -8.25 20.875 C-11 20 -11 20 -13.3125 17.375 C-15.26011263 13.47977475 -15.54733267 11.30047094 -15 7 C-11.77519669 0.08970719 -7.1501018 -1.18153301 0 0 Z " fill="#A5A7AB" transform="translate(435,250)"/>
<path d="M0 0 C3.05533136 1.27926476 3.81524971 2.25505733 6 5 C6.92479462 9.26176185 6.43787653 12.81515763 4.9375 16.875 C2.24432643 19.82880327 -0.18332764 20.88132017 -4 22 C-8.66298508 21.30055224 -11.34938282 17.86462719 -14.44921875 14.55859375 C-15.93510225 12.89969455 -15.93510225 12.89969455 -18 12 C-13.96629078 3.26029669 -9.95351782 -1.59120863 0 0 Z " fill="#A6A8AB" transform="translate(333,249)"/>
<path d="M0 0 C3.98941187 0.86992286 6.92384322 2.06733514 9.29296875 5.5 C10.17090474 9.32893375 10.15483972 12.66880642 9.29296875 16.5 C5.99179927 20.148661 3.34046926 21.4141393 -1.51953125 21.8125 C-4.83930452 21.78232024 -5.69747646 21.5060988 -8.64453125 19.625 C-11.39839914 16.78768157 -11.91128675 15.11145254 -12.08203125 11.25 C-12.0230048 7.92842049 -11.67949124 5.68757984 -9.76953125 2.9375 C-6.21610375 0.10926179 -4.43401485 -0.35650371 0 0 Z " fill="#A6A8AC" transform="translate(330.70703125,160.5)"/>
<path d="M0 0 C3.69810446 2.87630347 5.08269104 4.43542958 5.6875 9.1875 C5.17659034 13.34776436 4.22607415 14.85659458 1.25 17.75 C-2.56495904 20.09828361 -5.302869 19.91322663 -9.625 19.2734375 C-11.75 18.75 -11.75 18.75 -14.25 17.25 C-16.46995814 13.55006977 -16.94908633 10.03801333 -16.75 5.75 C-15.54274538 2.76363331 -14.55179008 1.35134256 -12 -0.5625 C-7.71000398 -1.87333212 -4.09265926 -1.86029967 0 0 Z " fill="#A6A8AC" transform="translate(369.75,133.25)"/>
<path d="M0 0 C3.47914586 -0.0305642 6.95825592 -0.04728781 10.4375 -0.0625 C11.37271484 -0.07087891 12.30792969 -0.07925781 13.27148438 -0.08789062 C19.5102964 -0.10795111 25.71604471 0.0611136 31.94733524 0.34816837 C47.49331684 1.05266135 63.03445429 1.21293002 78.59334683 1.30332303 C82.28213661 1.32566041 85.97089144 1.35280835 89.65965271 1.37937927 C96.60033033 1.42867752 103.54102801 1.47384098 110.48174375 1.51740164 C118.40238945 1.56732257 126.32300001 1.62203156 134.24361145 1.67708123 C150.49570834 1.78993214 166.74783782 1.89697009 183 2 C180.5490061 4.4509939 179.21313087 4.23843781 175.86861324 4.25995922 C175.1504572 4.25433625 174.43230116 4.24871328 173.69238281 4.24291992 C172.55061883 4.24572071 172.55061883 4.24572071 171.38578892 4.24857807 C168.82480326 4.25224488 166.26408707 4.24138981 163.703125 4.23046875 C161.87676508 4.22973788 160.05040469 4.22979656 158.2240448 4.23059082 C153.26560682 4.22974283 148.30729188 4.21552154 143.3488884 4.19784164 C140.25970277 4.18753238 137.17052595 4.18033533 134.08132935 4.17422485 C120.13602921 4.14619961 106.1909943 4.08835134 92.24585724 4.01635742 C89.02684408 4.00013528 85.80782743 3.98521849 82.58880615 3.97070312 C70.438243 3.91509505 58.28805571 3.83975426 46.13781738 3.73452759 C42.33745822 3.70183625 38.53713511 3.67548725 34.73669434 3.65438843 C30.27389553 3.62892198 25.81147022 3.58881525 21.34890175 3.53700256 C19.71372138 3.52031701 18.07848105 3.50865515 16.44322777 3.50233459 C14.22013054 3.49281501 11.99800665 3.46502169 9.77514648 3.43237305 C7.90970436 3.41571846 7.90970436 3.41571846 6.00657654 3.39872742 C3 3 3 3 1.07655334 1.47297668 C0.72129074 0.98689438 0.36602814 0.50081207 0 0 Z " fill="#BE4347" transform="translate(288,209)"/>
<path d="M0 0 C27.39 0 54.78 0 83 0 C83 2.97 83 5.94 83 9 C82.34 9 81.68 9 81 9 C80.90203125 9.54527344 80.8040625 10.09054688 80.703125 10.65234375 C79.54000257 16.51809047 77.61460097 21.63118344 75 27 C71.125 25.25 71.125 25.25 70 23 C69.35426735 18.38762394 69.24153542 14.31285789 72.0625 10.4375 C75 8 75 8 78.8125 7.625 C79.864375 7.74875 80.91625 7.8725 82 8 C82 6.02 82 4.04 82 2 C81.17917938 2.0169693 80.35835876 2.0339386 79.51266479 2.05142212 C71.71764487 2.21054264 63.92252542 2.35861859 56.12707329 2.49477577 C52.12086802 2.56512569 48.11482834 2.63951072 44.10888672 2.72363281 C40.23161304 2.80489588 36.35427476 2.87488676 32.47665787 2.93757248 C31.00887881 2.96318425 29.54116066 2.99262886 28.07354355 3.02626419 C18.49397879 3.24256988 9.44528334 2.661697 0 1 C0 0.67 0 0.34 0 0 Z " fill="#684A4E" transform="translate(385,213)"/>
<path d="M0 0 C2 1 2 1 2.86962891 3.45263672 C3.15241699 4.51756348 3.43520508 5.58249023 3.7265625 6.6796875 C4.0359375 7.83597656 4.3453125 8.99226563 4.6640625 10.18359375 C4.98117187 11.40175781 5.29828125 12.61992187 5.625 13.875 C5.94984375 15.08542969 6.2746875 16.29585938 6.609375 17.54296875 C9 26.57310268 9 26.57310268 9 30 C3.72 30 -1.56 30 -7 30 C-6.39737656 25.78163595 -5.81965315 21.88850368 -4.84375 17.79296875 C-4.62589844 16.87708984 -4.40804687 15.96121094 -4.18359375 15.01757812 C-3.95800781 14.08365234 -3.73242188 13.14972656 -3.5 12.1875 C-3.27441406 11.23423828 -3.04882812 10.28097656 -2.81640625 9.29882812 C-1.13053784 2.26107568 -1.13053784 2.26107568 0 0 Z " fill="#E7383C" transform="translate(857,346)"/>
<path d="M0 0 C0.62572422 7.97798378 0.62572422 7.97798378 -1.875 12.0625 C-4 14 -4 14 -6 14 C-6 14.66 -6 15.32 -6 16 C-9.40197299 16.35671173 -12.60758267 16.4987321 -16 16 C-19.97661895 12.52045842 -21.67221678 9.06971774 -23 4 C-15.36253205 1.80405533 -8.0211007 -0.24306366 0 0 Z " fill="#A4A5A9" transform="translate(375,108)"/>
<path d="M0 0 C8.26082413 1.01177241 16.11962476 2.276368 24 5 C23.01 5.33 22.02 5.66 21 6 C20.9175 6.7425 20.835 7.485 20.75 8.25 C19.79654283 11.74600961 18.97964239 12.91425032 16 15 C11.16383927 16.43429862 8.0260663 16.53135576 3.5 14.1875 C1 12 1 12 0 10 C-0.06996014 8.29297265 -0.08440154 6.58331997 -0.0625 4.875 C-0.05347656 3.96492188 -0.04445313 3.05484375 -0.03515625 2.1171875 C-0.02355469 1.41851562 -0.01195312 0.71984375 0 0 Z " fill="#A6A8AC" transform="translate(388,108)"/>
<path d="M0 0 C0.8971875 1.1446875 0.8971875 1.1446875 1.8125 2.3125 C3.77677512 4.90451676 3.77677512 4.90451676 5.625 6.34375 C7.54347858 8.65464465 7.30264576 10.23209205 7.1875 13.1875 C7.16042969 14.08855469 7.13335937 14.98960937 7.10546875 15.91796875 C7.07066406 16.60503906 7.03585937 17.29210937 7 18 C6.34 18 5.68 18 5 18 C4.7525 18.61875 4.505 19.2375 4.25 19.875 C2.72778828 22.46275992 1.83222025 23.05592658 -1 24 C-4.25 24.125 -4.25 24.125 -7 24 C-6.50237871 15.70631191 -3.71186943 7.42373886 0 0 Z " fill="#A5A7AA" transform="translate(299,158)"/>
<path d="M0 0 C2.19202046 3.28803068 3.04258616 6.08254261 4.125 9.875 C4.47820312 11.08929688 4.83140625 12.30359375 5.1953125 13.5546875 C5.89353035 16.5441445 6.1736106 18.95602755 6 22 C6.66 22 7.32 22 8 22 C8 24.97 8 27.94 8 31 C7.67 31 7.34 31 7 31 C7 28.36 7 25.72 7 23 C5.783125 22.938125 4.56625 22.87625 3.3125 22.8125 C-1.17383464 22.27159441 -3.14764741 20.54383201 -6 17 C-7.57455739 13.85088521 -7.34799118 11.47991184 -7 8 C-5.56855892 5.54839009 -4.06758347 4.01835529 -2 2 C-1.34 2 -0.68 2 0 2 C0 1.34 0 0.68 0 0 Z " fill="#A6A7AB" transform="translate(462,161)"/>
<path d="M0 0 C0.80972763 0.00142502 1.61945526 0.00285004 2.45372009 0.00431824 C3.83008385 -0.00029671 3.83008385 -0.00029671 5.23425293 -0.00500488 C6.22698715 0.00218063 7.21972137 0.00936615 8.24253845 0.01676941 C9.7662632 0.01745674 9.7662632 0.01745674 11.32077026 0.01815796 C13.47024197 0.0211822 15.61971145 0.0290736 17.76914978 0.04142761 C21.07220662 0.05968192 24.37498332 0.06193736 27.67808533 0.06169128 C29.76207214 0.06660637 31.84605705 0.07243465 33.93003845 0.07926941 C35.42217613 0.08093864 35.42217613 0.08093864 36.94445801 0.0826416 C37.85888168 0.08902145 38.77330536 0.09540131 39.71543884 0.10197449 C40.9288369 0.10769218 40.9288369 0.10769218 42.16674805 0.11352539 C44.0198822 0.24723816 44.0198822 0.24723816 45.0198822 1.24723816 C45.09193732 2.93332782 45.10374288 4.62224475 45.0823822 6.30973816 C45.07335876 7.22883972 45.06433533 8.14794128 45.05503845 9.09489441 C45.04343689 9.80516785 45.03183533 10.51544128 45.0198822 11.24723816 C44.6898822 11.24723816 44.3598822 11.24723816 44.0198822 11.24723816 C44.0198822 8.27723816 44.0198822 5.30723816 44.0198822 2.24723816 C37.78995617 2.34060734 31.56042644 2.44666348 25.33091736 2.56462097 C23.2105353 2.60296658 21.09008694 2.63780949 18.96958923 2.66911316 C15.92621622 2.71464282 12.88330188 2.77265655 9.8401947 2.83317566 C8.41200912 2.85050247 8.41200912 2.85050247 6.95497131 2.86817932 C5.63382828 2.89798386 5.63382828 2.89798386 4.28599548 2.9283905 C3.12017441 2.94837601 3.12017441 2.94837601 1.93080139 2.96876526 C-0.2190125 3.08763392 -0.2190125 3.08763392 -1.9801178 5.24723816 C-2.31276335 8.07962845 -2.31276335 8.07962845 -2.29896545 11.44108582 C-2.31883514 12.74228363 -2.33870483 14.04348145 -2.35917664 15.3841095 C-2.371054 16.80983815 -2.3827168 18.23556861 -2.3941803 19.66130066 C-2.41288454 21.11576954 -2.43245739 22.57022749 -2.4528656 24.02467346 C-2.50427174 27.85508285 -2.54385179 31.68552744 -2.58100891 35.51609802 C-2.62099561 39.42396313 -2.6721122 43.33168068 -2.7223053 47.23942566 C-2.81916489 54.90859539 -2.90353727 62.57783629 -2.9801178 70.24723816 C-3.3101178 70.24723816 -3.6401178 70.24723816 -3.9801178 70.24723816 C-4.02640018 61.41569828 -4.06196605 52.58419996 -4.08374214 43.75256538 C-4.09419206 39.65195058 -4.10837317 35.55141858 -4.1309967 31.45085144 C-4.1526822 27.49568235 -4.16467731 23.54059305 -4.16987228 19.58536911 C-4.17357579 18.0742403 -4.18080755 16.56311599 -4.19157791 15.05202103 C-4.20603603 12.94007584 -4.20809816 10.82846292 -4.20716858 8.71647644 C-4.2116098 7.51290497 -4.21605103 6.3093335 -4.22062683 5.06929016 C-3.94123558 1.79100726 -3.4241777 0.42754395 0 0 Z " fill="#FECBCD" transform="translate(787.9801177978516,432.7527618408203)"/>
<path d="M0 0 C0.83088638 -0.00953201 1.66177277 -0.01906403 2.51783752 -0.02888489 C3.40647995 -0.02797348 4.29512238 -0.02706207 5.21069336 -0.02612305 C6.13015244 -0.03040817 7.04961151 -0.0346933 7.99693298 -0.03910828 C9.9377256 -0.04484396 11.87853971 -0.04535745 13.81933594 -0.04101562 C16.7932579 -0.03784955 19.76619078 -0.0613453 22.73999023 -0.08666992 C24.62605669 -0.08894233 26.51212582 -0.08964668 28.39819336 -0.08862305 C29.28886002 -0.09783279 30.17952667 -0.10704254 31.09718323 -0.11653137 C31.92491745 -0.11030258 32.75265167 -0.10407379 33.60546875 -0.09765625 C34.696567 -0.09860039 34.696567 -0.09860039 35.80970764 -0.0995636 C38.31164872 0.3859763 39.20410815 1.27154319 40.73803711 3.2746582 C41.03100586 5.97387695 41.03100586 5.97387695 40.92553711 8.9621582 C40.88493164 10.45295898 40.88493164 10.45295898 40.84350586 11.97387695 C40.80870117 12.73313477 40.77389648 13.49239258 40.73803711 14.2746582 C37.11501298 16.57237697 34.22503465 16.43636862 30.00366211 16.2512207 C28.7081543 16.1996582 27.41264648 16.1480957 26.07788086 16.0949707 C24.71458854 16.03009883 23.35130739 15.96499168 21.98803711 15.8996582 C20.60917209 15.84138262 19.23026558 15.78408012 17.85131836 15.7277832 C14.47980903 15.58632127 11.10885497 15.43173662 7.73803711 15.2746582 C7.73803711 20.5546582 7.73803711 25.8346582 7.73803711 31.2746582 C7.40803711 31.2746582 7.07803711 31.2746582 6.73803711 31.2746582 C6.73803711 25.6646582 6.73803711 20.0546582 6.73803711 14.2746582 C22.08303711 13.7796582 22.08303711 13.7796582 37.73803711 13.2746582 C37.73803711 9.9746582 37.73803711 6.6746582 37.73803711 3.2746582 C22.55803711 2.9446582 7.37803711 2.6146582 -8.26196289 2.2746582 C-4.69115617 0.48925484 -3.67675844 0.02326338 0 0 Z " fill="#DC3D41" transform="translate(794.261962890625,430.725341796875)"/>
<path d="M0 0 C24.42 0 48.84 0 74 0 C73.34 1.32 72.68 2.64 72 4 C71.505 3.01 71.505 3.01 71 2 C47.24 2 23.48 2 -1 2 C-0.67 1.34 -0.34 0.68 0 0 Z " fill="#636262" transform="translate(955,116)"/>
<path d="M0 0 C8 0.76923077 8 0.76923077 11 4 C11.75 6.25 11.75 6.25 12 9 C12.12375 10.155 12.2475 11.31 12.375 12.5 C11.89751391 16.95653687 10.21322676 18.04018229 7 21 C6.01315119 18.62794139 5.0354245 16.25276513 4.0625 13.875 C3.78470703 13.20984375 3.50691406 12.5446875 3.22070312 11.859375 C1.61444624 7.91146651 0.5247835 4.26469631 0 0 Z " fill="#A7A9AD" transform="translate(293,219)"/>
<path d="M0 0 C0.78439453 0.00064453 1.56878906 0.00128906 2.37695312 0.00195312 C3.19228516 0.01806641 4.00761719 0.03417969 4.84765625 0.05078125 C5.65912109 0.04755859 6.47058594 0.04433594 7.30664062 0.04101562 C11.46484547 0.07853839 14.22687631 0.28156249 17.91015625 2.36328125 C17.58015625 3.02328125 17.25015625 3.68328125 16.91015625 4.36328125 C16.15605469 4.12158203 16.15605469 4.12158203 15.38671875 3.875 C12.02199469 3.17976522 8.70514218 3.1790571 5.28515625 3.17578125 C4.26421875 3.15741211 4.26421875 3.15741211 3.22265625 3.13867188 C1.45024869 3.1334177 -0.32164315 3.24112219 -2.08984375 3.36328125 C-5.22003578 6.49347328 -5.03787598 10.06711359 -5.21009827 14.36264038 C-5.20787766 15.41521027 -5.20565704 16.46778015 -5.20336914 17.55224609 C-5.20329361 18.75303802 -5.20321808 19.95382996 -5.20314026 21.19100952 C-5.19797897 22.47246857 -5.19281769 23.75392761 -5.1875 25.07421875 C-5.1856327 26.41085761 -5.18421027 27.74749717 -5.18321228 29.08413696 C-5.1794117 32.58577394 -5.16960266 36.08736881 -5.1585083 39.58898926 C-5.14824107 43.16869538 -5.14370332 46.74840837 -5.13867188 50.328125 C-5.12797797 57.33986269 -5.11040133 64.35156561 -5.08984375 71.36328125 C-1.12984375 71.69328125 2.83015625 72.02328125 6.91015625 72.36328125 C6.91015625 72.69328125 6.91015625 73.02328125 6.91015625 73.36328125 C4.76438988 73.39014063 2.6185298 73.40961213 0.47265625 73.42578125 C-0.72230469 73.43738281 -1.91726563 73.44898438 -3.1484375 73.4609375 C-6.08984375 73.36328125 -6.08984375 73.36328125 -7.08984375 72.36328125 C-7.19989809 70.2321442 -7.23897947 68.09732201 -7.25097656 65.96337891 C-7.25594147 65.29505539 -7.26090637 64.62673187 -7.26602173 63.93815613 C-7.28067726 61.71787502 -7.28745116 59.49766537 -7.29296875 57.27734375 C-7.29871772 55.73896278 -7.30447548 54.20058184 -7.3102417 52.66220093 C-7.32076155 49.43234929 -7.32659766 46.20252262 -7.33007812 42.97265625 C-7.33556291 38.8307308 -7.35958615 34.6891341 -7.38805008 30.54731178 C-7.40666038 27.36804232 -7.4118812 24.18885226 -7.413414 21.00953293 C-7.41644506 19.48247863 -7.42448886 17.95542587 -7.43759918 16.42842484 C-7.45462576 14.29268554 -7.45278824 12.157752 -7.44628906 10.02197266 C-7.44993469 8.80587311 -7.45358032 7.58977356 -7.45733643 6.33682251 C-7.08984375 3.36328125 -7.08984375 3.36328125 -5.68815613 1.47038269 C-3.66466251 0.06877138 -2.4498333 -0.0102434 0 0 Z " fill="#F8A9AC" transform="translate(703.08984375,432.63671875)"/>
<path d="M0 0 C0.33 1.32 0.66 2.64 1 4 C0.34 4 -0.32 4 -1 4 C-1.14695312 4.81791016 -1.14695312 4.81791016 -1.296875 5.65234375 C-2.45999743 11.51809047 -4.38539903 16.63118344 -7 22 C-10.875 20.25 -10.875 20.25 -12 18 C-12.64573265 13.38762394 -12.75846458 9.31285789 -9.9375 5.4375 C-7 3 -7 3 -3.1875 2.625 C-2.135625 2.74875 -1.08375 2.8725 0 3 C0 2.01 0 1.02 0 0 Z " fill="#A6A8AB" transform="translate(467,218)"/>
<path d="M0 0 C0.66 0 1.32 0 2 0 C2.04627979 9.22269206 2.08184694 18.44534434 2.10362434 27.66812706 C2.11407483 31.95034248 2.12825697 36.23247864 2.15087891 40.51464844 C2.17256238 44.64488126 2.18455909 48.77503769 2.18975449 52.90532303 C2.19345835 54.48343738 2.2006908 56.06154741 2.21146011 57.63962936 C2.22591549 59.84496951 2.22798048 62.04999142 2.22705078 64.25537109 C2.231492 65.51223724 2.23593323 66.76910339 2.24050903 68.0640564 C2 71 2 71 0 73 C-2.06298828 73.22705078 -2.06298828 73.22705078 -4.5703125 73.1953125 C-5.46621094 73.18886719 -6.36210938 73.18242187 -7.28515625 73.17578125 C-8.69087891 73.15064453 -8.69087891 73.15064453 -10.125 73.125 C-11.54232422 73.11146484 -11.54232422 73.11146484 -12.98828125 73.09765625 C-15.32577292 73.07404522 -17.66276123 73.04111516 -20 73 C-20 72.34 -20 71.68 -20 71 C-20.66 71 -21.32 71 -22 71 C-22.33 69.68 -22.66 68.36 -23 67 C-20.5 68.375 -20.5 68.375 -18 70 C-18 70.66 -18 71.32 -18 72 C-15.56077639 71.91299202 -13.12521586 71.80613998 -10.6875 71.6875 C-9.99720703 71.66494141 -9.30691406 71.64238281 -8.59570312 71.61914062 C-4.74397371 71.44061448 -4.74397371 71.44061448 -1.29789734 69.87944031 C0.64043975 67.07260132 0.35934965 64.80272081 0.34057617 61.41723633 C0.34101425 60.75355545 0.34145233 60.08987457 0.34190369 59.40608215 C0.33981519 57.21443161 0.31648268 55.02354799 0.29296875 52.83203125 C0.28737298 51.3117464 0.28310279 49.79145614 0.28010559 48.27116394 C0.26865524 44.27122035 0.23918672 40.27160394 0.20599365 36.27178955 C0.17529669 32.1897016 0.16160107 28.10756075 0.14648438 24.02539062 C0.11431695 16.01677699 0.0631186 8.00842921 0 0 Z " fill="#DC4B4D" transform="translate(765,434)"/>
<path d="M0 0 C3.0603333 1.7655769 5.50587755 3.50587755 8 6 C8 6.99 8 7.98 8 9 C1.4491015 8.54240047 -4.6753842 7.7899856 -11 6 C-8.66866435 0.61999466 -5.77124365 -0.67896984 0 0 Z " fill="#9C9EA2" transform="translate(365,278)"/>
<path d="M0 0 C3 1.375 3 1.375 5 3 C5 3.66 5 4.32 5 5 C2.77228658 5.50643553 0.54275924 6.0048962 -1.6875 6.5 C-3.54955078 6.91765625 -3.54955078 6.91765625 -5.44921875 7.34375 C-8.42398218 7.89354126 -10.99368602 8.13795705 -14 8 C-13.12269491 5.29497597 -12.28331029 3.31599994 -10.375 1.1875 C-6.9476667 -0.52616665 -3.71594638 -0.55923153 0 0 Z " fill="#A7A9AD" transform="translate(400,279)"/>
<path d="M0 0 C1.53617912 4.09647766 0.69045256 7.78823937 0 12 C-0.33 12.33 -0.66 12.66 -1 13 C-1.28462489 17.32629827 -1.23195828 21.6654762 -1.25 26 C-1.270625 27.20785156 -1.29125 28.41570312 -1.3125 29.66015625 C-1.33999961 35.9781916 -1.06128343 41.33666033 1.33422852 47.22436523 C2.19732727 49.52627842 2.23531675 51.5683936 2 54 C-5.74032466 45.34904891 -4.73175109 28.1978518 -4.18603516 17.21386719 C-3.69617235 11.38437128 -2.6290694 5.25813881 0 0 Z " fill="#DB5154" transform="translate(45,143)"/>
<path d="M0 0 C1.0927862 3.27835859 0.84585871 3.84123507 0 7 C-0.09079785 8.69997556 -0.13064364 10.40307149 -0.1328125 12.10546875 C-0.13410156 13.08966797 -0.13539063 14.07386719 -0.13671875 15.08789062 C-0.13285156 16.11076172 -0.12898437 17.13363281 -0.125 18.1875 C-0.12886719 19.19103516 -0.13273438 20.19457031 -0.13671875 21.22851562 C-0.12890394 27.23419898 0.2208045 33.04472008 1 39 C-2.05221988 36.22249005 -2.41307903 34.64918961 -2.625 30.5 C-2.8022645 27.35988607 -3.00005143 24.99984571 -4 22 C-4.44176222 15.22631261 -3.12229946 8.66365301 -2 2 C-1.34 2 -0.68 2 0 2 C0 1.34 0 0.68 0 0 Z " fill="#E04448" transform="translate(585,346)"/>
<path d="M0 0 C16.36257619 -0.14374476 32.65587063 0.2161489 49 1 C49 1.33 49 1.66 49 2 C42.50437119 2.21882733 36.00834267 2.41378655 29.51147461 2.59204102 C27.30069719 2.65553084 25.09007055 2.72451567 22.87963867 2.79907227 C19.70515005 2.90519719 16.53064641 2.99164919 13.35546875 3.07421875 C12.36475876 3.11157639 11.37404877 3.14893402 10.35331726 3.18742371 C9.43258926 3.20767105 8.51186127 3.2279184 7.56323242 3.2487793 C6.7527092 3.27320602 5.94218597 3.29763275 5.10710144 3.32279968 C2.49802776 2.92309982 1.64264315 2.0072669 0 0 Z " fill="#DA383E" transform="translate(288,209)"/>
<path d="M0 0 C2 2 2 2 2.1953125 3.9453125 C2.13020833 5.96354167 2.06510417 7.98177083 2 10 C-1.62302413 12.29771877 -4.51300246 12.16171042 -8.734375 11.9765625 C-10.02988281 11.925 -11.32539062 11.8734375 -12.66015625 11.8203125 C-14.02344857 11.75544062 -15.38672972 11.69033347 -16.75 11.625 C-18.12886502 11.56672442 -19.50777153 11.50942192 -20.88671875 11.453125 C-24.25822808 11.31166307 -27.62918214 11.15707841 -31 11 C-31 16.28 -31 21.56 -31 27 C-31.33 27 -31.66 27 -32 27 C-32 21.39 -32 15.78 -32 10 C-16.655 9.505 -16.655 9.505 -1 9 C-0.67 6.03 -0.34 3.06 0 0 Z " fill="#CD575A" transform="translate(833,435)"/>
<path d="M0 0 C10.23 0 20.46 0 31 0 C23.67297459 4.88468361 16.60896372 4.62792653 8 4 C5.0344761 3.27332063 2.754144 2.34896849 0 1 C0 0.67 0 0.34 0 0 Z " fill="#EA6F72" transform="translate(143,293)"/>
<path d="M0 0 C0.86584717 0.16226074 1.73169434 0.32452148 2.6237793 0.49169922 C5.81765076 0.97254674 8.79386098 1.12920869 12.01953125 1.1328125 C13.6756543 1.13474609 13.6756543 1.13474609 15.36523438 1.13671875 C16.50283203 1.13285156 17.64042969 1.12898438 18.8125 1.125 C19.96943359 1.12886719 21.12636719 1.13273437 22.31835938 1.13671875 C23.41599609 1.13542969 24.51363281 1.13414062 25.64453125 1.1328125 C26.64846924 1.13168457 27.65240723 1.13055664 28.68676758 1.12939453 C30.96229116 1.2598794 30.96229116 1.2598794 32 0 C33.66617115 -0.04063832 35.33388095 -0.042721 37 0 C30.36118118 5.87280127 19.48024903 4.43606864 11.09619141 4.15820312 C7.0243321 3.85089299 3.70625235 2.64722327 0 1 C0 0.67 0 0.34 0 0 Z " fill="#FCC1C3" transform="translate(968,503)"/>
<path d="M0 0 C0.78761719 -0.00257813 1.57523438 -0.00515625 2.38671875 -0.0078125 C3.62228516 0.00378906 3.62228516 0.00378906 4.8828125 0.015625 C5.69878906 0.00789063 6.51476562 0.00015625 7.35546875 -0.0078125 C8.54076172 -0.00394531 8.54076172 -0.00394531 9.75 0 C10.4704248 0.00225586 11.19084961 0.00451172 11.93310547 0.00683594 C14.303681 0.30253023 15.94190843 1.09391821 18.0078125 2.265625 C17.6778125 2.925625 17.3478125 3.585625 17.0078125 4.265625 C16.25371094 4.02392578 16.25371094 4.02392578 15.484375 3.77734375 C12.11965094 3.08210897 8.80279843 3.08140085 5.3828125 3.078125 C4.361875 3.05975586 4.361875 3.05975586 3.3203125 3.04101562 C1.54790494 3.03576145 -0.2239869 3.14346594 -1.9921875 3.265625 C-4.5576469 5.8310844 -4.53264837 7.74249168 -4.9921875 11.265625 C-5.3221875 11.265625 -5.6521875 11.265625 -5.9921875 11.265625 C-6.04618486 9.80769616 -6.08497927 8.34919788 -6.1171875 6.890625 C-6.15199219 5.67246094 -6.15199219 5.67246094 -6.1875 4.4296875 C-5.81786167 0.33409484 -3.58416033 0.0112583 0 0 Z " fill="#FCC6C7" transform="translate(702.9921875,432.734375)"/>
<path d="M0 0 C9.24 0 18.48 0 28 0 C28.33 1.32 28.66 2.64 29 4 C28.34 3.67 27.68 3.34 27 3 C25.0406396 2.91489795 23.07837206 2.89282344 21.1171875 2.90234375 C19.36728516 2.90717773 19.36728516 2.90717773 17.58203125 2.91210938 C16.35871094 2.92048828 15.13539063 2.92886719 13.875 2.9375 C12.64394531 2.94201172 11.41289063 2.94652344 10.14453125 2.95117188 C7.09630608 2.9629867 4.04817686 2.97945972 1 3 C0.67 2.01 0.34 1.02 0 0 Z " fill="#BCBBBC" transform="translate(931,321)"/>
<path d="M0 0 C1.25554688 0.04898437 2.51109375 0.09796875 3.8046875 0.1484375 C5.06539062 0.18195313 6.32609375 0.21546875 7.625 0.25 C10.6796875 0.5234375 10.6796875 0.5234375 11.6796875 1.5234375 C11.50333298 4.21426622 11.06132829 6.85195196 10.6796875 9.5234375 C10.3496875 9.5234375 10.0196875 9.5234375 9.6796875 9.5234375 C9.6796875 7.2134375 9.6796875 4.9034375 9.6796875 2.5234375 C2.92133677 2.26905828 2.92133677 2.26905828 -2.94140625 4.92578125 C-4.16346753 6.7368554 -4.16346753 6.7368554 -5.3203125 9.5234375 C-6.44317589 6.76731828 -6.39750964 5.7189065 -5.28515625 2.90234375 C-3.3203125 0.5234375 -3.3203125 0.5234375 0 0 Z " fill="#FDCBCD" transform="translate(945.3203125,432.4765625)"/>
<path d="M0 0 C0 0.66 0 1.32 0 2 C-2.56018518 4.21421421 -5.18300938 6.12200625 -8 8 C-9.53177639 9.76869114 -10.9638833 11.59634098 -12.40234375 13.44140625 C-14.23730952 15.23150733 -15.50048186 15.60590751 -18 16 C-18 16.66 -18 17.32 -18 18 C-18.66 17.67 -19.32 17.34 -20 17 C-5.87012987 0 -5.87012987 0 0 0 Z " fill="#E15256" transform="translate(74,109)"/>
<path d="M0 0 C0 0.33 0 0.66 0 1 C-3.3 1.33 -6.6 1.66 -10 2 C-10 2.66 -10 3.32 -10 4 C-11.7015625 4.2165625 -11.7015625 4.2165625 -13.4375 4.4375 C-16.80777201 4.61171478 -16.80777201 4.61171478 -18 6 C-20.01594582 6.23427778 -22.038474 6.41336124 -24.0625 6.5625 C-25.16722656 6.64628906 -26.27195312 6.73007813 -27.41015625 6.81640625 C-28.26480469 6.87699219 -29.11945313 6.93757813 -30 7 C-25.33572331 3.89048221 -21.56083351 2.85964176 -15.97265625 2.28515625 C-13.78815869 2.03501421 -13.78815869 2.03501421 -11 0.9375 C-7.15921685 -0.26274473 -4.01241611 -0.13835918 0 0 Z " fill="#E56569" transform="translate(126,91)"/>
<path d="M0 0 C0.8125 1.6875 0.8125 1.6875 1 4 C-2.89167394 8.55881804 -7.2004247 12.28648912 -13 14 C-15.69200187 14.15540421 -18.29905617 14.09155742 -21 14 C-21 13.67 -21 13.34 -21 13 C-19.2984375 12.690625 -19.2984375 12.690625 -17.5625 12.375 C-10.32092288 10.5613901 -4.17958235 6.17851304 0 0 Z " fill="#E14D51" transform="translate(1016,493)"/>
<path d="M0 0 C2.85591203 1.42795601 3.00119326 3.00770708 4 6 C4.42573106 8.09449169 4.80000494 10.20003211 5.125 12.3125 C5.29257812 13.38113281 5.46015625 14.44976562 5.6328125 15.55078125 C5.75398437 16.35902344 5.87515625 17.16726563 6 18 C6.99 15.69 7.98 13.38 9 11 C9.6875 12.625 9.6875 12.625 10 15 C8.5625 18.25 8.5625 18.25 7 21 C6.34 21 5.68 21 5 21 C4.16193384 18.06377536 3.32937556 15.12617933 2.5 12.1875 C2.26152344 11.35412109 2.02304687 10.52074219 1.77734375 9.66210938 C1.43896484 8.45844727 1.43896484 8.45844727 1.09375 7.23046875 C0.88427734 6.49207764 0.67480469 5.75368652 0.45898438 4.99291992 C0 3 0 3 0 0 Z " fill="#E57478" transform="translate(869,468)"/>
<path d="M0 0 C1.01578125 0.25394531 2.0315625 0.50789062 3.078125 0.76953125 C3.73941406 0.93485352 4.40070313 1.10017578 5.08203125 1.27050781 C9.96614583 2.49153646 14.85026042 3.7125651 19.734375 4.93359375 C21.35085937 5.33771484 21.35085937 5.33771484 23 5.75 C24.66666667 6.16666667 26.33333333 6.58333333 28 7 C28 7.33 28 7.66 28 8 C25.03 8 22.06 8 19 8 C19 7.34 19 6.68 19 6 C17.824375 5.855625 16.64875 5.71125 15.4375 5.5625 C11.61787728 5.08589824 7.80889981 4.55546456 4 4 C4 3.34 4 2.68 4 2 C2.68 2 1.36 2 0 2 C0 1.34 0 0.68 0 0 Z " fill="#DB4E51" transform="translate(142,179)"/>
<path d="M0 0 C0.6875 1.6875 0.6875 1.6875 1 4 C0.51748779 4.75885498 0.03497559 5.51770996 -0.4621582 6.29956055 C-2.20562382 9.36107399 -2.35139465 11.03345229 -2.29296875 14.51953125 C-2.28330078 15.54111328 -2.27363281 16.56269531 -2.26367188 17.61523438 C-2.23853516 18.67033203 -2.21339844 19.72542969 -2.1875 20.8125 C-2.17396484 21.88693359 -2.16042969 22.96136719 -2.14648438 24.06835938 C-2.11122577 26.71275455 -2.06194366 29.35611748 -2 32 C-5.01945496 28.98054504 -4.29311318 26.07045325 -4.32226562 21.94140625 C-4.31904297 20.88824219 -4.31582031 19.83507812 -4.3125 18.75 C-4.32861328 17.71230469 -4.34472656 16.67460937 -4.36132812 15.60546875 C-4.36491471 9.9888689 -4.2045749 5.83525732 -1 1 C-0.67 0.67 -0.34 0.34 0 0 Z " fill="#F0888C" transform="translate(612,347)"/>
<path d="M0 0 C4.875 2.875 4.875 2.875 6 4 C6.51252731 9.87435144 6.95741335 15.25110398 3 20 C2 21 2 21 -0.50390625 21.09765625 C-1.51324219 21.08605469 -2.52257812 21.07445312 -3.5625 21.0625 C-4.57441406 21.05347656 -5.58632813 21.04445312 -6.62890625 21.03515625 C-7.41136719 21.02355469 -8.19382812 21.01195312 -9 21 C-9 20.67 -9 20.34 -9 20 C-5.37 19.67 -1.74 19.34 2 19 C4.00933411 13.97666474 4.88478123 10.31897554 4 5 C2.13875077 3.01760473 2.13875077 3.01760473 0 2 C0 1.34 0 0.68 0 0 Z " fill="#7C8386" transform="translate(402,221)"/>
<path d="M0 0 C1.22327644 4.04025812 0.3589875 5.99853681 -1 10 C-1.45032709 12.99075923 -1.74554861 15.98675988 -2 19 C-2.66 19 -3.32 19 -4 19 C-4.12375 19.804375 -4.2475 20.60875 -4.375 21.4375 C-4.684375 22.7059375 -4.684375 22.7059375 -5 24 C-5.66 24.33 -6.32 24.66 -7 25 C-4.95838673 16.5537319 -2.92608728 8.19304439 0 0 Z " fill="#E46E70" transform="translate(943,480)"/>
<path d="M0 0 C2.63674321 3.95511481 3.77075145 8.05223931 5.1875 12.5625 C5.47302734 13.43841797 5.75855469 14.31433594 6.05273438 15.21679688 C6.31763672 16.05404297 6.58253906 16.89128906 6.85546875 17.75390625 C7.09934326 18.52033447 7.34321777 19.2867627 7.59448242 20.07641602 C8 22 8 22 7 24 C4.82492851 21.82492851 4.61357218 21.0285112 4 18.125 C3.52313716 15.88544775 3.05305889 14.10004233 1.9765625 12.0703125 C0.80224532 9.58076008 0.59102985 7.48637813 0.375 4.75 C0.30023437 3.85796875 0.22546875 2.9659375 0.1484375 2.046875 C0.09945312 1.37140625 0.05046875 0.6959375 0 0 Z " fill="#DE5C60" transform="translate(854,477)"/>
<path d="M0 0 C0.33 0.99 0.66 1.98 1 3 C-0.8125 4.5625 -0.8125 4.5625 -3 6 C-3.99 5.67 -4.98 5.34 -6 5 C-6.66 6.32 -7.32 7.64 -8 9 C-10.64 9 -13.28 9 -16 9 C-15.43410156 8.7215625 -14.86820313 8.443125 -14.28515625 8.15625 C-11.97255999 6.98611582 -9.70359603 5.75766412 -7.4375 4.5 C-6.67308594 4.0771875 -5.90867187 3.654375 -5.12109375 3.21875 C-3.37291499 2.21427159 -1.67758876 1.11839251 0 0 Z " fill="#E35458" transform="translate(653,402)"/>
<path d="M0 0 C2 3 2 3 3 10 C-2.28 10 -7.56 10 -13 10 C-13 8.35 -13 6.7 -13 5 C-12.67 6.32 -12.34 7.64 -12 9 C-8.04 9 -4.08 9 0 9 C0 6.03 0 3.06 0 0 Z " fill="#DD5357" transform="translate(863,366)"/>
<path d="M0 0 C10.55808656 0.77904328 10.55808656 0.77904328 15 3 C15 3.66 15 4.32 15 5 C16.65 5 18.3 5 20 5 C20.33 5.66 20.66 6.32 21 7 C13.65313537 5.78880323 6.92810652 3.71328887 0 1 C0 0.67 0 0.34 0 0 Z " fill="#E06265" transform="translate(94,342)"/>
<path d="M0 0 C2.29633824 3.44450737 2.54016485 5.93812283 3 10 C2.01 9.01 1.02 8.02 0 7 C-0.66 9.97 -1.32 12.94 -2 16 C-2.66 16 -3.32 16 -4 16 C-3.47606294 10.13190493 -2.23891142 5.45126259 0 0 Z " fill="#D95B5E" transform="translate(899,457)"/>
<path d="M0 0 C0.99 0.33 1.98 0.66 3 1 C2.01 1.33 1.02 1.66 0 2 C0.309375 2.928125 0.309375 2.928125 0.625 3.875 C0.74875 4.57625 0.8725 5.2775 1 6 C-1 8 -1 8 -3.625 8.125 C-4.40875 8.08375 -5.1925 8.0425 -6 8 C-4.75237172 4.15314615 -3.6129609 1.97070595 0 0 Z " fill="#9FA1A5" transform="translate(392,279)"/>
<path d="M0 0 C0.33 0 0.66 0 1 0 C1.06058594 1.12277344 1.12117187 2.24554688 1.18359375 3.40234375 C1.60294982 10.96340965 2.04339834 18.4838441 3 26 C0.77824719 24.24976105 0.05524357 23.39771408 -0.34057617 20.5480957 C-0.32486572 19.60023193 -0.30915527 18.65236816 -0.29296875 17.67578125 C-0.2784668 16.13374023 -0.2784668 16.13374023 -0.26367188 14.56054688 C-0.23853516 13.48869141 -0.21339844 12.41683594 -0.1875 11.3125 C-0.16719727 9.68731445 -0.16719727 9.68731445 -0.14648438 8.02929688 C-0.11110643 5.35236595 -0.06174189 2.67643162 0 0 Z " fill="#E66D70" transform="translate(583,359)"/>
<path d="M0 0 C2.5 1.375 2.5 1.375 5 3 C5 3.66 5 4.32 5 5 C13.415 4.505 13.415 4.505 22 4 C22 4.66 22 5.32 22 6 C15.73 6 9.46 6 3 6 C3 5.34 3 4.68 3 4 C2.34 4 1.68 4 1 4 C0.67 2.68 0.34 1.36 0 0 Z " fill="#E15A5E" transform="translate(742,501)"/>
<path d="M0 0 C1 2 1 2 0.56274414 3.78759766 C0.30614014 4.48933105 0.04953613 5.19106445 -0.21484375 5.9140625 C-0.48876953 6.67460937 -0.76269531 7.43515625 -1.04492188 8.21875 C-1.33947266 9.0128125 -1.63402344 9.806875 -1.9375 10.625 C-2.22818359 11.42679687 -2.51886719 12.22859375 -2.81835938 13.0546875 C-3.53882525 15.03892138 -4.26855138 17.01978837 -5 19 C-5.33 19 -5.66 19 -6 19 C-5.14525601 12.01959076 -3.94432634 5.91648951 0 0 Z " fill="#DD474B" transform="translate(843,322)"/>
<path d="M0 0 C0.66 0.33 1.32 0.66 2 1 C2.6328125 3.06640625 2.6328125 3.06640625 3.125 5.5625 C3.29257812 6.38878906 3.46015625 7.21507812 3.6328125 8.06640625 C3.75398437 8.70449219 3.87515625 9.34257812 4 10 C3.01 9.01 2.02 8.02 1 7 C0.01 7.99 -0.98 8.98 -2 10 C-1.125 2.25 -1.125 2.25 0 0 Z " fill="#D95F63" transform="translate(857,346)"/>
<path d="M0 0 C-1.59092052 4.13639336 -4.60474918 7.23213248 -8 10 C-8.66 10 -9.32 10 -10 10 C-8.50006099 6.10015857 -4.53875449 0 0 0 Z " fill="#414041" transform="translate(780,118)"/>
<path d="M0 0 C0.33 0 0.66 0 1 0 C1.2358396 5.77807024 0.86783046 10.51324804 -1 16 C-1.66 16 -2.32 16 -3 16 C-2.40984815 10.49191603 -1.43336231 5.35121931 0 0 Z " fill="#FAC4C5" transform="translate(938,442)"/>
<path d="M0 0 C2.24893954 -0.10823773 4.49937575 -0.18569645 6.75 -0.25 C8.00296875 -0.29640625 9.2559375 -0.3428125 10.546875 -0.390625 C14 0 14 0 16.453125 2.015625 C16.96359375 2.67046875 17.4740625 3.3253125 18 4 C17.45472656 3.86722656 16.90945313 3.73445313 16.34765625 3.59765625 C10.90097013 2.32210753 5.56879648 1.53036157 0 1 C0 0.67 0 0.34 0 0 Z " fill="#FDCACA" transform="translate(990,443)"/>
<path d="M0 0 C0.66 0.33 1.32 0.66 2 1 C0.54782324 2.50596108 -0.91192861 4.00462104 -2.375 5.5 C-3.18710937 6.3353125 -3.99921875 7.170625 -4.8359375 8.03125 C-7 10 -7 10 -9 10 C-7.61811547 6.78956118 -6.07578097 4.95063635 -3.375 2.75 C-2.74335938 2.22921875 -2.11171875 1.7084375 -1.4609375 1.171875 C-0.73777344 0.59179688 -0.73777344 0.59179688 0 0 Z " fill="#474647" transform="translate(511,207)"/>
<path d="M0 0 C0.66 0.33 1.32 0.66 2 1 C-0.64 3.97 -3.28 6.94 -6 10 C-6.66 9.67 -7.32 9.34 -8 9 C-6.85459775 7.68712379 -5.70866567 6.37470979 -4.5625 5.0625 C-3.92441406 4.33160156 -3.28632812 3.60070312 -2.62890625 2.84765625 C-1.77458541 1.87860647 -0.91348825 0.91348825 0 0 Z " fill="#FED7D7" transform="translate(599,327)"/>
<path d="M0 0 C0.66 0 1.32 0 2 0 C0.34908222 4.29238623 -2.73754566 6.8793915 -6 10 C-6.66 9.67 -7.32 9.34 -8 9 C-6.71520959 7.49410612 -5.42195918 5.99542625 -4.125 4.5 C-3.04605469 3.24703125 -3.04605469 3.24703125 -1.9453125 1.96875 C-1.30335938 1.3190625 -0.66140625 0.669375 0 0 Z " fill="#D8D7D7" transform="translate(931,225)"/>
<path d="M0 0 C1.9587043 0.14076315 3.91696093 0.2877676 5.875 0.4375 C7.51082031 0.55931641 7.51082031 0.55931641 9.1796875 0.68359375 C12 1 12 1 14 2 C14 2.66 14 3.32 14 4 C9.13103697 3.40380045 4.67209049 2.43023178 0 1 C0 0.67 0 0.34 0 0 Z " fill="#F7BCBC" transform="translate(187,190)"/>
<path d="M0 0 C1.794375 0.2165625 1.794375 0.2165625 3.625 0.4375 C3.625 0.7675 3.625 1.0975 3.625 1.4375 C2.59375 1.458125 1.5625 1.47875 0.5 1.5 C-4.61919815 2.73851568 -6.4079289 5.27490574 -9.375 9.4375 C-9.705 8.7775 -10.035 8.1175 -10.375 7.4375 C-5.32143307 -0.06628119 -5.32143307 -0.06628119 0 0 Z " fill="#8D9296" transform="translate(397.375,160.5625)"/>
<path d="M0 0 C2 2 2 2 2.1953125 3.9453125 C2.13020833 5.96354167 2.06510417 7.98177083 2 10 C0.02 10.99 0.02 10.99 -2 12 C-1.34 8.04 -0.68 4.08 0 0 Z " fill="#DC5055" transform="translate(833,435)"/>
<path d="M0 0 C0.66 0 1.32 0 2 0 C1.71517632 1.41805831 1.42181856 2.83440379 1.125 4.25 C0.88136719 5.43335938 0.88136719 5.43335938 0.6328125 6.640625 C0 9 0 9 -2 13 C-2 10.03 -2 7.06 -2 4 C-1.34 4 -0.68 4 0 4 C0 2.68 0 1.36 0 0 Z " fill="#E0565A" transform="translate(889,434)"/>
<path d="M0 0 C0.66 0.33 1.32 0.66 2 1 C1.0919838 2.13199353 0.17316174 3.25532363 -0.75 4.375 C-1.26046875 5.00148437 -1.7709375 5.62796875 -2.296875 6.2734375 C-4.08199481 8.08312318 -5.67949644 9.00117455 -8 10 C-6.34908222 5.70761377 -3.26245434 3.1206085 0 0 Z " fill="#5D5C5C" transform="translate(517,128)"/>
<path d="M0 0 C1.32 0.33 2.64 0.66 4 1 C6.125 8.5 6.125 8.5 5 13 C3.35 8.71 1.7 4.42 0 0 Z " fill="#DB4E53" transform="translate(659,336)"/>
<path d="M0 0 C2.64 0.33 5.28 0.66 8 1 C8.33 2.32 8.66 3.64 9 5 C5.22454612 3.90931332 2.52956528 3.0916909 0 0 Z " fill="#E25459" transform="translate(78,334)"/>
<path d="M0 0 C2.31 0.66 4.62 1.32 7 2 C7.12375 2.639375 7.2475 3.27875 7.375 3.9375 C7.684375 4.9584375 7.684375 4.9584375 8 6 C8.66 6.33 9.32 6.66 10 7 C6.433255 7 5.89456323 6.36308045 3.3125 4.0625 C2.68988281 3.51722656 2.06726563 2.97195313 1.42578125 2.41015625 C0.95527344 1.94480469 0.48476563 1.47945313 0 1 C0 0.67 0 0.34 0 0 Z " fill="#DF4F53" transform="translate(648,325)"/>
<path d="M0 0 C1.5 1.25 1.5 1.25 3 3 C3 4.32 3 5.64 3 7 C3.66 7 4.32 7 5 7 C4.67 8.32 4.34 9.64 4 11 C1.9656541 9.58480285 1.09589607 8.45017877 0.578125 6.01953125 C0.33726048 4.01823046 0.16467259 2.0090056 0 0 Z " fill="#E25B5E" transform="translate(266,234)"/>
<path d="M0 0 C0.66 0 1.32 0 2 0 C0.125 3.875 0.125 3.875 -1 5 C-2.85287502 5.07226502 -4.70833878 5.0838122 -6.5625 5.0625 C-7.57441406 5.05347656 -8.58632813 5.04445312 -9.62890625 5.03515625 C-10.41136719 5.02355469 -11.19382812 5.01195312 -12 5 C-12 4.67 -12 4.34 -12 4 C-6.555 3.505 -6.555 3.505 -1 3 C-0.67 2.01 -0.34 1.02 0 0 Z " fill="#6A7074" transform="translate(405,237)"/>
<path d="M0 0 C1.46911544 3.81970016 0.52561108 6.30641529 -1 10 C-1.66 10.66 -2.32 11.32 -3 12 C-2.14285714 3.42857143 -2.14285714 3.42857143 0 0 Z " fill="#E25E61" transform="translate(951,456)"/>
<path d="M0 0 C0.33 0 0.66 0 1 0 C0.40380045 4.86896303 -0.56976822 9.32790951 -2 14 C-3.94218842 9.14452895 -1.56295128 4.68885384 0 0 Z " fill="#FBC1C2" transform="translate(953,445)"/>
<path d="M0 0 C-1.15173355 2.46800047 -2.04783565 4.04783565 -4 6 C-4.39764263 7.98821313 -4.73775349 9.98944339 -5 12 C-5.33 12 -5.66 12 -6 12 C-6.32644414 7.83783725 -6.40650982 5.63686538 -4.125 2.0625 C-2 0 -2 0 0 0 Z " fill="#8B9094" transform="translate(426,222)"/>
<path d="M0 0 C4.95 0.33 9.9 0.66 15 1 C15 1.33 15 1.66 15 2 C13.06494977 2.24900646 11.12674066 2.47356242 9.1875 2.6875 C8.10855469 2.81511719 7.02960938 2.94273437 5.91796875 3.07421875 C3 3 3 3 0 0 Z " fill="#CC5256" transform="translate(288,209)"/>
<path d="M0 0 C3.44216672 2.6598561 3.99504674 5.90288286 5 10 C2 9 2 9 0.8125 6.6875 C0 4 0 4 0 0 Z " fill="#DE4E52" transform="translate(257,138)"/>
<path d="M0 0 C1.60156595 4.00391487 0.4087561 7.07031192 -1 11 C-1.99 11.495 -1.99 11.495 -3 12 C-2.25749403 7.91621717 -1.17076699 3.98060777 0 0 Z " fill="#E04E51" transform="translate(843,398)"/>
<path d="M0 0 C0.33 1.32 0.66 2.64 1 4 C-0.65 5.32 -2.3 6.64 -4 8 C-4.66 7.67 -5.32 7.34 -6 7 C-4.02 4.69 -2.04 2.38 0 0 Z " fill="#E56266" transform="translate(1016,493)"/>
<path d="M0 0 C2.97 1.65 5.94 3.3 9 5 C6 6 6 6 3.8125 5.0625 C3.214375 4.711875 2.61625 4.36125 2 4 C2 3.34 2 2.68 2 2 C1.34 2 0.68 2 0 2 C0 1.34 0 0.68 0 0 Z " fill="#747B7E" transform="translate(422,118)"/>
</svg>
