<svg id="OBJECT" xmlns="http://www.w3.org/2000/svg" viewBox="0 0 1530.52 1933.85"><defs><style>.cls-1,.cls-11,.cls-14,.cls-3,.cls-8{fill:#1a1d63;}.cls-1{opacity:0.3;}.cls-2{fill:#f2f2f2;}.cls-3{opacity:0.4;}.cls-4,.cls-7,.cls-9{fill:none;stroke:#1a1d63;stroke-linecap:round;stroke-linejoin:round;}.cls-4{stroke-width:15px;}.cls-13,.cls-5{fill:#fff;}.cls-6{fill:#e1711d;}.cls-7{stroke-width:14px;}.cls-8{opacity:0.1;}.cls-9{stroke-width:13px;}.cls-10{fill:#6ccff9;}.cls-12{fill:#080a28;}.cls-13{opacity:0.75;}.cls-14{opacity:0.2;}</style></defs><g id="object-2" data-name="object"><g id="astronaut"><ellipse id="shadow" class="cls-1" cx="825.65" cy="1865.21" rx="694.44" ry="68.64"/><g id="bag"><path id="base" class="cls-2" d="M1772.34,1005.78c-2.63-27.92-22.73-50.51-48.92-54.77A2155.72,2155.72,0,0,0,1389,923v0h-2.51v0a2155.74,2155.74,0,0,0-334.4,28c-26.19,4.26-46.29,26.85-48.92,54.77a3304.94,3304.94,0,0,0-.18,618.28c2.7,28.86,24,51.89,51.28,55.11a2890.41,2890.41,0,0,0,334.91,19.57v.07a2832.15,2832.15,0,0,0,332.06-19.63c27.22-3.23,48.56-26.26,51.25-55.11A3305,3305,0,0,0,1772.34,1005.78Z" transform="translate(-444.02 -27.15)"/><g id="shadow-2" data-name="shadow"><path class="cls-3" d="M1308.86,1630.09a388.15,388.15,0,0,0,161.16,0v-39H1308.83Z" transform="translate(-444.02 -27.15)"/><path class="cls-3" d="M1701.68,1463.35c7.26,73.75,46.77,93.8,74.8,98.57q9-112.25,10.22-224.41l-75.75-6.65Z" transform="translate(-444.02 -27.15)"/><path class="cls-3" d="M1090.8,1127.12v126.11c-32.79,4-71.18-3.62-101.34-12.21q1.29-57,4.57-113.9Z" transform="translate(-444.02 -27.15)"/></g><path id="outline" class="cls-4" d="M1003.2,1005.78c2.63-27.92,22.73-50.51,48.92-54.77a2155.74,2155.74,0,0,1,334.4-28v0H1389v0a2155.72,2155.72,0,0,1,334.39,28c26.19,4.26,46.29,26.85,48.92,54.77a3304.94,3304.94,0,0,1,.18,618.28c-2.69,28.86-24,51.89-51.28,55.11a2890.24,2890.24,0,0,1-334.9,19.57v.07a2832.32,2832.32,0,0,1-332.07-19.63c-27.21-3.23-48.55-26.26-51.25-55.11A3305,3305,0,0,1,1003.2,1005.78Z" transform="translate(-444.02 -27.15)"/></g><g id="body"><path id="base-2" data-name="base" class="cls-5" d="M1389.44,1600.13s44.55-3.46,66.82-9.9c-.86,41.94,0,84.94,3.38,129.42a969.61,969.61,0,0,0,19.84,128.95,38.07,38.07,0,0,0,33.46,29.54,923.12,923.12,0,0,0,172.17.44,40,40,0,0,0,36.28-35.86,187.29,187.29,0,0,0-1.84-50.12,45,45,0,0,0-16.9-27.83A137.4,137.4,0,0,0,1670,1746c34.8-130.64,43.58-293.45,42.4-416.36,16.24,36.41,27.14,78.66,29.18,128.26a149.84,149.84,0,0,0,3.86,28.19c0,.05,0,.11,0,.16,14.09,59.73,88.21,79.32,131.42,34.67a45,45,0,0,0,6.8-8.62c6.75-10.9,14-30.26,16.4-42.81,16.66-88.21,11.27-170.81-30.93-260-20.8-44-48.73-84.19-81.6-120.06C1690,983,1613,961.71,1546.86,947.87h-159l-204.94,28c-94,12.85-189.91,2.39-278.31-32-31.5-12.24-61.38-27.25-86.29-45.22.1-.19.18-.38.26-.57a47.82,47.82,0,0,0,3.29-10.78c12.35-62.61-47.59-113.67-106.24-90.56,0,0-.11,0-.16.06-.81.34-1.62.66-2.44,1a154.45,154.45,0,0,0-23.61,12.26c-28,19.83-40.62,51.12-43.43,87.2-4.76,61,20.08,120.44,65.19,161.78,43.63,40,167.66,127.45,358.29,148.75-4.16,28.24-5,68.11-5,96.37,0,19.34.38,33.23.38,34.21v1c0,2.46,0,4.93,0,7.41V1351c0,2.5,0,5,0,7.57,0,1.42,0,2.84,0,4.27,0,2.56,0,5.13.06,7.71,0,1.44,0,2.88,0,4.31l.09,7.83c0,1.46,0,2.93.07,4.42,0,2.62.09,5.23.14,7.88l.09,4.5c.07,2.64.13,5.29.2,8,0,1.54.08,3.07.11,4.62.08,2.63.16,5.28.24,7.93,0,1.61.09,3.21.16,4.81.08,2.61.17,5.25.27,7.88.06,1.66.13,3.32.19,5q.15,3.9.32,7.86c.06,1.7.14,3.41.22,5.12.11,2.6.24,5.19.37,7.79.08,1.77.18,3.54.27,5.32q.19,3.85.42,7.74c.09,1.8.19,3.61.3,5.41.14,2.57.3,5.14.46,7.71.11,1.87.23,3.72.35,5.59.16,2.52.32,5.06.5,7.6q.19,2.87.41,5.76.27,3.73.55,7.49c.14,2,.3,3.94.46,5.92.19,2.46.38,4.93.59,7.39.16,2,.34,4,.51,6.05q.32,3.63.64,7.29c.18,2.06.37,4.14.57,6.2.23,2.39.45,4.79.67,7.18.21,2.11.44,4.22.64,6.32l.72,7.06c.24,2.15.48,4.31.7,6.46.26,2.32.51,4.62.77,6.93s.51,4.38.78,6.56.53,4.55.82,6.82.56,4.47.83,6.7.56,4.41.86,6.63.61,4.58.92,6.86.58,4.3.88,6.43c.34,2.34.67,4.67,1,7,.32,2.11.62,4.2.92,6.29.37,2.38.74,4.74,1.11,7.1q.47,3,1,6.09c.4,2.42.8,4.85,1.22,7.28.32,1.94.63,3.89,1,5.82.43,2.51.88,5,1.33,7.5.33,1.84.65,3.68,1,5.51.46,2.6,1,5.17,1.45,7.76.33,1.72.65,3.45,1,5.16.52,2.71,1.07,5.39,1.63,8.09.31,1.56.62,3.14.94,4.71.6,2.89,1.23,5.76,1.85,8.63.29,1.35.57,2.69.88,4,.72,3.27,1.47,6.51,2.22,9.75.2.91.41,1.85.62,2.76q3,12.53,6.19,24.7h0a137.35,137.35,0,0,0-32.67,18.74,45,45,0,0,0-16.91,27.83,187.29,187.29,0,0,0-1.84,50.12,40,40,0,0,0,36.29,35.86q26.63,2.43,53.41,3.32,15.53.49,31.08.47h1.14q43-.09,86.53-4.23a38.07,38.07,0,0,0,33.46-29.54,968,968,0,0,0,19.84-128.95c.07-.8.11-1.58.16-2.38q.59-7.93,1.07-15.82c.11-1.82.19-3.63.31-5.45.25-4.45.49-8.9.68-13.34.08-1.56.15-3.11.21-4.68.21-4.88.4-9.77.56-14.64l.09-3.11q.24-8.45.39-16.84c0-.22,0-.46,0-.69l-.44-51Z" transform="translate(-444.02 -27.15)"/><g id="stick"><path class="cls-6" d="M734.27,791.82a80.45,80.45,0,0,0-18.66,4.93s-.11,0-.16.06c-.81.34-1.62.66-2.44,1a154.45,154.45,0,0,0-23.61,12.26,95.42,95.42,0,0,0-9.72,7.91L453,352.85A19.56,19.56,0,0,1,487.8,335Z" transform="translate(-444.02 -27.15)"/><path class="cls-7" d="M734.27,791.82a80.45,80.45,0,0,0-18.66,4.93s-.11,0-.16.06c-.81.34-1.62.66-2.44,1a154.45,154.45,0,0,0-23.61,12.26,95.42,95.42,0,0,0-9.72,7.91L453,352.85A19.56,19.56,0,0,1,487.8,335Z" transform="translate(-444.02 -27.15)"/><path class="cls-6" d="M827.9,1007.35l-27,13.84a19.55,19.55,0,0,1-26.5-8.82L751.83,966c7.33-4.56,14.4-9.22,21.11-14a146.79,146.79,0,0,0,31.41-30.29l31.82,59A19.56,19.56,0,0,1,827.9,1007.35Z" transform="translate(-444.02 -27.15)"/><path class="cls-8" d="M827.9,1007.35l-27,13.84a19.55,19.55,0,0,1-26.5-8.82L751.83,966c7.33-4.56,14.4-9.22,21.11-14a146.79,146.79,0,0,0,31.41-30.29l31.82,59A19.56,19.56,0,0,1,827.9,1007.35Z" transform="translate(-444.02 -27.15)"/><path class="cls-7" d="M827.9,1007.35l-27,13.84a19.55,19.55,0,0,1-26.5-8.82L751.83,966c7.33-4.56,14.4-9.22,21.11-14a146.79,146.79,0,0,0,31.41-30.29l31.82,59A19.56,19.56,0,0,1,827.9,1007.35Z" transform="translate(-444.02 -27.15)"/></g><g id="shadow-3" data-name="shadow"><path class="cls-1" d="M1688.76,1002.28q-296.94,148.92-593.91,2.35c-1.58-.77-28-12.4-29.59-13.19,52.67-34,123.49-34.86,165.15-43.58h318C1590.13,956.58,1636.09,968.25,1688.76,1002.28Z" transform="translate(-444.02 -27.15)"/><path class="cls-1" d="M1559.29,1524.87c-125.38,39.39-199.09,38.31-340.77-.67a1.64,1.64,0,0,0-1.46,2.87c112.15,85.18,226.67,87.24,343.72.66A1.64,1.64,0,0,0,1559.29,1524.87Z" transform="translate(-444.02 -27.15)"/><path class="cls-1" d="M1689.55,1579c11.17-134.09-.8-264.19-37.52-329.64,25.9,21.28,48.07,50.11,65.45,88.6C1722.7,1338.49,1694.77,1579.54,1689.55,1579Z" transform="translate(-444.02 -27.15)"/><path class="cls-1" d="M1573,1539.18s-23.4,63-116.26,93.78l.3-42.73A655.29,655.29,0,0,0,1573,1539.18Z" transform="translate(-444.02 -27.15)"/><path class="cls-1" d="M1204.26,1539.18s23.4,63,116.26,93.78l-.3-42.73A655.29,655.29,0,0,1,1204.26,1539.18Z" transform="translate(-444.02 -27.15)"/><path class="cls-1" d="M1721.39,1842.72a40,40,0,0,1-36.28,35.85,923,923,0,0,1-172.16-.43,38.07,38.07,0,0,1-33.46-29.55,967.47,967.47,0,0,1-19.84-128.95c-2.18-29.07-3.33-57.53-3.61-85.47l.41.24c13,69.41,27.22,136.28,52.54,181,6.18,10.9,21.28,21.28,33.71,22.92,42.58,5.64,85.36,6.45,131.71-.56a86.67,86.67,0,0,0,41.2-17.83c2.22-1.77,4.35-3.64,6.41-5.57A195.82,195.82,0,0,1,1721.39,1842.72Z" transform="translate(-444.02 -27.15)"/><path class="cls-1" d="M1055.89,1842.72a40,40,0,0,0,36.28,35.85,923.11,923.11,0,0,0,172.17-.43,38.06,38.06,0,0,0,33.45-29.55,967.44,967.44,0,0,0,19.85-128.95c2.17-29.07,3.32-57.53,3.6-85.47l-.41.24c-13,69.41-27.22,136.28-52.54,181-6.17,10.9-21.27,21.28-33.71,22.92-42.57,5.64-85.35,6.45-131.71-.56a86.67,86.67,0,0,1-41.2-17.83c-2.22-1.77-4.34-3.64-6.4-5.57A194.4,194.4,0,0,0,1055.89,1842.72Z" transform="translate(-444.02 -27.15)"/><path class="cls-1" d="M1904.78,1451.42c-.93,6-2,12-3.11,18.09-2.38,12.54-9.65,31.91-16.4,42.81a45,45,0,0,1-6.8,8.62c-43.21,44.65-117.33,25.06-131.42-34.67,0,0,0-.11,0-.16a149.84,149.84,0,0,1-3.86-28.19,375.91,375.91,0,0,0-4.25-43.34c23.69,45.32,52.73,79.92,94.32,83C1864.87,1499.47,1887.15,1480.63,1904.78,1451.42Z" transform="translate(-444.02 -27.15)"/><path class="cls-1" d="M692.29,1039.29c62.82-22.12,103.75-67.09,127.9-129.58-38.52,40.94-82.8,77.52-146.44,99.45Z" transform="translate(-444.02 -27.15)"/><path class="cls-1" d="M1141.69,1213.53c-39.27,63.66-68.33,168.7-68.57,327-.09-.93-.17-1.87-.25-2.8q-.33-3.66-.64-7.29c-.17-2-.35-4-.51-6.05-.21-2.46-.4-4.93-.59-7.39-.16-2-.32-4-.46-5.92q-.29-3.75-.55-7.49-.21-2.89-.41-5.76c-.18-2.54-.34-5.08-.5-7.6-.12-1.87-.24-3.72-.35-5.59-.16-2.57-.32-5.14-.46-7.71-.11-1.8-.21-3.61-.3-5.41q-.22-3.88-.42-7.74c-.09-1.78-.19-3.55-.27-5.32-.13-2.6-.26-5.19-.37-7.79-.08-1.71-.16-3.42-.22-5.12q-.16-4-.32-7.86c-.06-1.66-.13-3.32-.19-5-.1-2.63-.19-5.27-.27-7.88-.07-1.6-.11-3.2-.16-4.81-.08-2.65-.16-5.3-.24-7.93,0-1.55-.08-3.08-.11-4.62-.07-2.66-.13-5.31-.2-8l-.09-4.5c0-2.65-.1-5.26-.14-7.88,0-1.49,0-3-.07-4.42l-.09-7.83c0-1.43,0-2.87,0-4.31,0-2.58,0-5.15-.06-7.71,0-1.43,0-2.85,0-4.27,0-2.54,0-5.07,0-7.57v-4.23c0-2.48,0-5,0-7.41v-1c0-1-.38-14.87-.38-34.21,0-27.33.78-65.52,4.59-93.55Z" transform="translate(-444.02 -27.15)"/></g><g id="outline-2" data-name="outline"><path class="cls-4" d="M1069.45,1207.79c-7,47.57-4.59,128.18-4.61,130.58-.69,121.81,8.48,280.07,42.46,407.66" transform="translate(-444.02 -27.15)"/><path class="cls-4" d="M1389.44,1600.12a245.39,245.39,0,0,1-68.42-9.89c.86,41.93,0,84.94-3.38,129.41a967.44,967.44,0,0,1-19.85,128.95,38.07,38.07,0,0,1-33.45,29.55,923.11,923.11,0,0,1-172.17.43,40,40,0,0,1-36.28-35.85,187.35,187.35,0,0,1,1.83-50.13,45,45,0,0,1,16.91-27.82,136.71,136.71,0,0,1,32.68-18.74c33.82-13.56,61-8.11,61-8.11" transform="translate(-444.02 -27.15)"/><path class="cls-4" d="M1670,1746c34.8-130.65,43.58-293.45,42.4-416.37,16.24,36.41,27.14,78.67,29.18,128.26a149.84,149.84,0,0,0,3.86,28.19c0,.05,0,.12,0,.16,14.09,59.74,88.21,79.32,131.42,34.68a45,45,0,0,0,6.8-8.62c6.75-10.91,14-30.27,16.4-42.82,16.66-88.21,11.27-170.8-30.92-260-20.8-44-48.74-84.19-81.61-120.06C1690,983,1613,961.71,1546.86,947.87h-159" transform="translate(-444.02 -27.15)"/><path class="cls-4" d="M1608.93,1737.92s27.22-5.45,61,8.11a136.71,136.71,0,0,1,32.68,18.74,45,45,0,0,1,16.9,27.82,187.35,187.35,0,0,1,1.84,50.13,40,40,0,0,1-36.28,35.85,923.11,923.11,0,0,1-172.17-.43,38.08,38.08,0,0,1-33.46-29.55,969.1,969.1,0,0,1-19.84-128.95c-3.33-44.47-4.24-87.48-3.38-129.41a245.39,245.39,0,0,1-68.42,9.89" transform="translate(-444.02 -27.15)"/><path class="cls-4" d="M1734.67,1399.8c62.21,13.31,120.91,6.75,173.94-31.62" transform="translate(-444.02 -27.15)"/><path class="cls-4" d="M1659.76,1246.29c42.91,51.32,78,118.52,81.79,211.62a150.44,150.44,0,0,0,3.86,28.19l0,.17c14.09,59.73,88.22,79.32,131.42,34.66a45.39,45.39,0,0,0,6.81-8.61c6.75-10.9,14-30.26,16.38-42.82,16.68-88.21,11.28-170.79-30.91-260-20.8-44-48.73-84.2-81.61-120.06C1690,983,1613,961.69,1546.87,947.85" transform="translate(-444.02 -27.15)"/><path class="cls-4" d="M1215.57,1534.9q173.87,127.24,347.73,0" transform="translate(-444.02 -27.15)"/><path class="cls-4" d="M1086.11,1644.79c74.27,17.46,152.72,23.08,234.72,12.13" transform="translate(-444.02 -27.15)"/><path class="cls-4" d="M1456.45,1656.94c82,10.93,160.46,5.31,234.73-12.15" transform="translate(-444.02 -27.15)"/></g><g id="outline-3" data-name="outline"><path class="cls-4" d="M1137.06,1212.32c-229-5.32-377.31-108.75-425.9-153.28-45.11-41.34-69.94-100.78-65.2-161.78,2.81-36.09,15.47-67.38,43.44-87.2A154.4,154.4,0,0,1,713,797.81l2.44-1,.17-.07c58.65-23.11,118.58,28,106.22,90.56a47.84,47.84,0,0,1-3.27,10.78c-.08.19-.16.37-.26.57,64.31,46.44,162,73,234.38,83.67a163.76,163.76,0,0,0,84.19-9.87l18.57-7.36" transform="translate(-444.02 -27.15)"/><path class="cls-4" d="M726.68,980.9A521.06,521.06,0,0,0,772.93,952a141.74,141.74,0,0,0,40.57-44,104.5,104.5,0,0,0,4.81-9.3" transform="translate(-444.02 -27.15)"/></g><g id="belt"><path class="cls-1" d="M1714.05,1355.26q0,27-.94,54.39a2642.5,2642.5,0,0,1-647.34,0q-.91-27.4-.94-54.41l.29,0q.21,12.78.65,25.63a2642.5,2642.5,0,0,0,647.34,0q.44-12.87.65-25.62Z" transform="translate(-444.02 -27.15)"/><path class="cls-1" d="M1531.81,1460.19c-1.64,9.55-15.59,17-25.17,18.42a789.26,789.26,0,0,1-233.88,0c-9.41-1.4-23.32-8.6-25.11-17.94-5.09-26.77-11.87-53.56-10.75-80.31.7,17.19,13.87,34.38,17.14,51.58a22.44,22.44,0,0,0,18.72,17.94,789.6,789.6,0,0,0,233.88.05,22.45,22.45,0,0,0,18.79-18.42c3-17,15.93-34.09,16.57-51.12C1543,1407,1536.43,1433.56,1531.81,1460.19Z" transform="translate(-444.02 -27.15)"/><path class="cls-9" d="M1714.05,1326.53q0,27-.94,54.39a2642.5,2642.5,0,0,1-647.34,0q-.91-27.39-.94-54.4A2641.51,2641.51,0,0,0,1714.05,1326.53Z" transform="translate(-444.02 -27.15)"/><path class="cls-5" d="M1506.64,1449.88a789.6,789.6,0,0,1-233.88-.05,22.43,22.43,0,0,1-18.72-17.95,349,349,0,0,1-.75-127.74,22.45,22.45,0,0,1,23.21-18.51,2199.22,2199.22,0,0,0,226.34,0,22.36,22.36,0,0,1,23.23,18.63,379.93,379.93,0,0,1-.64,127.17A22.46,22.46,0,0,1,1506.64,1449.88Z" transform="translate(-444.02 -27.15)"/><path class="cls-4" d="M1506.64,1449.88a789.6,789.6,0,0,1-233.88-.05,22.43,22.43,0,0,1-18.72-17.95,349,349,0,0,1-.75-127.74,22.45,22.45,0,0,1,23.21-18.51,2199.22,2199.22,0,0,0,226.34,0,22.36,22.36,0,0,1,23.23,18.63,379.93,379.93,0,0,1-.64,127.17A22.46,22.46,0,0,1,1506.64,1449.88Z" transform="translate(-444.02 -27.15)"/><circle class="cls-10" cx="889.54" cy="1344.42" r="42.3"/><path class="cls-3" d="M1363.22,1341.41a43.63,43.63,0,0,1,.55,6.8,42.31,42.31,0,0,1-72,30.19,42.3,42.3,0,1,0,71.4-37Z" transform="translate(-444.02 -27.15)"/><circle class="cls-9" cx="889.54" cy="1344.42" r="42.3"/><path class="cls-11" d="M1484.48,1340.65a8.22,8.22,0,0,0-6.07-2.28c-18.94.86-38.15,1.39-57.07,1.57a8.25,8.25,0,0,0-8.16,8.22v7.55a8.23,8.23,0,0,0,8.23,8.25h.13c18.94-.28,46.55-1.24,57.55-1.64a8.21,8.21,0,0,0,7.93-8.24v-7.49A8.12,8.12,0,0,0,1484.48,1340.65Z" transform="translate(-444.02 -27.15)"/><path class="cls-11" d="M1478.41,1383.07c-18.94.86-38.15,1.38-57.07,1.56a8.27,8.27,0,0,0-8.16,8.23v7.55a8.23,8.23,0,0,0,8.23,8.24h.13c18.94-.27,46.55-1.23,57.55-1.64a8.2,8.2,0,0,0,7.93-8.23v-7.49a8.22,8.22,0,0,0-8.61-8.22Z" transform="translate(-444.02 -27.15)"/></g></g><g id="head"><path class="cls-5" d="M1389.44,34.65c-277.27,0-501.45,224.77-502,502-.8,375.13,178,494.86,502,494.06,324,.8,502.84-118.93,502-494.06C1890.89,259.42,1666.7,34.65,1389.44,34.65Z" transform="translate(-444.02 -27.15)"/><path class="cls-4" d="M1516.06,50.77a505.35,505.35,0,0,0-253.24,0l-18.65,141.29a499.93,499.93,0,0,1,290.53,0Z" transform="translate(-444.02 -27.15)"/><path class="cls-4" d="M1389.44,170.49a539,539,0,0,0-145.27,21.57l15,43.77a495.3,495.3,0,0,1,260.48,0l15-43.77A538.86,538.86,0,0,0,1389.44,170.49Z" transform="translate(-444.02 -27.15)"/><path class="cls-4" d="M1389.44,34.65c-277.27,0-501.45,224.77-502,502-.8,375.13,178,494.86,502,494.06,324,.8,502.84-118.93,502-494.06C1890.89,259.42,1666.7,34.65,1389.44,34.65Z" transform="translate(-444.02 -27.15)"/><path class="cls-12" d="M1891.48,536.69c.13,62.14-4.67,117.27-14.23,166-11.59,59-54.57,106.91-111.64,125.9q-376.15,125.2-752.33,0a168.15,168.15,0,0,1-112-127.76c-9.33-48.28-14-102.8-13.87-164.15v-.79A163.31,163.31,0,0,1,944,413.32q444.65-385.48,889.26-8.76a164.22,164.22,0,0,1,58,121.48Q1891.47,531.35,1891.48,536.69Z" transform="translate(-444.02 -27.15)"/><path class="cls-13" d="M984.33,627.52a29.89,29.89,0,0,1-16.13,23c-8.56,4.35-18.93,5-26.2-9.55-9.37-18.83-9.16-40.92-9.11-62.43v-.9c0-5.07.26-10.12.73-15.12,5.33-57.76,26.73-102.07,88.28-148.24,44.51-33.38,74.45-56.9,122.39-72,38.94-12.3,55.63,17.57,24.86,44C1055,490.52,1029.87,507.8,992.39,597.39A115.25,115.25,0,0,0,984.33,627.52Z" transform="translate(-444.02 -27.15)"/><path d="M1891.48,536.69c.13,62.14-4.66,117.26-14.24,166-11.59,59-54.56,106.9-111.63,125.9q-376.17,125.2-752.33,0A168,168,0,0,1,933,771.43c288.21,45.87,566.34,63,774.66-22.11,75.57-30.89,128.82-100.81,137-182.05,5.75-57.37.05-115.44-21.2-171q4.93,4.1,9.9,8.28a164.21,164.21,0,0,1,58,121.48C1891.43,529.58,1891.48,533.13,1891.48,536.69Z" transform="translate(-444.02 -27.15)"/><path class="cls-4" d="M1891.48,536.69c.13,62.14-4.67,117.27-14.23,166-11.59,59-54.57,106.91-111.64,125.9q-376.15,125.2-752.33,0a168.15,168.15,0,0,1-112-127.76c-9.33-48.28-14-102.8-13.87-164.15v-.79A163.31,163.31,0,0,1,944,413.32q444.65-385.48,889.26-8.76a164.22,164.22,0,0,1,58,121.48Q1891.47,531.35,1891.48,536.69Z" transform="translate(-444.02 -27.15)"/><path class="cls-14" d="M887.41,534.8a503.51,503.51,0,0,1,19.27-135.63Q1387.81-52.6,1868.88,388a503.2,503.2,0,0,1,22.44,137.12,164.21,164.21,0,0,0-58-120.6Q1388.68,27.87,944,413.32A163.35,163.35,0,0,0,887.41,534.8Z" transform="translate(-444.02 -27.15)"/><path class="cls-9" d="M906.68,399.17Q1387.81-52.6,1868.88,388" transform="translate(-444.02 -27.15)"/><path class="cls-5" d="M1958.69,713.46a30.43,30.43,0,0,1-12.82,21.25c-25.83,17.8-55.28,31.43-88.18,41.15,22.54-64.63,34-143.62,33.79-239.17a503.5,503.5,0,0,0-28-164.92,249.2,249.2,0,0,1,83.2,41.73,30.63,30.63,0,0,1,11.72,20.75Q1975.56,581.46,1958.69,713.46Z" transform="translate(-444.02 -27.15)"/><path class="cls-5" d="M921.19,775.86c-32.9-9.72-62.35-23.35-88.18-41.15a30.43,30.43,0,0,1-12.82-21.25q-16.79-132,.24-279.21a30.63,30.63,0,0,1,11.72-20.75,249,249,0,0,1,83.2-41.73,503.5,503.5,0,0,0-28,164.92C887.19,632.24,898.65,711.23,921.19,775.86Z" transform="translate(-444.02 -27.15)"/><path class="cls-1" d="M1965.31,641q-2.08,36.78-6.62,72.45a30.43,30.43,0,0,1-12.82,21.25c-25.83,17.8-55.28,31.43-88.18,41.15A529,529,0,0,0,1876,709,194,194,0,0,0,1965.31,641Z" transform="translate(-444.02 -27.15)"/><path class="cls-1" d="M813.57,641q2.08,36.78,6.62,72.45A30.43,30.43,0,0,0,833,734.71c25.83,17.8,55.28,31.43,88.18,41.15A528.94,528.94,0,0,1,902.91,709,194,194,0,0,1,813.57,641Z" transform="translate(-444.02 -27.15)"/><path class="cls-4" d="M1958.69,713.46a30.43,30.43,0,0,1-12.82,21.25c-25.83,17.8-55.28,31.43-88.18,41.15,22.54-64.63,34-143.62,33.79-239.17a503.5,503.5,0,0,0-28-164.92,249.2,249.2,0,0,1,83.2,41.73,30.63,30.63,0,0,1,11.72,20.75Q1975.56,581.46,1958.69,713.46Z" transform="translate(-444.02 -27.15)"/><path class="cls-4" d="M921.19,775.86c-32.9-9.72-62.35-23.35-88.18-41.15a30.43,30.43,0,0,1-12.82-21.25q-16.79-132,.24-279.21a30.63,30.63,0,0,1,11.72-20.75,249,249,0,0,1,83.2-41.73,503.5,503.5,0,0,0-28,164.92C887.19,632.24,898.65,711.23,921.19,775.86Z" transform="translate(-444.02 -27.15)"/><path class="cls-14" d="M1876.68,705.45c-10,50-25.17,93.29-45.24,130.4a172.17,172.17,0,0,1-56.67,32.07q-384.52,129.54-769.07,0a170.78,170.78,0,0,1-59.81-35c-19.54-36.92-34.28-79.81-44.06-129.33a168.1,168.1,0,0,0,111.45,125q376.16,125.2,752.33,0C1821.79,809.9,1864.31,763.21,1876.68,705.45Z" transform="translate(-444.02 -27.15)"/><path class="cls-9" d="M945.89,833a170.78,170.78,0,0,0,59.81,35q384.55,129.51,769.07,0a172.17,172.17,0,0,0,56.67-32.07" transform="translate(-444.02 -27.15)"/></g></g></g></svg>