<svg id="Layer_1" data-name="Layer 1" xmlns="http://www.w3.org/2000/svg" viewBox="0 0 2024.57 3493.21"><defs><style>.cls-1{fill:#371a45;}.cls-2{fill:#fff;}.cls-3{opacity:0.35;}.cls-4{fill:#d66b09;}.cls-5{fill:#e25a5a;}.cls-6{fill:#00d7ed;}.cls-7{opacity:0.7;}.cls-8{opacity:0.5;}.cls-9{fill:#f22;}.cls-10{fill:#3bd8e0;}.cls-11{fill:#068fff;}.cls-12{fill:none;stroke:#293856;stroke-linecap:round;stroke-miterlimit:10;stroke-width:32.02px;}.cls-13{fill:#22a7f0;}.cls-14{fill:#ffe000;}.cls-15{fill:#111a28;}</style></defs><path class="cls-1" d="M2469.49,1914.15a10,10,0,0,1-10-10V1476.92a10,10,0,0,1,20,0v427.23A10,10,0,0,1,2469.49,1914.15Z" transform="translate(-1035.83 -168.31)"/><path class="cls-1" d="M2429,1896.34a10,10,0,0,1-9.86-8.38l-102.72-623a10,10,0,0,1,19.74-3.25l102.71,623a10,10,0,0,1-8.24,11.49A9.13,9.13,0,0,1,2429,1896.34Z" transform="translate(-1035.83 -168.31)"/><path class="cls-1" d="M2496.77,1940.19a9.62,9.62,0,0,1-1.84-.17,10,10,0,0,1-8-11.66l140.9-756a10,10,0,1,1,19.66,3.67l-140.9,756A10,10,0,0,1,2496.77,1940.19Z" transform="translate(-1035.83 -168.31)"/><path class="cls-2" d="M1665.11,2430.9l-3.11,65-1.57,33.14-27.21,571.35s-38.85-4.07-90.51-13.71c-10.1-1.89-20.7-4-31.59-6.3-81.16-17.25-178.64-47-211.4-93.68-49-69.86-21.37-378.94,43.79-495,29.85-53.2,150.3-63.45,235-63.79,9.47-.06,18.5,0,26.89.2C1640.8,2428.84,1665.11,2430.9,1665.11,2430.9Z" transform="translate(-1035.83 -168.31)"/><g class="cls-3"><path class="cls-1" d="M1662,2495.94l-1.57,33.14-21.6,453.65-5.61,117.7-2.35-.27-1.51-.17-1.42-.17-1.14-.12c-.14,0-.31,0-.46-.06-.7-.08-1.48-.17-2.29-.29a4,4,0,0,1-.56-.06l-2.12-.26c-1-.11-2.06-.26-3.16-.4-.79-.12-1.63-.21-2.47-.32l-2.64-.35c-1.13-.15-2.32-.32-3.54-.47-2.47-.34-5.09-.69-7.84-1.1-2.44-.32-5-.7-7.67-1.1-3.08-.47-6.3-.93-9.64-1.46-12.34-1.91-26.46-4.26-41.7-7.11-3-.55-6-1.13-9-1.71l-6.48-1.28c-5.25-1.05-10.65-2.15-16.08-3.31-81.19-17.25-178.65-47-211.37-93.68-40.33-57.52-28.78-277.25,13-417.85-19.22,124.31-18.32,259.74,12.08,303.09,15,21.44,45.84,39.37,82.8,54.19,15.75,6.31,32.12-7.3,29.27-24,0-.13-.05-.27-.07-.4-5.11-30.66-6.53-65.28-2.12-105.32,9.47-85.81,35.25-207.91,139.47-297.44C1576.6,2496.87,1615.25,2496.29,1662,2495.94Z" transform="translate(-1035.83 -168.31)"/></g><path class="cls-1" d="M1648.42,3118.12l-16.85-1.76c-11.49-1.2-281.92-30.47-345-120.42-37.15-53-27.57-197.71-23.74-240.79,7.77-87.56,29.36-204.81,66.67-271.24,50.86-90.57,307.79-71.44,336.92-68.95l15.37,1.31Zm-64.75-674.33c-87.61,0-200.84,10.62-226.21,55.8-66.25,118-86.32,418.47-44.63,478,42.32,60.39,221.05,94.35,305.23,105l30.31-636.82C1630.42,2444.61,1608,2443.79,1583.67,2443.79Z" transform="translate(-1035.83 -168.31)"/><path class="cls-2" d="M1329,2758.79l110.88,18.86a22,22,0,0,1,18.28,19.82c3.14,36.63,6,121.62-31.64,146.07-31.24,20.29-78.21,13.16-103.69-12.85-28.49-29.1-23.79-111.75-19.47-152.48A22.06,22.06,0,0,1,1329,2758.79Z" transform="translate(-1035.83 -168.31)"/><g class="cls-3"><path class="cls-1" d="M1458.15,2797.48c3.15,36.63,6,121.62-31.65,146.05-31.25,20.31-78.2,13.17-103.69-12.85-17.51-17.91-22.48-56.06-22.7-92.25,3.35,18.38,9.88,33.67,18.81,44.13,51.15,60,99.22-.57,99.22-.57s5.82,16.34,11.55,17.77c24,6,26.06-70.55,26.23-110.18A21.52,21.52,0,0,1,1458.15,2797.48Z" transform="translate(-1035.83 -168.31)"/></g><path class="cls-1" d="M1384.37,2971.25c-26.83,0-54.18-10.15-73-29.36-31-31.61-30.1-107.38-24-165.37a38.07,38.07,0,0,1,44.25-33.51h0l110.88,18.85a38.07,38.07,0,0,1,31.55,34.24c4.11,48,4.52,132.68-38.88,160.87C1420.4,2966.6,1402.5,2971.25,1384.37,2971.25Zm-59.11-196.76a6.08,6.08,0,0,0-3.63,1.23,6,6,0,0,0-2.35,4.17c-7.35,69.17-1.61,122.65,15,139.6,20.69,21.12,59.72,26.09,83.53,10.62,20.84-13.53,30.19-63.83,24.41-131.28a6,6,0,0,0-5-5.4l-110.88-18.85h0A6.38,6.38,0,0,0,1325.26,2774.49Z" transform="translate(-1035.83 -168.31)"/><path class="cls-1" d="M1366,2944.72a22.48,22.48,0,0,0,3.09-1.25c1.19-.58,2.4-1.19,3.59-1.91a59.53,59.53,0,0,0,7-4.73,76.57,76.57,0,0,0,12.54-12.16,105.22,105.22,0,0,0,17.91-31.54c4.25-11.63,6.93-24,9-36.64,1.88-12.57,3.55-25.36,2.09-38.13,3.12,12.54,3.13,25.68,2.89,38.59-.4,12.9-1.46,26-4.37,39a117.65,117.65,0,0,1-15.34,37.48,93.13,93.13,0,0,1-13.06,16.44,78.5,78.5,0,0,1-8.1,7.15c-1.42,1.13-3,2.2-4.53,3.23a42.71,42.71,0,0,1-5.49,3.09l-.85.39a10.1,10.1,0,1,1-8.53-18.32A10.87,10.87,0,0,1,1366,2944.72Z" transform="translate(-1035.83 -168.31)"/><path class="cls-1" d="M1511.49,2507.07c-13.41-2-27.09-3.68-40.66-5.15s-27.19-2.68-40.76-3.52-27.11-1.45-40.48-1.32-26.63.68-38.92,2.63h-.05a16,16,0,1,1-5-31.66c.5-.08,1-.14,1.52-.17,15.16-.95,29.49-.12,43.69,1.07s28.11,3.16,42,5.33,27.55,4.72,41.2,7.49,27.18,5.75,40.82,9.11a8.26,8.26,0,0,1-3.16,16.2Z" transform="translate(-1035.83 -168.31)"/><path class="cls-4" d="M2557.57,613.76a17.2,17.2,0,0,0-1.09,3.27Z" transform="translate(-1035.83 -168.31)"/><path class="cls-5" d="M2577.71,964.49l44.36,54.42a26.07,26.07,0,0,1-16.05,42.2l-69.31,11.2a26.06,26.06,0,0,1-28.52-35l24.95-65.63A26.06,26.06,0,0,1,2577.71,964.49Z" transform="translate(-1035.83 -168.31)"/><g class="cls-3"><path class="cls-1" d="M2579.74,963.89l44.69,54.16a26.06,26.06,0,0,1-15.79,42.29L2539.4,1072a26.06,26.06,0,0,1-28.73-34.82l24.56-65.78A26.05,26.05,0,0,1,2579.74,963.89Z" transform="translate(-1035.83 -168.31)"/></g><path class="cls-1" d="M2532.35,1090a43.39,43.39,0,0,1-40.32-58.78l25-65.63a43.35,43.35,0,0,1,74.12-12l44.36,54.43a43.35,43.35,0,0,1-26.69,70.17l-69.32,11.2A44,44,0,0,1,2532.35,1090Zm25.2-117.78a9,9,0,0,0-1.45.12,8.63,8.63,0,0,0-6.8,5.54l-25,65.63a8.76,8.76,0,0,0,9.6,11.78l69.31-11.2a8.77,8.77,0,0,0,5.41-14.2l-44.36-54.43A8.5,8.5,0,0,0,2557.55,972.17Z" transform="translate(-1035.83 -168.31)"/><path class="cls-6" d="M2151.11,614.62c41.73,196.32,285.64,399,409.71,372.64s264.44-310.75,222.7-507.07-217.13-325.38-391.77-288.26S2109.37,418.3,2151.11,614.62Z" transform="translate(-1035.83 -168.31)"/><g class="cls-7"><path class="cls-2" d="M2151.11,614.63c.13.58.25,1.16.38,1.75-19.46-180.77,85-346.56,247.27-381,172.92-36.75,346.61,89.4,390.49,282.49a334,334,0,0,0-5.73-37.62c-41.74-196.33-217.13-325.39-391.77-288.27S2109.37,418.3,2151.11,614.63Z" transform="translate(-1035.83 -168.31)"/></g><g class="cls-3"><path class="cls-1" d="M2151.11,614.63c41.74,196.32,285.64,399,409.7,372.64s264.45-310.78,222.71-507.08c-.39-1.81-.77-3.59-1.18-5.37C2779.26,632.21,2649.08,827,2538.7,850.45c-124.06,26.37-359.16-134.86-393.78-297.76-1-4.79-1.91-9.61-2.68-14.38A406.41,406.41,0,0,0,2151.11,614.63Z" transform="translate(-1035.83 -168.31)"/></g><path class="cls-1" d="M2538.3,1006.77c-62.65,0-145.82-40-224.63-109.34C2221.14,816,2154.05,711.61,2134.2,618.22c-43.65-205.33,70.27-404.15,254-443.19s368.63,96.23,412.28,301.56c19.86,93.39,1,216-50.37,328.07-50.18,109.39-121.31,185.83-185.65,199.5A125.17,125.17,0,0,1,2538.3,1006.77ZM2452,202.88a272.33,272.33,0,0,0-56.65,6c-165,35.08-267,215.5-227.32,402.19,37.44,176.13,249.52,361.33,368.87,361.34a98,98,0,0,0,20.34-2C2671,946.17,2806.3,670.44,2766.62,483.78,2731.48,318.5,2596.91,202.88,2452,202.88Z" transform="translate(-1035.83 -168.31)"/><g class="cls-8"><path class="cls-2" d="M2418.77,287.91c-86.09,7.71-141.1,43.06-178.39,101.69-39.55,62.2-18.42,113,29.43,105.32s55-84.86,161.86-136.75C2500.72,324.64,2486.72,281.83,2418.77,287.91Z" transform="translate(-1035.83 -168.31)"/></g><path class="cls-4" d="M2311.4,942a17.22,17.22,0,0,0-1.1,3.27Z" transform="translate(-1035.83 -168.31)"/><path class="cls-9" d="M1904.93,942.86c41.74,196.32,285.65,399,409.71,372.63s264.44-310.75,222.71-507.07S2320.21,483,2145.58,520.17,1863.2,746.54,1904.93,942.86Z" transform="translate(-1035.83 -168.31)"/><g class="cls-7"><path class="cls-2" d="M1904.93,942.86c.13.58.26,1.17.38,1.75-19.45-180.76,85-346.56,247.28-381,172.91-36.75,346.6,89.4,390.49,282.49a336.84,336.84,0,0,0-5.73-37.63c-41.74-196.33-217.14-325.38-391.77-288.26S1863.19,746.53,1904.93,942.86Z" transform="translate(-1035.83 -168.31)"/></g><g class="cls-3"><path class="cls-1" d="M1909.93,902.86c41.74,196.33,285.64,399,409.7,372.65s264.45-310.78,222.72-507.08c-.39-1.81-.78-3.59-1.19-5.37-3.08,157.39-133.26,352.16-243.64,375.63-124.05,26.37-359.16-134.87-393.78-297.76-1-4.79-1.9-9.61-2.67-14.38A405.55,405.55,0,0,0,1909.93,902.86Z" transform="translate(-1035.83 -168.31)"/></g><path class="cls-1" d="M2292.12,1335c-62.65,0-145.82-40-224.63-109.34C1975,1144.22,1907.88,1039.84,1888,946.45c-21.06-99.1-6.48-199.67,41.07-283.19,47.93-84.18,123.54-141,212.89-160s181.54,2.16,259.56,59.57c77.42,57,131.65,142.9,152.72,242,19.85,93.39,1,216-50.38,328.06-50.18,109.39-121.31,185.83-185.64,199.51A126,126,0,0,1,2292.12,1335Zm-85.86-803.94a274,274,0,0,0-57.09,6c-79.57,16.91-147.06,67.8-190,143.29-43.36,76.15-56.6,168.09-37.3,258.89,37.44,176.14,249.52,361.33,368.88,361.35a98,98,0,0,0,20.33-2c113.73-24.18,249.07-299.91,209.39-486.58-19.3-90.8-68.8-169.4-139.38-221.33C2327.74,551.45,2267.24,531.06,2206.26,531.06Z" transform="translate(-1035.83 -168.31)"/><g class="cls-8"><path class="cls-2" d="M2172.59,606.15c-86.08,7.71-141.09,43.05-178.38,101.69-39.56,62.2-18.42,113,29.42,105.31s55-84.85,161.87-136.74C2254.55,642.87,2240.54,600.06,2172.59,606.15Z" transform="translate(-1035.83 -168.31)"/></g><path class="cls-4" d="M2763.36,948.15a16.41,16.41,0,0,0-2.53,2.34Z" transform="translate(-1035.83 -168.31)"/><path class="cls-10" d="M2612.31,1265.31l12.71,69.06a26.06,26.06,0,0,1-34.36,29.27l-66.16-23.52a26.06,26.06,0,0,1-8.17-44.39l53.45-45.54A26.06,26.06,0,0,1,2612.31,1265.31Z" transform="translate(-1035.83 -168.31)"/><g class="cls-3"><path class="cls-1" d="M2614.38,1265.77l13.13,69a26.06,26.06,0,0,1-34.18,29.48l-66.3-23.12a26.06,26.06,0,0,1-8.44-44.35l53.17-45.85A26.06,26.06,0,0,1,2614.38,1265.77Z" transform="translate(-1035.83 -168.31)"/></g><path class="cls-1" d="M2599.55,1382.49a43.94,43.94,0,0,1-14.68-2.56l-66.16-23.52a43.35,43.35,0,0,1-13.59-73.84l53.44-45.53a43.35,43.35,0,0,1,70.75,25.14l12.71,69.06a43.43,43.43,0,0,1-42.47,51.25Zm-13-121.25a8.41,8.41,0,0,0-5.58,2.11l-53.45,45.53a8.78,8.78,0,0,0,2.75,14.95l66.16,23.52a8.77,8.77,0,0,0,11.57-9.86l-12.71-69a8.63,8.63,0,0,0-5.69-6.68A9.2,9.2,0,0,0,2586.57,1261.24Z" transform="translate(-1035.83 -168.31)"/><path class="cls-11" d="M2406.59,753.38c-57.84,192.2,58.5,487.22,180,523.77s381.31-145.24,439.16-337.43S2991.85,550,2820.89,498.56,2464.44,561.19,2406.59,753.38Z" transform="translate(-1035.83 -168.31)"/><g class="cls-7"><path class="cls-2" d="M2406.6,753.39c-.17.57-.35,1.14-.52,1.71C2476,587.27,2647.33,492.17,2806.16,540c169.28,51,260.87,245.1,206.47,435.5a336.89,336.89,0,0,0,13.07-35.75c57.84-192.2-33.85-389.71-204.81-441.17S2464.44,561.19,2406.6,753.39Z" transform="translate(-1035.83 -168.31)"/></g><g class="cls-3"><path class="cls-1" d="M2406.6,708.39c-57.85,192.2,58.5,487.19,179.93,523.77s381.34-145.26,439.17-337.43c.53-1.78,1.05-3.52,1.55-5.28C2948.84,1026,2741,1134.1,2633,1101.57c-121.44-36.55-250-291-202-450.46,1.4-4.7,2.95-9.34,4.57-13.89A405.32,405.32,0,0,0,2406.6,708.39Z" transform="translate(-1035.83 -168.31)"/></g><path class="cls-1" d="M2620.54,1299a135.37,135.37,0,0,1-39-5.28c-63-19-127.54-101-168.49-214.19-41.94-115.91-50.56-239.69-23-331.12h0c29.2-97,90.37-178.17,172.23-228.52,82.51-50.75,176.13-64.2,263.6-37.87S2984,571.22,3024.78,659.09c40.47,87.17,46.68,188.6,17.48,285.62-27.52,91.42-103,189.89-202,263.39C2761.8,1266.4,2681.62,1299,2620.54,1299ZM2423.15,758.37c-55,182.73,57,468.72,168.38,502.23s362.63-143.13,417.63-325.86c26.75-88.89,21.16-181.62-15.74-261.09-36.57-78.79-99.62-135.09-177.51-158.54s-161.54-11.29-235.53,34.22c-74.64,45.9-130.48,120.14-157.23,209Z" transform="translate(-1035.83 -168.31)"/><g class="cls-8"><path class="cls-2" d="M2803.22,586.94c-79.18-34.65-144.41-30.13-205.31,3.34-64.6,35.51-70.52,90.25-24.86,106.49s89-47.93,207.68-42C2857.4,658.56,2865.72,614.28,2803.22,586.94Z" transform="translate(-1035.83 -168.31)"/></g><path class="cls-2" d="M2445.09,2188.4c-32.26,6.55-56,2.31-56,2.31-.85,1.53-1.75,3.09-2.64,4.61C2280.64,2383,2189,2490.88,2122.18,2552.38a103.09,103.09,0,0,1-35.6,21c-81,29.17-204.11-19.49-204.11-19.49l14.4-66.38,35-161.73s18.12-9.56,49.15-32c3.28-2.42,6.74-4.95,10.31-7.63,27.23-20.35,62.5-49.34,103.09-88.66,64.3-62.32,142-150.65,222.19-271.94,0,0,33.23-59.34,112.29-39.25,42.15,10.72,64.07,28.39,71.14,52.46,0,0,39.77-4.39,40.88,52C2542,2038.65,2521.1,2173,2445.09,2188.4Z" transform="translate(-1035.83 -168.31)"/><g class="cls-3"><path class="cls-1" d="M2386.41,2195.4c-105.81,187.62-197.41,295.48-264.23,357-73.22,67.34-239.71,1.53-239.71,1.53l17.67-81.56c55.06,12.65,123.52-6.87,178.38-31.58,217.26-97.85,235.7-245.55,248.74-319.41C2328.93,2144.69,2341.21,2174.71,2386.41,2195.4Z" transform="translate(-1035.83 -168.31)"/></g><g class="cls-3"><path class="cls-1" d="M2413.86,2192s-67.19,5.85-83-97.59c0,0,20.36,18.08,79.15,30.75,58.38,12.58,112.24-31.69,112.24-31.69S2499.38,2194.18,2413.86,2192Z" transform="translate(-1035.83 -168.31)"/></g><path class="cls-1" d="M1944.42,2328.81a16,16,0,0,1-7.09-30.38h0c1.69-.83,170.8-86.78,365.65-381.2,13.93-24.3,58.48-64.54,129.92-46.41,40.38,10.25,65.9,27.2,78,51.81,12.66,25.75,9.95,57.63-8.53,100.34-18.07,41.79-55.53,64.42-87.22,52.6-29.13-10.86-51-51.84-25-134.27a16,16,0,0,1,30.54,9.64c-18,56.88-9.68,88.93,5.62,94.63,13,4.87,34.52-7.27,46.65-35.31,14.27-33,17.27-57,9.17-73.5-7.71-15.68-26.4-27.1-57.15-34.9-66.4-16.86-94.14,31.08-94.4,31.58l-.62,1c-200.38,302.94-371.35,389.2-378.53,392.72A16,16,0,0,1,1944.42,2328.81Z" transform="translate(-1035.83 -168.31)"/><path class="cls-1" d="M2005.41,2647.46a16,16,0,0,1-4.15-31.48c1.44-.41,158.17-48.93,373.86-433.1l5.57-9.92,11.2,2c.15,0,21.48,3.55,50-2.23,65.13-13.22,83.95-139.55,83.1-181.6-.3-14.86-3.73-25.72-9.94-31.39a19.55,19.55,0,0,0-13.54-5,15.88,15.88,0,0,1-17.52-14.17,16.14,16.14,0,0,1,14.3-17.69,51.5,51.5,0,0,1,37.59,12.5c13.52,11.87,20.63,30.4,21.13,55.08,1.2,59.77-24.52,196.54-108.75,213.62a195.09,195.09,0,0,1-50.38,3.63c-221.26,390.43-381.53,437.36-388.29,439.18A15.79,15.79,0,0,1,2005.41,2647.46Z" transform="translate(-1035.83 -168.31)"/><path class="cls-1" d="M2389.1,2206.72a15,15,0,0,1-2.21-.15c-28.26-3.9-48.81-16.43-61.11-37.24-19.7-33.34-16.22-85.4,10.35-154.73,25.82-67.37,59.61-69.92,66-69.73l-.85,32a4.17,4.17,0,0,0,1.14,0c-.18,0-18.65,3-36.37,49.21-22.25,58.06-26.76,103.16-12.68,127,7.17,12.14,19.58,19.28,37.92,21.82a16,16,0,0,1-2.17,31.86Z" transform="translate(-1035.83 -168.31)"/><path class="cls-2" d="M1606.11,2334.49" transform="translate(-1035.83 -168.31)"/><path class="cls-12" d="M1606.11,2334.49" transform="translate(-1035.83 -168.31)"/><path class="cls-2" d="M2087.28,3022.73c-16.55,85-55.36,284.07-172.33,398.47,0,0,9.19,152.8-54.21,207.79-43.27,37.54-169.25,10.79-195.92-74.93-23-73.92,10.64-187.88,29.61-221.93,42.45-76.08,72.81-172.52,72.55-216l-51.6-2.46c-31.4,81.78-110,202.92-171.89,258.1,0,0-3,137.14-91,192.46-63.8,40.15-187.18,17.15-211.32-89.44-16.89-74.56,28.16-179.55,53.91-219.81,40.77-63.66,115.33-213.56,145.06-325.7,2-7.7,3.87-15.25,5.47-22.58,6.7-30.66,13.32-61.91,19.76-92.68,5.87-28.2,11.64-56,17.11-82.67,15.59-75.82,29.13-142.2,38.32-180.7,0,0,4.13-27.5,11.2-64.82,5.51-28.94,12.8-63.8,21.39-96.32,14.7-55.7,33.15-104.4,52.69-104.4h325.8c18.87,0,35.13,3.2,49.15,8.71,29,11.27,48.52,32.22,61.54,54.58,23.66,40.44,26.23,85.35,26.23,85.35,4.61,39.4,11.35,87,17.75,139.67C2102.72,2706.6,2116.56,2872.68,2087.28,3022.73Z" transform="translate(-1035.83 -168.31)"/><g class="cls-3"><path class="cls-1" d="M1503.57,2818.44c-.93,4.43-1.86,8.85-2.83,13.28A147.43,147.43,0,0,1,1465.4,2814c.07-.3.11-.59.18-.89Z" transform="translate(-1035.83 -168.31)"/></g><g class="cls-3"><path class="cls-1" d="M1736.92,3316.13c-19,34-52.65,148-29.61,221.93,20.35,65.37,98.4,96.44,153.5,90.86h0c-43.2,37.64-169.31,10.9-196-74.87-23-73.93,10.64-187.89,29.61-221.93,42.45-76.08,72.81-172.52,72.55-216l-51.6-2.46c-4.39,11.43-9.67,23.59-15.78,36.28,9-32.56-1.41-51.13-12.29-67.15-9.1-13.4,5.15-30.29,19.89-23.57,22.47,10.25,56.83,20.54,106.94,23.45,65.83,3.82,123.45-13.43,155.92-26.09,14.29-5.57,27.64,10.43,19.39,23.36C1945.88,3148.32,1772.36,3252.62,1736.92,3316.13Z" transform="translate(-1035.83 -168.31)"/></g><path class="cls-1" d="M1526,2551.88C1511.34,2673,1488.19,2792.67,1462,2912c-6.88,30.83-16.55,60.4-27.23,89.43s-22.41,57.54-34.84,85.69-25.63,55.93-39.47,83.4-28.36,54.6-44.51,81.25L1304.1,3271l-5.27,9.45-5,9.74c-6.47,13.14-12.25,26.71-17.47,40.46a439.34,439.34,0,0,0-13.35,41.91,333.48,333.48,0,0,0-8.07,42.63c-1.38,14.2-1.93,28.4-.41,42,1.7,13.4,5,26.81,10.67,39a116.54,116.54,0,0,0,22.64,32.85,120.6,120.6,0,0,0,32.67,23.35,141.17,141.17,0,0,0,79.76,13.1,114.16,114.16,0,0,0,38-11.64,90.15,90.15,0,0,0,8.38-5.09l4.2-2.84,4-3.12a142,142,0,0,0,15.1-13.76,176.75,176.75,0,0,0,24.34-33.8,241.26,241.26,0,0,0,17.09-39.17,310.87,310.87,0,0,0,10.91-42c1.37-7.14,2.46-14.34,3.36-21.55s1.55-14.7,1.79-21.17l.25-7,5.1-4.61c18.22-16.5,35-35.6,50.87-55.44s30.73-40.72,44.81-62.07,27.26-43.34,39.46-65.74,23.36-45.34,32.42-68.62l4.2-10.8,11.51.54,51.63,2.46,15.54.74L1783,3116c-.41,21.94-4.54,41.21-9.28,60.44s-10.68,37.79-17.19,56.19a730,730,0,0,1-47.87,106.82c-7.76,14.65-14,32.5-19.12,50a433.68,433.68,0,0,0-12,53.88,341.7,341.7,0,0,0-4.36,54.38c.13,17.93,2,35.73,7,51.84a99.31,99.31,0,0,0,26.12,41.14c12.09,11.62,27,20.74,43,27.33a152.55,152.55,0,0,0,50.27,11.31,111.59,111.59,0,0,0,24.87-1.5c7.93-1.4,15.35-4,21.15-7.64a31.09,31.09,0,0,0,4.07-2.88c1.32-1,2.81-2.62,4.22-3.89a81,81,0,0,0,7.9-9.1,124.71,124.71,0,0,0,13-21.66c7.31-15.73,12.51-33,16.16-50.83a410.9,410.9,0,0,0,7.26-54.58,492,492,0,0,0,.81-55.15l-.34-7.37,5.13-5c29.32-28.82,53.51-63.1,73.69-99.68s36.44-75.69,50-115.71A1131.93,1131.93,0,0,0,2061,3071.65q3.42-15.6,6.55-31.32c2.08-10.47,4.26-21.08,5.89-31.41s3.66-20.77,5.14-31.23l3.83-31.47a1237.06,1237.06,0,0,0,6-127.1c-.24-42.55-2.78-85.14-6.65-127.65l-12.35-127.75c-1.86-21.37-3.68-42.79-4.77-64.35s-1.84-43.21-1-65a5.4,5.4,0,0,1,10.59-1.28v0c5.95,20.91,10.75,41.91,15.18,63s8.22,42.35,11.64,63.67c6.71,42.66,11.58,85.71,14.35,129s4.71,86.65,5,130.15a1271.59,1271.59,0,0,1-6.13,130.63l-4,32.58c-1.53,10.85-3.57,21.64-5.33,32.45s-3.9,21.38-6,32-4.33,21.24-6.66,31.86a1165.27,1165.27,0,0,1-34.46,126.16c-14.06,41.43-31,82.15-52.31,120.9s-47.19,75.51-79.33,107.1l4.79-12.41a519.48,519.48,0,0,1-.84,59.29,441.49,441.49,0,0,1-7.85,58.85c-4,19.56-9.77,39.1-18.55,58a156.2,156.2,0,0,1-16.43,27.35,111.6,111.6,0,0,1-10.86,12.47c-2.12,1.95-3.88,3.85-6.31,5.79a65.1,65.1,0,0,1-7.58,5.42,91.51,91.51,0,0,1-32.27,11.95,142.31,142.31,0,0,1-32.15,2,184.13,184.13,0,0,1-60.92-13.65c-19.27-7.95-37.54-19-53-33.87s-27.85-33.64-34.47-54.62c-6.34-20.43-8.34-41-8.53-61.19a372.3,372.3,0,0,1,4.76-59.64,462.82,462.82,0,0,1,12.9-57.81c5.64-19.06,11.81-37.55,21.9-56.68a699.21,699.21,0,0,0,45.67-102c6.22-17.58,11.79-35.39,16.31-53.27s8-36.17,8.31-52.45l15.25,15.9-51.63-2.45,15.71-10.26c-9.82,25.22-21.55,49.11-34.18,72.43s-26.29,46-40.85,68.05-30,43.62-46.52,64.44-34.23,40.92-54.6,59.38l5.35-11.6c-.32,8.75-1.06,16.32-2,24.35s-2.18,15.78-3.67,23.6a344.12,344.12,0,0,1-12,46.36,273.62,273.62,0,0,1-19.44,44.48,208.57,208.57,0,0,1-29,40.15,164,164,0,0,1-40,31.19,145.84,145.84,0,0,1-48.86,15.09,173.06,173.06,0,0,1-98.07-16.13,152.61,152.61,0,0,1-41.3-29.58,148.71,148.71,0,0,1-29-42c-7.13-15.52-11.26-32-13.37-48.76-1.85-16.69-1.17-33.08.41-49.17a366.29,366.29,0,0,1,8.89-47.11,472.79,472.79,0,0,1,14.37-45.14c5.59-14.73,11.77-29.21,18.76-43.41l5.43-10.6,5.85-10.5,12.12-19.73c15.43-25.47,29.64-52.17,43.27-79s26.45-54.28,38.39-82,23.24-55.63,33.17-83.94a758.76,758.76,0,0,0,25.11-85.59c12.72-59.36,25.46-119,39-178.35,6.83-29.7,13.88-59.36,21.77-88.87s16.12-59,26.42-88a5.36,5.36,0,0,1,10.38,2.44Z" transform="translate(-1035.83 -168.31)"/><path class="cls-1" d="M2311.57,2704.65c-34.91,0-59.48-12.8-60-13.09a10,10,0,1,1,9.5-17.59c4,2.12,99.29,50.88,176.6-73.1,44.06-70.65,18.64-142.83-8.27-219.25-21.8-61.93-44.35-126-29.59-191.76a10,10,0,0,1,19.51,4.38c-13.5,60.17,8.08,121.47,29,180.74,27.29,77.52,55.51,157.67,6.37,236.48C2407.45,2687.11,2352.43,2704.65,2311.57,2704.65Z" transform="translate(-1035.83 -168.31)"/><path class="cls-2" d="M1985.66,3010.48c-18.92,1.64-40.14,3.11-62.94,4.17,13.61.35,26.16.51,37.35.54A71.05,71.05,0,0,0,1985.66,3010.48Z" transform="translate(-1035.83 -168.31)"/><circle class="cls-2" cx="2101.33" cy="2810.85" r="56.01" transform="translate(-1818.04 642.13) rotate(-18.47)"/><g class="cls-3"><path class="cls-1" d="M2157.49,2811.72a56,56,0,1,1-112-1.61,55.3,55.3,0,0,1,5.73-23.87,56,56,0,0,0,101.26,1.46A55.53,55.53,0,0,1,2157.49,2811.72Z" transform="translate(-1035.83 -168.31)"/></g><path class="cls-1" d="M2101.51,2879.44h-1a69.71,69.71,0,1,1,1,0Zm0-112a43.52,43.52,0,0,0-.62,87h.64a43.52,43.52,0,0,0,.61-87Z" transform="translate(-1035.83 -168.31)"/><g class="cls-3"><path class="cls-1" d="M2055,2944.3a57.18,57.18,0,0,1-54.39,59.53L1736,3015.74a57.16,57.16,0,0,1-59.53-54.39l-.74-16.93c-100,18.79-166.72,8.67-201.84-1.08-33.71,107.52-99.08,237.52-136.32,295.63-25.75,40.26-70.81,145.25-53.92,219.81,19.46,86,103.51,117.57,168.77,105.48-63.85,40.11-187.11,17.08-211.25-89.48-16.89-74.56,28.16-179.55,53.91-219.81,40.77-63.66,115.33-213.56,145.06-325.7,2-7.7,3.87-15.25,5.47-22.58,6.7-30.66,13.32-61.91,19.76-92.68a147.43,147.43,0,0,0,35.34,17.71c62.84,22.4,147.15,16.22,170.55,14l-1.12-25.11a57,57,0,0,1,54.4-59.53l264.49-11.91a57.15,57.15,0,0,1,59.53,54.4l5,111.5Z" transform="translate(-1035.83 -168.31)"/></g><path class="cls-2" d="M2020.47,2959.18l-264.54,11.91a57.19,57.19,0,0,1-59.53-54.39l-6.33-140.78a57.21,57.21,0,0,1,43.07-57.85,54.82,54.82,0,0,1,11.33-1.67L2009,2704.48a57.14,57.14,0,0,1,59.53,54.4l5,111.49,1.33,29.28A57.18,57.18,0,0,1,2020.47,2959.18Z" transform="translate(-1035.83 -168.31)"/><g class="cls-3"><path class="cls-1" d="M2020.47,2959.18l-264.54,11.91a57.19,57.19,0,0,1-59.53-54.39l-6.33-140.78a57.21,57.21,0,0,1,43.07-57.85c15.47,9.3,25.3,15.25,25.3,15.25,18,112.41,52.68,167.31,193.1,163.28,60.62-1.75,98.43-12.71,122-26.23l1.33,29.28A57.18,57.18,0,0,1,2020.47,2959.18Z" transform="translate(-1035.83 -168.31)"/></g><path class="cls-1" d="M1753.33,2983.66a69.68,69.68,0,0,1-69.4-66.39l-6.35-140.79a69.6,69.6,0,0,1,66.32-72.58L2008.42,2692A69.69,69.69,0,0,1,2081,2758.3l6.35,140.79a69.69,69.69,0,0,1-66.32,72.58l-264.51,11.92C1755.45,2983.64,1754.39,2983.66,1753.33,2983.66Zm258.24-266.75c-.68,0-1.35,0-2,0L1745,2728.87a44.59,44.59,0,0,0-42.47,46.49l6.35,140.79a44.69,44.69,0,0,0,46.48,42.47h0l264.51-11.92a44.69,44.69,0,0,0,42.47-46.48L2056,2759.43a44.73,44.73,0,0,0-44.46-42.52Z" transform="translate(-1035.83 -168.31)"/><path class="cls-2" d="M2031,2957.66a51.52,51.52,0,0,1-10.57,1.52l-264.54,11.92A57.15,57.15,0,0,1,1702.6,2940a56.18,56.18,0,0,1-6.16-23.26l-2.84-62.54-.93-20.64-2.6-57.6a57.19,57.19,0,0,1,54.4-59.52l57.16-2.56a57.18,57.18,0,0,0-43.91,58l3.41,76,2.93,64.77a57.21,57.21,0,0,0,59.52,54.39Z" transform="translate(-1035.83 -168.31)"/><g class="cls-3"><path class="cls-1" d="M2031,2957.66a51.52,51.52,0,0,1-10.57,1.52l-264.54,11.92a57.14,57.14,0,0,1-59.49-54.4l-3.77-83.18c7.31,14.4,20.08,31.9,39.29,32.93,10.54.59,20.53-7.42,29.17-18.57l2.93,64.77a57.21,57.21,0,0,0,59.52,54.4Z" transform="translate(-1035.83 -168.31)"/></g><path class="cls-1" d="M1753.29,2983.66a69.66,69.66,0,0,1-69.35-66.39l-6.34-140.79a69.69,69.69,0,0,1,66.31-72.58l57.14-2.57,3.44,24.65a44.58,44.58,0,0,0-34.28,45.32l6.35,140.79a44.67,44.67,0,0,0,46.44,42.47l207.49-9.37,3.56,24.62a65.57,65.57,0,0,1-13.08,1.86l-264.48,11.92C1755.42,2983.64,1754.35,2983.66,1753.29,2983.66Zm5.32-255.4-13.57.61a44.69,44.69,0,0,0-42.47,46.48l6.34,140.8a44.65,44.65,0,0,0,46.45,42.47l15.32-.69a68.86,68.86,0,0,1-19.09-44.72l-6.35-140.79A69.3,69.3,0,0,1,1758.61,2728.26Z" transform="translate(-1035.83 -168.31)"/><path class="cls-13" d="M1875.25,2838.69c.2,5.21-5.47,47.53-5.47,47.53l-29.66,1.17c-20.43.8-37.82-19.7-38.85-45.79s14.71-47.89,35.13-48.7l29.67-1.16S1874.91,2830.21,1875.25,2838.69Z" transform="translate(-1035.83 -168.31)"/><g class="cls-3"><path class="cls-1" d="M1880.25,2838.69c.2,5.21-5.47,47.53-5.47,47.53l-29.66,1.17c-20.43.8-37.82-19.7-38.85-45.79s14.71-47.89,35.13-48.7l29.67-1.16S1879.91,2830.21,1880.25,2838.69Z" transform="translate(-1035.83 -168.31)"/></g><path class="cls-1" d="M1844,2897.41c-25.24,0-46.48-24.48-47.7-55.42-1.24-31.55,18.82-58.06,44.73-59.08l20.71-.81a20.58,20.58,0,0,1,21.09,16.26c4.73,21.39,7.23,34.83,7.43,39.94h0c.06,1.39.2,5.09-4.35,40.2a20.7,20.7,0,0,1-19.77,18.06l-20.61.81Q1844.75,2897.41,1844,2897.41Zm18.55-95.33h0l-20.7.81c-14.64.58-26.33,18.13-25.54,38.32.79,19.85,13.4,36.2,27.73,36.2h.74l20.6-.81a.76.76,0,0,0,.72-.65c3.1-23.93,4.2-34.82,4.2-36.91-.13-3-2-14-7-36.36A.75.75,0,0,0,1862.53,2802.08Z" transform="translate(-1035.83 -168.31)"/><ellipse class="cls-13" cx="1872.92" cy="2838.87" rx="37.02" ry="47.28" transform="matrix(1, -0.04, 0.04, 1, -1145.95, -92.51)"/><g class="cls-7"><path class="cls-2" d="M1909.9,2837.53a57.16,57.16,0,0,1-.36,9.39c-5-19.88-20-34-37-33.36-17.91.69-32.19,17.51-34.8,39.24a58.85,58.85,0,0,1-1.78-12.38c-1-26.08,14.73-47.89,35.15-48.7S1908.91,2811.44,1909.9,2837.53Z" transform="translate(-1035.83 -168.31)"/></g><g class="cls-3"><path class="cls-1" d="M1909.9,2837.53c1,26.08-14.69,47.89-35.11,48.7s-37.83-19.72-38.86-45.81a57.8,57.8,0,0,1,.83-12.58c5.82,18.17,20.08,30.82,36.18,30.18,17-.67,30.75-15.94,34.29-36.08A60,60,0,0,1,1909.9,2837.53Z" transform="translate(-1035.83 -168.31)"/></g><path class="cls-1" d="M1873.65,2896.25c-25.25,0-46.49-24.49-47.7-55.43-1.24-31.55,18.82-58.06,44.72-59.08l1.54,0c25.24,0,46.48,24.49,47.7,55.43,1.24,31.55-18.83,58.05-44.73,59.07C1874.67,2896.24,1874.16,2896.25,1873.65,2896.25Zm-1.45-94.54-.74,0c-14.63.58-26.32,18.12-25.53,38.31s13.64,36.81,28.47,36.19c14.62-.58,26.32-18.12,25.53-38.31h0C1899.15,2818.07,1886.53,2801.71,1872.2,2801.71Z" transform="translate(-1035.83 -168.31)"/><path class="cls-1" d="M1948.18,2971.87a10,10,0,0,1-10-9.79l-1.52-71.28a59.14,59.14,0,0,1,25.48-50,39.07,39.07,0,0,0,16.86-33.89l-4.18-100.42a10,10,0,1,1,20-.83l4.18,100.42a59,59,0,0,1-25.44,51.15,39.19,39.19,0,0,0-16.88,33.11l1.52,71.28a10,10,0,0,1-9.78,10.22Z" transform="translate(-1035.83 -168.31)"/><path class="cls-2" d="M1478.48,2764.18s-45.45,8.83-47.15,62.25c-1.23,38.4,32.79,61.32,32.79,61.32s76.7,42.47,237.22,10.93c0,0,48-61.52-3.91-98.32C1697.43,2800.36,1545.16,2819.5,1478.48,2764.18Z" transform="translate(-1035.83 -168.31)"/><g class="cls-3"><path class="cls-1" d="M1701.35,2898.69c-160.54,31.51-237.22-10.94-237.22-10.94s-34-22.92-32.81-61.31a86.67,86.67,0,0,1,.78-9.15,86.4,86.4,0,0,0,26.38,31.4s66.91,37,206.49,16.22c24.38-3.64,44.49-21.68,49.49-45.83,0-.22.09-.45.14-.68C1736,2854.3,1701.35,2898.69,1701.35,2898.69Z" transform="translate(-1035.83 -168.31)"/></g><path class="cls-1" d="M1589,2922.87c-85.9,0-128.52-22.86-130.92-24.18l-.93-.57c-1.62-1.1-39.73-27.3-38.31-72.09,1.61-50.14,38.16-70.4,57.27-74.11l5.81-1.13,4.56,3.78c61.78,51.25,207.93,33.56,209.41,33.39l4.81-.61,4,2.81c16.43,11.64,26.08,26.61,28.71,44.5,5.29,36.05-21,70.27-22.17,71.71l-2.87,3.68-4.57.9C1659.34,2919.67,1621.13,2922.87,1589,2922.87Zm-118.32-45.8c6.66,3.31,80,37.35,223.36,10.29,5.45-8.25,17.56-29.25,14.59-49.17-1.44-9.66-6.29-17.83-14.78-24.85-27.33,2.84-152.57,12.76-218-35.37-10.14,3.76-30.94,15.51-32,48.86C1442.91,2855.38,1467,2874.31,1470.67,2877.07Z" transform="translate(-1035.83 -168.31)"/><path class="cls-1" d="M2326.25,2308.78a12.73,12.73,0,0,1-2.72-.3c-170.83-37.92-157.81-199.32-157.66-200.95a12.63,12.63,0,0,1,13.6-11.29,12.5,12.5,0,0,1,11.29,13.59c-.51,5.77-10.8,141.17,138.19,174.24a12.5,12.5,0,0,1-2.7,24.71Z" transform="translate(-1035.83 -168.31)"/><path class="cls-14" d="M2491.11,1479.89l35.1,60.81a26.05,26.05,0,0,1-22.57,39.09h-70.21a26.06,26.06,0,0,1-22.57-39.09l35.11-60.81A26.06,26.06,0,0,1,2491.11,1479.89Z" transform="translate(-1035.83 -168.31)"/><g class="cls-3"><path class="cls-1" d="M2408.13,1547.37a26.09,26.09,0,0,0,25.3,32.42h0A26.09,26.09,0,0,1,2408.13,1547.37Z" transform="translate(-1035.83 -168.31)"/></g><g class="cls-3"><path class="cls-1" d="M2433.43,1549.79h70.21A25.72,25.72,0,0,0,2525,1538.6l-33.89-58.71a26.06,26.06,0,0,0-45.14,0l-33.9,58.71A25.74,25.74,0,0,0,2433.43,1549.79Z" transform="translate(-1035.83 -168.31)"/></g><g class="cls-3"><path class="cls-1" d="M2507.31,1579.55a26,26,0,0,0,21.46-18.84A26,26,0,0,1,2507.31,1579.55Z" transform="translate(-1035.83 -168.31)"/></g><g class="cls-3"><path class="cls-1" d="M2528.77,1560.71a25.83,25.83,0,0,0,1-6.57A25.83,25.83,0,0,1,2528.77,1560.71Z" transform="translate(-1035.83 -168.31)"/></g><path class="cls-1" d="M2503.64,1597.08h-70.21a43.35,43.35,0,0,1-37.54-65l35.11-60.81a42.88,42.88,0,0,1,37.53-21.67h0a42.91,42.91,0,0,1,37.54,21.67h0l35.11,60.81a43.35,43.35,0,0,1-37.55,65Zm-35.1-112.93a8.61,8.61,0,0,0-7.6,4.39l-35.11,60.8a8.78,8.78,0,0,0,7.6,13.17h70.21a8.78,8.78,0,0,0,7.61-13.17l-35.11-60.8A8.63,8.63,0,0,0,2468.54,1484.15Z" transform="translate(-1035.83 -168.31)"/><path class="cls-14" d="M2125.79,1066.46c9.88,200.46,218.33,439.46,345,433.22s310.63-264.58,300.75-465S2609.1,678.78,2430.78,687.57,2115.91,866,2125.79,1066.46Z" transform="translate(-1035.83 -168.31)"/><g class="cls-7"><path class="cls-2" d="M2125.79,1066.46l.09,1.79c9.64-181.56,139.23-328.56,304.9-336.72,176.57-8.69,327.9,143.55,340.42,341.17a336.4,336.4,0,0,0,.35-38.06c-9.89-200.47-162.45-355.86-340.77-347.07S2115.9,866,2125.79,1066.46Z" transform="translate(-1035.83 -168.31)"/></g><g class="cls-3"><path class="cls-1" d="M2125.79,1021.46c9.88,200.47,218.33,439.45,345,433.23s310.64-264.61,300.76-465.05c-.1-1.85-.19-3.67-.32-5.49-28.14,154.88-187.73,326.39-300.44,331.95-126.67,6.24-333.05-190.44-341.24-356.77-.25-4.9-.34-9.79-.34-14.62A405.24,405.24,0,0,0,2125.79,1021.46Z" transform="translate(-1035.83 -168.31)"/></g><path class="cls-1" d="M2466.16,1517.08c-65.06,0-150.63-55.17-225-145.51-78.35-95.16-127.93-208.9-132.63-304.26-5-101.19,25.46-198.15,85.72-273,60.75-75.46,144.45-119.5,235.69-124,187.43-9.24,348.55,153.81,358.89,363.47,4.7,95.36-33.46,213.43-102.07,315.83-67,100-149.41,164.1-215.1,167.33C2469.84,1517,2468,1517.08,2466.16,1517.08Zm-21-812.58q-6.72,0-13.49.34c-81.24,4-156,43.47-210.46,111.14-54.94,68.25-82.69,156.91-78.12,249.63,4.35,88.2,51,194.36,124.79,284C2336.47,1433,2416,1485.08,2470,1482.41c116.13-5.72,293.73-256.32,284.34-446.93C2745.14,850,2607.8,704.5,2445.12,704.5Z" transform="translate(-1035.83 -168.31)"/><g class="cls-7"><path class="cls-2" d="M2443.73,786.76c-86.21-6.12-146.15,20-192.32,71.93-49,55.09-36.22,108.66,12.25,108.66s67.84-75,181.6-109.17C2518.78,836.09,2511.79,791.59,2443.73,786.76Z" transform="translate(-1035.83 -168.31)"/></g><path class="cls-2" d="M1592.68,2374.73,1560.49,2500,1503,2723.9c-6.36,2.34-13.17,4.76-20.5,7.44-39,14.29-92,36.72-162,105.37-24.52,24.07-51.94,42-94.91,68.3-92.46,56.52-255.72-35.45-125.57-211.84C1212.44,2540.89,1342.54,2471,1452,2427c36.57-14.66,70.84-26.49,101.38-37.5C1567.34,2384.48,1580.47,2379.6,1592.68,2374.73Z" transform="translate(-1035.83 -168.31)"/><g class="cls-3"><path class="cls-1" d="M1503,2723.9c-40.29,15-99.41,31.33-182.45,112.81-24.52,24.07-51.94,42-94.91,68.31-76.61,46.8-201.77-8.26-168.47-128.85,29.49,207.58,209,72.77,272,5.36,100.42-107.4,218.42-139.6,229.8-119.06S1503,2723.9,1503,2723.9Z" transform="translate(-1035.83 -168.31)"/></g><path class="cls-1" d="M1165,2937.55c-36.87,0-73.68-14.41-98.65-41.65-47.08-51.36-39.28-130.7,20.88-212.24,144.93-196.44,316.18-257.57,441.22-302.21,21-7.48,40.75-14.55,58.29-21.57a16,16,0,0,1,11.89,29.73c-18.1,7.24-38.16,14.4-59.41,22C1418,2454.85,1252.1,2514.09,1113,2702.68c-51.11,69.26-59.51,131.81-23,171.58,31.27,34.12,87.22,41.63,127.36,17.08,44.49-27.21,69.61-44,92-66.05,78.33-76.87,137.93-98.3,177.36-112.48,3.73-1.34,7.31-2.62,10.75-3.9a16,16,0,1,1,11.14,30q-5.31,2-11.06,4c-39,14-92.43,33.24-165.76,105.2-24.66,24.19-51.17,42-97.78,70.51C1213.15,2931.4,1189.05,2937.55,1165,2937.55Z" transform="translate(-1035.83 -168.31)"/><path class="cls-2" d="M2170.61,2020.5h0a9.6,9.6,0,0,1-11.78-6.76l-72.35-267a9.6,9.6,0,0,1,6.76-11.78h0a100.77,100.77,0,0,1,123.61,70.9l24.67,91.06A100.76,100.76,0,0,1,2170.61,2020.5Z" transform="translate(-1035.83 -168.31)"/><path class="cls-1" d="M2168.07,2024.24a13,13,0,0,1-12.52-9.61l-72.35-267a13,13,0,0,1,9.15-15.95,104.27,104.27,0,0,1,127.77,73.29L2244.8,1896a104.17,104.17,0,0,1-73.3,127.78A13.42,13.42,0,0,1,2168.07,2024.24Zm-48.51-289.43a97.17,97.17,0,0,0-25.43,3.4,6.2,6.2,0,0,0-4.38,7.61l72.36,267a6.19,6.19,0,0,0,7.61,4.37h0a97.36,97.36,0,0,0,68.52-119.44l-24.67-91.06A97.56,97.56,0,0,0,2119.56,1734.81Z" transform="translate(-1035.83 -168.31)"/><g class="cls-3"><path class="cls-1" d="M2230,1854.19l11.58,42.71a100.8,100.8,0,0,1-70.92,123.62,9.62,9.62,0,0,1-11.79-6.78l-19.25-71a9.6,9.6,0,0,0,9.92,3.22l6.33-1.74A100.68,100.68,0,0,0,2230,1854.19Z" transform="translate(-1035.83 -168.31)"/></g><path class="cls-1" d="M2168.05,2036.86a25.66,25.66,0,0,1-24.67-18.93l-72.36-267a25.63,25.63,0,0,1,18-31.43,116.93,116.93,0,0,1,143.25,82.18l24.67,91.06A116.77,116.77,0,0,1,2174.8,2036,25.58,25.58,0,0,1,2168.05,2036.86Zm-1.63-31.81h0Zm-62.75-256.11,68.87,254.2a84.73,84.73,0,0,0,53.52-102.06L2201.39,1810A84.87,84.87,0,0,0,2103.67,1748.94Z" transform="translate(-1035.83 -168.31)"/><path class="cls-2" d="M1211.83,1973.75h0a9.6,9.6,0,0,1,11.78,6.76l72.35,267a9.6,9.6,0,0,1-6.76,11.78h0a100.77,100.77,0,0,1-123.61-70.91l-24.67-91A100.76,100.76,0,0,1,1211.83,1973.75Z" transform="translate(-1035.83 -168.31)"/><path class="cls-1" d="M1262.87,2266.23a104.33,104.33,0,0,1-100.56-76.93l-24.67-91.06a104.27,104.27,0,0,1,73.3-127.77h0a13,13,0,0,1,15.94,9.15l72.36,267a13,13,0,0,1-9.15,15.94A103.63,103.63,0,0,1,1262.87,2266.23ZM1212.72,1977a97.5,97.5,0,0,0-68.53,119.45l24.68,91.06A97.37,97.37,0,0,0,1288.31,2256a6.23,6.23,0,0,0,4.38-7.62l-72.36-267a6.21,6.21,0,0,0-7.61-4.37Z" transform="translate(-1035.83 -168.31)"/><g class="cls-3"><path class="cls-1" d="M1275.91,2173.45l20.06,74.08a9.62,9.62,0,0,1-6.78,11.79,100.71,100.71,0,0,1-123.58-70.89l-10.4-38.37a100.81,100.81,0,0,0,104.08,33.12l9.74-2.65A9.69,9.69,0,0,0,1275.91,2173.45Z" transform="translate(-1035.83 -168.31)"/></g><path class="cls-1" d="M1262.88,2278.85a117,117,0,0,1-112.74-86.25l-24.68-91.06a116.92,116.92,0,0,1,82.18-143.25,25.64,25.64,0,0,1,31.42,18l72.36,267a25.61,25.61,0,0,1-18,31.42A116.62,116.62,0,0,1,1262.88,2278.85Zm-53-287.75a84.89,84.89,0,0,0-53.52,102.07l24.68,91.06a84.75,84.75,0,0,0,97.72,61.08Zm6.13-1.9Zm-4.19-15.45h0Z" transform="translate(-1035.83 -168.31)"/><g class="cls-3"><path class="cls-1" d="M2094.46,2197.52a381.28,381.28,0,0,1-534,302.48q-14.57-6.48-28.46-14.18a382.08,382.08,0,0,1-80-58.82c36.57-14.66,70.84-26.49,101.38-37.5,14.7-55.7,33.15-104.4,52.69-104.4h325.8c18.87,0,35.12,3.2,49.15,8.71,3.27-2.42,6.73-4.95,10.31-7.63C2018.6,2265.83,2053.87,2236.84,2094.46,2197.52Z" transform="translate(-1035.83 -168.31)"/></g><circle class="cls-2" cx="655.45" cy="1828.8" r="471.45"/><path class="cls-1" d="M1690.29,2472.1c-93.39,0-184.67-27.63-263.91-80.89-105.27-70.76-176.68-178.27-201.08-302.74s1.12-251,71.88-356.25,178.27-176.68,302.73-201.09,251,1.12,356.26,71.88,176.68,178.27,201.08,302.74c50.38,256.94-117.67,507-374.61,557.34A480.16,480.16,0,0,1,1690.29,2472.1Zm2-943.19a472.75,472.75,0,0,0-91,8.89c-122.68,24-228.66,94.45-298.41,198.21s-94.9,228.47-70.84,351.16,94.44,228.66,198.2,298.4,228.48,94.92,351.16,70.85c253.27-49.65,418.91-296.1,369.25-549.36h0c-24-122.69-94.44-228.67-198.2-298.41C1874.28,1556.15,1784.29,1528.91,1692.25,1528.91Z" transform="translate(-1035.83 -168.31)"/><g class="cls-3"><path class="cls-1" d="M2136.93,1843.23a468.51,468.51,0,0,1,17,63.17c50.06,255.51-116.45,503.25-371.95,553.37s-503.25-116.45-553.37-371.95c-1.44-7.34-2.71-14.73-3.78-22,75.35,219.09,302.58,354.6,536.37,308.77C2009.35,2325.88,2173.52,2090.81,2136.93,1843.23Z" transform="translate(-1035.83 -168.31)"/></g><path class="cls-1" d="M1690.26,2484.72c-95.86,0-189.57-28.37-270.91-83-108.07-72.64-181.38-183-206.43-310.78s1.15-257.66,73.79-365.72,183-181.37,310.78-206.42,257.65,1.15,365.71,73.78,181.38,183,206.43,310.78h0c51.71,263.77-120.8,520.43-384.57,572.15A492.8,492.8,0,0,1,1690.26,2484.72Zm2-943.19a459.94,459.94,0,0,0-88.57,8.65c-119.38,23.4-222.5,91.9-290.37,192.86s-92.34,222.32-68.93,341.7,91.89,222.5,192.86,290.36,222.31,92.35,341.69,68.94c246.44-48.32,407.62-288.12,359.3-534.56h0c-23.4-119.38-91.89-222.5-192.86-290.36C1869.35,1568,1781.78,1541.53,1692.22,1541.53Z" transform="translate(-1035.83 -168.31)"/><path class="cls-1" d="M2154.77,1918.57c19.11,90.26,7.56,180.26-27.86,260.2-26.56,59.93-161.71,183.6-352,225.7-176.47,39-357.3-21.16-405.87-65.18-64.79-58.72-111.83-136.3-131-226.56-50.58-238.84,133.65-381.31,386.8-434.93S2104.18,1679.74,2154.77,1918.57Z" transform="translate(-1035.83 -168.31)"/><g class="cls-8"><ellipse class="cls-2" cx="1999.09" cy="1927.66" rx="60.46" ry="83.43" transform="translate(-1091.82 -108.5) rotate(-1.69)"/></g><g class="cls-8"><ellipse class="cls-2" cx="1960.52" cy="2104.69" rx="38.29" ry="32.86" transform="translate(-1380.99 3656.03) rotate(-83.75)"/></g><g class="cls-3"><path class="cls-15" d="M2018.43,1714.64c67.36,41.6,116,108,136.33,203.92,19.12,90.27,7.55,180.27-27.84,260.2-26.56,59.94-161.73,183.61-352.05,225.72-67.19,14.89-135,15.35-195.94,7.78,232.84-56.76,397.3-208.24,430.23-282.57,45-101.46,59.61-215.7,35.34-330.22A477.52,477.52,0,0,0,2018.43,1714.64Z" transform="translate(-1035.83 -168.31)"/></g><path class="cls-1" d="M1229.44,1916.71a15,15,0,0,1-13.67-21.08c56.14-136.88,199.45-238.91,393.24-280,192.37-40.73,364.15-7.86,471.47,90.19a15,15,0,0,1-16.2,25c-.21-.1-.51-.26-.72-.38l-1.51-.85-1.28-1.17c-100-91.82-262.44-122.25-445.54-83.46-184.1,39-319.63,134.61-371.85,262.33l-.64,1.38A15.08,15.08,0,0,1,1229.44,1916.71Zm841.48-199.27h0Z" transform="translate(-1035.83 -168.31)"/><g class="cls-8"><path class="cls-2" d="M1371.09,2233s-123.87-220-16.78-340.73,289.86-159.1,288.07-146.48c0,0-191.88,91.8-237.15,268.45C1370.33,2150.47,1371.09,2233,1371.09,2233Z" transform="translate(-1035.83 -168.31)"/></g><path class="cls-1" d="M1767.79,3100.57c17.33-1.05,35.27-1.69,52.9-2.54s35.43-1.57,53.07-3.18,35.28-3.56,52.72-6.75,34.72-7.28,51.72-13.31l0,0a1.8,1.8,0,0,1,1.61,3.18c-15.24,10.28-32.17,18.11-49.5,24.52a398.86,398.86,0,0,1-53.34,14.68,452.25,452.25,0,0,1-54.58,7.94c-18.38,1.41-36.54,2.07-55.29.47a12.52,12.52,0,0,1,.3-25Z" transform="translate(-1035.83 -168.31)"/><path class="cls-1" d="M1899.82,3315.05c-94.35,0-170.32-64.06-171.4-65a12.5,12.5,0,0,1,16.3-18.95c5.71,4.89,141.06,118.47,267.5,18.31a12.5,12.5,0,1,1,15.53,19.59C1984.71,3303.11,1940.55,3315.05,1899.82,3315.05Z" transform="translate(-1035.83 -168.31)"/><path class="cls-1" d="M1571.31,3274.3c-42.06,0-85.54-16.31-128.77-48.73-53.41-40.05-87.29-90.08-88.72-92.19a12.5,12.5,0,0,1,20.76-13.94c1.28,1.89,129.38,189,268,110.28a12.5,12.5,0,0,1,12.35,21.74C1628.05,3266.71,1600,3274.3,1571.31,3274.3Z" transform="translate(-1035.83 -168.31)"/><path class="cls-1" d="M1428.45,2767.53a12.51,12.51,0,0,1-12.35-10.68c-18.61-126.31-130.88-238-132-239.11a12.51,12.51,0,0,1,17.53-17.84c4.86,4.78,119.36,118.57,139.22,253.3a12.5,12.5,0,0,1-10.55,14.19A12.77,12.77,0,0,1,1428.45,2767.53Z" transform="translate(-1035.83 -168.31)"/><path class="cls-1" d="M1355,3319.91a172.89,172.89,0,0,0,37.68,39.73c14.37,11,30.51,19.23,47.32,23a100.44,100.44,0,0,0,50.09-1.68c16.1-4.76,31.19-12.8,45.06-22.86a16.06,16.06,0,0,1,18.86,26,17.83,17.83,0,0,1-1.88,1.18l-.22.11c-17.64,9.26-36.92,16.27-57.06,19.12-10.09,1.2-20.3,1.74-30.38.48a120.57,120.57,0,0,1-29.2-7c-18.61-7.16-34.62-18.79-47.9-32.32A176.74,176.74,0,0,1,1355,3319.91Z" transform="translate(-1035.83 -168.31)"/><path class="cls-1" d="M1741.7,3373.75a145.22,145.22,0,0,0,35.21,34.42,115.36,115.36,0,0,0,43.49,18.66,104.26,104.26,0,0,0,45.46-1.6,150.62,150.62,0,0,0,41.85-18.3,16.06,16.06,0,0,1,16.94,27.3,15.38,15.38,0,0,1-2.2,1.15l-.26.1a178.24,178.24,0,0,1-52.55,13.47,124.3,124.3,0,0,1-53.58-6.71,127.38,127.38,0,0,1-44.22-27.87A149.17,149.17,0,0,1,1741.7,3373.75Z" transform="translate(-1035.83 -168.31)"/></svg>